<mxfile host="app.diagrams.net" agent="Mozilla/5.0 (Windows NT 10.0; Win64; x64; rv:137.0) Gecko/20100101 Firefox/137.0" version="26.2.12">
  <diagram name="Page-1" id="U5NrzFXAgHeZSVnIE7qF">
    <mxGraphModel dx="445" dy="323" grid="1" gridSize="10" guides="1" tooltips="1" connect="1" arrows="1" fold="1" page="1" pageScale="1" pageWidth="236" pageHeight="236" math="0" shadow="0">
      <root>
        <mxCell id="0" />
        <mxCell id="1" parent="0" />
        <mxCell id="hcz-sWbUcZqXMe1qP15K-1" value="" style="whiteSpace=wrap;html=1;fillColor=none;dashed=1;dashPattern=12 12;strokeWidth=0.7874;strokeColor=none;" parent="1" vertex="1">
          <mxGeometry x="-0.10999999999998522" width="236.22" height="236.22" as="geometry" />
        </mxCell>
        <mxCell id="AVs13AZFLNNJArJ95App-2" value="" style="shape=image;verticalLabelPosition=bottom;labelBackgroundColor=default;verticalAlign=top;aspect=fixed;imageAspect=0;image=data:image/png,iVBORw0KGgoAAAANSUhEUgAAArAAAAKwCAYAAABgREy2AAAgAElEQVR4XuydB9hVxbX3B0QFawxWYseCEoUoKlZsWFEsqBGsWPCqQIjXdqPeRHPtFSVRgw01isYSUVRUxNjRINjAHoIhCmJXQNrHb+7dfIfjKVPWPu+c8671PO8T87Bn9sx/rzPznzWrtFiwUIyKIqAIKAKKgCKgCCgCioAiUCcItFACWydfSoepCCgCioAioAgoAoqAImARUAKriqAIKAKKgCKgCCgCioAiUFcIKIGtq8+lg1UEFAFFQBFQBBQBRUARUAKrOqAIKAKKgCKgCCgCioAiUFcIKIGtq8+lg1UEFAFFQBFQBBQBRUARUAKrOqAIKAKKgCKgCCgCioAiUFcIKIGtq8+lg1UEFAFFQBFQBBQBRUARUAKrOqAIKAKKgCKgCCgCioAiUFcIKIGtq8+lg1UEFAFFQBFQBBQBRUARUAKrOqAIKAKKgCKgCCgCioAiUFcIKIGtq8+lg1UEFAFFQBFQBBQBRUARUAKrOqAIKAKKgCKgCCgCioAiUFcIKIGtq8+lg1UEFAFFQBFQBBQBRUARUAKrOqAIKAKKgCKgCCgCioAiUFcIKIGtq8+lg1UEFAFFQBFQBBQBRUARUAKrOqAIKAKKgCKgCCgCioAiUFcIKIGtq8+lg1UEFAFFQBFQBBQBRUARUAKrOqAIKAKKgCKgCCgCioAiUFcIKIGtq8+lg1UEFAFFQBFQBBQBRUARUAKrOqAIKAKKgCKgCCgCioAiUFcIKIGtq8+lg1UEFAFFQBFQBBQBRUARUAKrOqAIKAKKgCKgCCgCioAiUFcIKIGtq8+lg1UEFAFFQBFQBBQBRUARUAKrOqAIKAKKgCKgCCgCioAiUFcIKIGtq8+lg1UEFAFFQBFQBBQBRUARUAKrOqAIKAKKgCKgCCgCioAiUFcIKIGtq8+lg1UEFAFFQBFQBBQBRUARUAKrOqAIKAKKgCKgCCgCioAiUFcIKIGtq8+lg1UEFAFFQBFQBBQBRUARUAKrOqAIKAKKgCKgCCgCioAiUFcIKIGtq8+lg1UEFAFFQBFQBBQBRUARUAKrOqAIKAKKgCKgCCgCioAiUFcIKIGtq8+lg1UEFAFFQBFQBBQBRUARUAKrOqAIKAKKgCKgCCgCioAiUFcIKIGtq8+lg1UEFAFFQBFQBBQBRUARUALroAOzZ882//jHP8w///lPM23aNPPtt9+a77//3v7NnDnTzJ8/36GXpn1kiSWWMMsss8yiv+WXX96sscYaZu211zbrrbde0w5O3540Auj5+PHjzaRJk8y///1vO1Z0p0OHDqZz585Wp5pCXn/9dfPmm2+af/3rX/a3uOqqq5r111/fdOnSxbRt29Z5SF9//bX5+9//bt5//307v6WWWsrO7+c//7nZbLPN7P93FdaJ1157za4Vn3/+ufnpT39qf2O/+MUvzLrrruvaTbLPvfPOO2bChAnm448/Nl999ZVZZZVV7Ly23HJLi1lTCN+M7wf206dPNyuuuKJZc801TadOnczGG2/cFEPSd+aMwIcffmh/Y3z7b775xu7D2Z48b968nN8e333Lli1NmzZtFtuPWb9YK9ZZZx2z9NJLx7+kGfSgBLbER2aRfvvtt81bb71lPvroI7soNrr87Gc/M+3btzcdO3Y0m266qf0RqTRvBL744gtz9913myeffNLMmTOnJBhLLrmk6d69uzn00EMtWauFPPDAA4a/L7/8suzrttpqK9OnTx9LaMsJm9+dd95p/va3v5V9BnK+7777moMPPrgiUX/hhRfMXXfdZSZPnly2L35Thx9+uNluu+1qAZPoO0aOHGkx//TTT8v2u8kmm5gjjjjCkv5ayLhx48zw4cPNxIkTy75utdVWs7qJjqrUJwIcTNiP33jjDbsfT506tT4n4jFqyCyGJQ7R7McbbrihR+vm86gS2IXfmtPbs88+a/+wLqgYs+yyy1qrUbdu3cw222yjkDQzBCB3//Vf/2VmzJjhNPOVV17ZnHfeeblaGbkJ+d3vfmetri7SqlUrc/bZZxvIbLHQx+9//3trtXERyOcFF1xgfvKTnyz2+IIFC8xNN91kHnroIZdu7DMHHnigOfbYY52fb8oHObhceeWV5vnnn3ceximnnGL23HNP5+dDHvzrX/9qcXeVPfbYw/zHf/yH4SZKJX0E2Is5WHLLwv7c3AVDAcYl9uMdd9zR61aokbFr1gSWa9EnnnjCEleV8gissMIKZocddjB77bVXrgRFv0EaCHzyySfmrLPOslfgPoJbyuWXX57LVfIPP/xgfvvb3zqT12zcXNVBYgsPYe+9954555xzvDdGrvcuuugiwzwzue2228x9993nA5N9Fovu0Ucf7d2ulg1wjYK8VrJQlxtPv379rOU6D/Elr9kYdt55Z/PrX/86jyFpnwII4MLz2GOP2f1YSWt5QHFp2nbbbe0hEQttc5ZmSWAhrQ8++KCZMmVKc/72QXPHrwwL0hZbbBHUXhuljQD+ZGzyla6KK81g9dVXN1dcccViJC92xhCp//mf/zGvvPJKUFdYLyCeG220kfWbg9AyzxDhKo++2ET+8pe/mGHDhoV0Y9scd9xxpmfPnsHt8274hz/8wRKKEGnRooW14Evf3kCm0S8s3yFSDweHkHnVc5sXX3zR7seVXEHqeX55jh0XKfZjLLPNUZoVgb333nvtDyV082qOClJuzu3atTO9e/c2O+20k8LSQAi89NJL5sILL4ya0X/+53+K6gWW4BNPPNFghQ2V/fbbz5xwwgkm1HpX+F4I1AYbbGAGDRpkCCYJFfqgL8heagLWWIi/++674KFBXn/zm98Ety/VEFLs6kJSqj1+2jfeeKNewYp+lbDOMCTdc889wYflsLc2ZquVVlrJHHLIIaZHjx6NOcEys2oWBJYFb/DgwYarURVZBDbffHPTv39/Q7CESv0j8N///d82ij5G8J3GV1VKYi2djINgrDvuuMPqKlkLYgRXmt12282cfvrpMd3YtpdddlmSkfJYOnEHiZVbb71VLLiPzAcnn3xy7JCM9AErekDNrANuQa655hqDK4+KLAJkBBk4cKANyG4O0tAEljQvnLbVxzV/VcYa+8tf/jL/F+kbckOAgCapb0hEPoGAEgJRJDNIrEBer7322thubCAXBDbE97X45aleaV966aXmueeei8YKwgnhlxAC5YYOHRrd1S677GKt5yq1RQCrPlk/yGahki8C+McSKNpUKQ7znd3/771hCSzRi1gQKqXaqRXIzeU9nPoI/lFrbH1+ca7Df/WrX4kMXtKyCKl2zRZQafC77767TQkmIeSaffXVV6O7yuOaPXpQCzsgYj/WUs04MtcNiTFdffXVZvTo0dFdYaXiRk6ldghgdcV3XEKnajfq+n4TqbjYj3FValRpSALLtdX999/fqN8s6Xm1bt3aDBgwwGYtUKkvBCT8X7MZ46vYtWvXaADwwSR3qoSQT5F8khKCD7hEPspUyZTUoUGSoEu4t/DtsUqR31ilNgg88sgj5uabby6bS7o2o2i+b8ESS6BXI0pDEVg2O1LtSFw3NuLHruWcJC0vtRx3c35XqhbYgw46yMydOzf605A/UcqdiPQ1McFE2WSk/YWjQfq/DlK0wMZkRSjEJdVDg9S3S6kfKVeUlOZUj2MhF/a5555bj0OvOOaGIbBkFsBcrqmx0tFRUnucdtpp6QxIR1IRAXzGjzzySBGUJIN3pMgUlbnwwYsVyjziRxmaYqrw/fiHSgQmxc6puL2UtVPS+iMRzMc8Ja3C0rg3Un8EclLiVyUNBLiBwsDHLWmjSEMQWNLskNsxq9PeKB+nEeax/fbbmzPPPLMRptIs5hCbpgiQsE7GpuIqBPvPf/5z9JUvpJOcrfj4xq4Tu+66qw3ikkgRRX7bWpVe9VHgRx991Pzxj3/0aVLy2T/96U9iPvFSWQiI0ub7qeSDwKxZsyxRknLXyWeUzbNX4lRYcxoluKvuCexnn31myWto4vXmqca1nbVaPGqLd8zbJPxgpdMUSeSBzSydElY8gomoU45lOMYPliTkV111leaB9VDY2AMW+TIh1RSiUJFHgApalJRWNz55bKV6hMRiYGjTpo1Ul03WT10TWK482SyVvDaZ/ji/mKCuM844w/l5fbDpEDj11FNtxaoQ+dnPfiZiuSt+9w033GAIBgkRKnFdd911tsTtt99+a4kna0eIbLnllobrdWTMmDG21Gqo8HtIOdiRJPPkzg0Vcn1C9CXlrbfesgaLUKEgRnNL9h6KlW870mRxK6Hk1Re52j+/8cYbm9///veGm6l6lrolsPi8cjXNtZJKfSCg+Rfr4ztxxQ5JwPLpI1Q5uvjiiw3lZKWFzfH88883pMfzkZYtW9pNlSCGTN59910b0OBbb33ttde2qYCWX375RX1hzRsxYoTPkOyzqeZ/LZwIJXyx1IwdO9Z7fhwS9t57b+92Lg1Cq6lRNZAyyeiEijwC/KYmTJgg37H2mAsCHTt2tOtZPUvdEliCg7SSR/2pHimRpNIi1d/s62fEkFiIHy46LtK2bVtbfQuSl5fgW3fBBReYN954w+kVrVq1snPAaloskFgsqa6lUpkXvmMrrrjij/q65ZZbvJKz77///ub44493mkNTPzRv3jxrZXbN3gA5POWUU0z37t1zHTrJ8MHdVcgBzM2CkldXxPyeI+c61dtU6guB7bbbzga/16vUJYH13TDq9eM06rix6hDoo5I2Al988YUZPny4oWb5nDlzSg6W63nIwWGHHSZWMrQaKpAX/ioVKaHQwBFHHGHwMy0nkHQCxJ555pmyzxDsgCWROuOVAh9eeOEFQ/WxyZMnl+1rnXXWsYc3No16EzIuUHmskrvWJptsYrNY1Oq3PW7cOKufEydOLAsnRVX4dnvssUe9QV4342V9kKhwVzcTbrCBSlbLqzU0dUdguUI855xzao2Tvk8QAUpxktNxueWWE+w1vKtp06YZyBpX4Kusskp4R4m2hKh9/fXXdm7M0VeogjV+/Hib9/Qf//iHbU4uTYhK586dgyJacU+YPn26WWGFFaxvaohgieWP6j6MkcozEFbIKxZhVwEb0v1AhCCg+IUxv80339z++QT8gM9rr71mfYiZI3hjvSXfK302pUD40XVK/OKrHCL4N3JNzO0Xvxm+Hf50WLlDviNuHFlWCNqHBJbQHjeH999/3/ZFoNaGG25oOnXqZMfWKJLiOgXeWLbLHXAbBftGngdGCG5ZOGDXm9QVgWUB5noK/9cUJCMEKEDqMnv2bDNjxgxvv8a85gXJIFq1qQSLGUE4bMaFvpBsoJAyctjWo6Usw5OSqdSyh+AVbi74b26xxRY2jRDzrCa4EIwcOdIShOLALhY8fEv32Wcfs/LKK1frypLgp556ymA5K/wN8/shlRQBTVhzaymQX4LDKAv7ySefLPZqSBAZNLDAFvq91nJ8se+CaGI9haAX+zRzANl2223tdb9LbkjVqdiv4d8+5XUKv/RBgwYlk3udwyIH13oITGJNzg7x/loh34JDNiTW57AuPwr/HuuKwOKD9vLLL/vPMrIF1hNO8htttNEiK1a9bmhAwUGAHw8bNhYVInvxCay1sPgR2FVLgZARDJRZEiu9e80117TBPiGWpVrOqfBdkEx8UbFuVpMOHToY0hJhES8lPn6GlB7t3bt3yX7wM8VtxMV3FSsq0fn81vIW1wAsNsSTTjqprnKHcmAlRRcEqJqwlhEQi7W5lECCCfZw8YemDwIAsfKWErIakN3ARSoVQSCLBFHULhHv6BS3dk1tAXeZc/YMlk38vV2ClLl1YH4uh0ifMVR79vbbbzf33ntvtcfE/x1XFf7Yk3ERgbiWW8PEX55DhxzmMS6xZqPP2S1HDq+q2CWuNlKFbGo19rohsCzERDjXSrDEYQ2ihnCtF4ZazbHwPZQRffDBB61VslbCxnn99dfXzLoFuSNwh8XCVQjagcTWglC5jqncc1zxs6lzne4qkHMOhoU6vmDBAnPTTTeZhx56yLUb+xx+htyQtGjRYlE7SA9JzX3SckEYwbwcofIaVImHsX5AqH2rBElWlYqdQ6X2kDsOMVypuwoBbxR5IFK/UMAI8oq1zVWwzPM7K9QpMhqQygwrro+w/h5zzDGL6RTkjv6LLeaV+oVQQ6zz0imfOVV7lgMD3w/XFlcBa260akXSMQAMGDDAdXgiz3FrhD7kGSgqMlCBTvA1Zz/m98JhtFYyePDgmumQxJzqgsByxduvX7+KQRsSYNAH/lOcRLhWq4erCKl5Z/1gmb3//vu9yUvoOGqVWot5YWUKyRnMCZ/rlRD/0VBcfNtBENmgQ9xr2BAuu+yyRf6HMcn+Cy2x/G6xDIVkC+EASR31PPyyYiKmm+LWwEcXyBoA+ecw4yu4ckAMM5KHTp1++une6cZ4L+4XHKYyn9aYampHHXWU6dWrl50O+o2e+xyIMhw4MHNwyUOnfLEu9zyknKhw3xR29Ef6Oow8tVinapUFCP3Zb7/9bO7eerayhuoHt1ejRo0yrMkha7vvezHUsD7Wi9QFgcUaRO6/vIXTHRtwSCBB3mOrdf8EDFBK0tdKFTJOfjB5Wzhdr4vLjZ/yoVioUpVY95qMJMRWvSJN0c0332w30dB8nRnGuO5giZIUbhpiviPzuvHGG5P1FSOVUcwGtMEGG5grrrjCWjxjq14dd9xxpmfPnjawirywWGFDBL88MAf7GCLMu1OvCkiVt9GjR4fAZNtA9k444YTg9i4Na5V1YOeddzbcemBUau4CeaUU9uOPP547FPVUajl5AssJ5Oijj/a6wvL9wpzIOVHW6vrFd3xN+TyBQFzz+1xn+Y43702F6kvoUGyk7K233loT64YvflOmTLFX9zGCdWPo0KG28hJXVzFywAEHmL59+xpIcaVUVy7vkL7SwkLl4hdaaWwpV3PCQvzBBx+4QFv2GSy4BMPEEH06R6fYdGMPj/RF4QdSkKFTPi4ypSY5ZMgQs9Zaa0VhlEdj3G343cQIVvTbbrst1wwvHExcfOxD54Huocf14O4ROsfQdmRK4ZCTZe4I7adSu3bt2tk9vx4keQJLbkX+8hIijLEOqJRHAPKKH6OPT50vnnluKrFWqWwueVYX8sWr8PmYK//CfvChI58j6ZFiBEsZqXUIlosVyYpVEB9yw86dOzdqWKlesxHwQ07HWOG2AasXeV9jBTcCLLqxOkXaL4o/SFjkC10SYucn2f7RRx8VKcNMefViX2apcVLQAnejvIR0bLh6uWTFyGsMqfeLPzoubbEH8UrzxE2HDCWpS9IElg+F5cy1Wo4v2Pvuu6/1rVWpjgDfgKpGXMHmIXle0RON/fTTT0cPmystSlGmJiw2ZJKIFdJhkTJLQjgYsiHHCtHGl1xySWw3tj0p07AuSohvgJvEO6v1IXW1S0AQKQIrFQioNpbs31ljSVMmIVL6SfowfGFTE3y+ufGKFYKduAbOQziYhvgfu4ylqVMruowxpWckbpPKzQdXIkhy6pI0gWXhu+GGG3LBcK+99hKxVuQyuEQ7hcQSYFCp2lDM0LluzMNRn8AUksvHSqobn9SVHj6nEjiBs1RfECl84CWEHLTXXHONRFf2WpwUPilJrH9oNhcyEmCBlbgmJk/wK6+8IgITBId8vbGCNRf//tQEy6lEOsM8fMfBSvIAWIw9OaklbmxS+6Z5jwfMJH4TpcaJ4QADQsqSNIGV8OcqBT4J08k1qeKPAD6N+AtLbG7Fb8+CPvxHVbkF6V5c8r5We2+qG99BBx0UfS3O3PEFlzqc4E8ugTlkiqwYEiLlasFYuEZNrcpTbABQIcYE44UGXRX2Q45SqVsbsmVIWP8oCXz33XdLqJRoH1IHUX57+I5LC64glcouh76PjBUEoarbgD+C3FJzM+qSD9m3d9IiYnFPWZIlsFL+XMXg14tpPGWloXoRh4tZs2aJDpPACnxhpUXqai4vy0bsfKUIOn5z+AtLiFRfkpvxSy+9JHZ1jF9+uWT9EviF9BGb9SF7JwSP5P8SBxCMBRLX4oyNyngSfn+p+jBL3RTlYaBhre/Tp090IGyxXhOwxa0IJaVVwhAgQwEuIy6FRnzewIGCoN6Uq3MlS2BJxRMbDV38sUhKD0HSH4uPGpd+VpIMFL4BKxJWG0mRulrF0klS9dREyseX9DssWIWldUPnSl9cs8fKjjvuaHORSggHL4mAzSy6XmJMkn1Qopdgy1jp2LGjzbZBwE6sEGMg4QZGTm4C8CTcSfL0EY3BiywnErcNZGvgT1LIRUohCmmBvK633nrS3Ta7/vIqLJFnQKDER0qWwEIUQpI5VwIl9Y8h8UFr2UceTuSSUecZFqQckQjWw6kdC35qIuWbRmlICEJsNTYsZZReJWrcp4JTKVyxShGZLCUSCdhTPciAESQvNuVd//797SGfa90YwXLDgYi8tGPHjo3pyhBAmaVmi+poYWNKtHbq1Cm2G/H2ZHmRCBLlwCBd/prgR9YZSalUflryPc2lLylDTSFeeae4jP02SRJYKUtJITjklCOli4ocAhwwpC2S+EPhayUtsYn+Uw3gAidKv0LMYtKcZVkgqJpFXzEC1ptttll0/k82YfIRFpamjRkXbWNTqhUm1Y8dSx7tY/18Cd7Cck4+UazVU6dODR5mllT/jTfesH56MZLdzMT6+XK7w42FpE7FzKu4bWzxiLwIB4aF2DzahXMlAFLihkYS+0boi0OepCsBRZ2GDx+eLDRJElhS+Ugn0qWeN1djKrIIcNqXSpOTjYwfjHQ1NIKTsCyFSopBO4VzGT9+vK2FHiL4OhH0QSlKJMZnuHADZSHFP5dCEiFCxgusudISE+2dFWmQHpNUf2QKAfPQIEuCNgjeQPA35ZYlRJZbbjnrrpVVUYqJlu7WrduiQxWlVplfqP894yDiPVUhGCfGZYY8ztKlcl9//XVbElpSyFdMJiAVWQTy4E4YlDAspShJEljI5osvviiGF9HCeSZfFhtoHXb06aefipcuZLHceuutxdHgGjPECo9Fkk00dQlZvLAoQnwLq95w7c/VvW9uWVKucD1b6PRPWiC+py/hyLPaFUEPJEsnUNRH8giO8Xm/67O4zJBl5auvvnJtYp8r5RpBvlsqtPkIByKs8IWbHn7V6AEWfh/B6EDxgkKdglBBRH3dU1ItRFKMB5H+IbdQea2buIHcc889Pp+t4rOp+pCLTbAJO+I3Qfld1jgp4ZaVtSFFSZLA4hsTWy6wEGxKInJFqpIPAlLRs9no8rRykZMSC+Ps2bOrgkEKJ64+JX0wq7408gFqZZPj0iUFEn6OfLtSp2sIJ4c+1xyeYITFlGCbYoHEQmxdCBXpmyiL271790gkKjcnHRxjciVUu+++u00pw/jqQSCxBHS5lpys5I+ITrlmB6mmU2COS4GLVNMpdNelyE2tdMplTq7P8LvDkONSNQ5yz7fGzSkP4bAnUdQiG1uvXr1sSWCVfBDgwClZaIXfIb+1FCU5AivtV8mGeueddyadCiJFxfAZU6jFoNw7tthiC5Fo6nL9c7VNtC/jLnVSXX755a3FtWfPnsklq3f5LviQ33vvvfYWo1RGAVLXEIndo0ePqoUjSIHEYjhp0qSSr+7QoYPZf//9DdbJSgLOpHmimMCMGTN+9CguI5QuPOSQQwz5dmslRFc//PDDZVNGcd3MgQqdrDfhEEI1tMcee6wkkYX4sDlBKKpdEbrqFL8Zfj+VREqnOITw7VLTKSk94XaL3wxVBEsRdXDmYIWvMdXT8hJ+ky4Hftf3p1gExHXs9fAceZcx2kmJZDEZqTFl/SRHYKX9bbbffnt7XVhLWfDlR2bejElmwcwZ9s/MrW7tix1fiyWXNS3a/NS0WKatabla54X/u2psl87t2SgPPfRQ5+erPUgOSt9ry2p9lvv30aNHm7fffts6vrMJbLrppg1lrYe84FdHLXqCogiuCvErJbKdfrKgnnbt2tlE/iEp6fCtxAqHdRAfSfoJ8YfjugxizZjY4AkMad++fVAENt+fIDjGBLEDK8g5OVF9BasuCffBnHRU5DeuRhBLvYNbKObHmJgrYyILRghZYV3FhQYiin8qOEF++G9fSVGnIMW4vMTqlC8WlZ5Hp7h9gIjG6hS/PVxeMPBwAA3VKd/5SRuUKEaRRzquSvNa8N2nZv60CWbB9+zHn5sFc77zhcH/+VZLL9yP2y78W9kssXIH02LFdf37iGghHcwladGNmNaPmiZHYDlR33jjjWJzJHAn7+tIBrvg++lm7tvDzZx3HrQ/lqaWJdba0Sy5SS/TauMDjWnVJvfhSF8z5fmDUQusuwVWSnEkLbAQRKLt//73v5f0g4ToQYj33nvvmlX3cdUpfMmqEVDyuZIDm8C8UkJxB6znWbBVuW8EqcfCLGGBJc8kY6pm1XexwErpVIoWWA4aWEwJbC1XCAKrNzilHEyWfSOpFH1Zf3m6hy2mVwtJ6px37jdzJ95n5n38vJTKBffTcvVfmCU3OsC02vQwS2zzFg4J/PalJI/87BJjS47Akn2AYBQpySMnXuHYFnzzsfnhlcFmzpt/NmZe/pZWX1xatP6pWXLLk8xSnY4zZun8qp3cdttt5r777vMdXtnn80pwDenBt8wlAAQf2LPPPttQz71e5IknnrD+ii4+sFSSIkCGykR5CoST97jkJ8VfkWCbPffcs+SQfHIdQmTxDZTOiVk8MB+dwqWJAKtSOsU3Y+N58sknnT4HVl3ycxIUUyxYIvFbI2rfRaiydNhhh5V81EenKBbDmGqhU7zHJVaimk654OPyDD7e+My7lrvlAIKuL7HEEi7dN8kzEHGJQhTZ4MGHTCW5yeyvzA/jrjc/jF8YeDjry9xeE9zxQmPSkpsdZZbaqr9psexqwd1Ua8ghinRxUpJqDv3kCCxJr6XKWfLx8rTkzftwlJn5cN8kiWux4uJS0KbXfaZl2zeJOSMAACAASURBVA5SOr1YP/ihQTqlhMj4Ll26SHVn++GaEf1yIXfZi2u1+UlM1IfcZe+rRKgkxuRD7grfV0yofMld1lfehMqH3BXqFAnrKbebCT6GpKwCLx+BnBPxX2jV9TkwFL4LQkUAXWGO1FCdglwWZrbwmVO1Z0N1iujsAw9ceCOVg/geGLIhcJAh+JG8uykKKQ2JIZESDFS4H+Uh8z+dYGbef6hZMOvzPLqX7XMhkW3T83azxNr5ZLfBdQXSKSV5/nZixpgcgb3wwgsNZUolBD8h1+hZ3/fN+fsfzOy/pRmZV3YuC/1k2+x/Wy4/Gnz1sCxJiXTmCDZ1NoqQZNyQWNL25LUhS2DGoY/UOxQ18BWCQfjdSeePxBKFBTskpQskCh3YZZdd7HRiEvST3xZyiD+qpODHi4U3RKcgLFhIM536wx/+YK/6QwRLLOnhCITDZxF3HvwuQ+S4446z19tIrE5xWJS2fqNT5EkNKXeMTlEoQNoCyFgYk6vltfi7ZAUfQr5X3m2kU2jlZVCqJ2NS4TdbuvvVZsmf9xH/jLgPSZYTzqNCpsSkkyOwXDX6WiHKAZFXVac5r91oZo+Jqywj8fFC+1jm8FEGnxxJIXE6m5+USJ/4Gr0S16BBgwzRp6GCzyjJxSWFaOMRI0YEd4mlhpRgEMQTTjjBBkWFSiExC+2juF2sTmVFHyCd5L11cWspN3aIWdeuXaOIPn1D8olBgGBTDtg1DVepceVBzGIrcREEx0FPshJX7O1TytXdbrnlFvPAAw+I/GTIDyyZTzYb1LzJYxZaXg8RGWNTdNJ6rz+YVpvIj5/sMFJCHFFMISCpcRT3kxyBxUfGNU9gNVDyILD1/mMBM5zIl+nzlGmxvGy6IskfjOSJj024X79+1dSl6r/jn0gUbWoiEWgBYcGPOSQqvRQe+CaS6zGGlNEveUOnTZtmqDAUI9KpYKR0Cv9CCFDsxk4RiUsuucRIRB+zUZEJBDeAGIGYoVP4WksIFd169+4d3RU61alTp+h+sg64KYg5PNIPWVyOOOIIsTFJdcRhhsBqCcmDwM7//F3z/Z0Lc0bP/V5iiE3WRx5GJQ79oTcxxUDkVaI4FvDkCCzXvKQ1khBO21deeaVEV7YP0nF8d8tCB/RapOEQG3Xpjlqu1sks09stWMR1KOSTjCUs2bskLYIx18+Fc4eQMcfUJOb6uXAuko76XD9zhRwr6AGL8GuvvRbblS3MQMouCZHUKQgs6a1iBcIJOYuVX/ziFzYlWahLQ+o6JWkZlkozRWYJyjmnJlJrC/PC35781JLy3S1bG9JW1rsQo7LssQtdJ5eqnEPZZ54SB6vsfRTJwM0sNUmOwOIz51vCshyo0gR21qgBZu5bd6X2DYPH03rP62xaDymRTHgtSWCpvEUAV6ykegqlNny5lD0+c5bc2GPdB7Jxs7FjgXWJNq82V0k3glj3gWyspFSScpmiOAVkOFbIfYsFVkKnJG9SpHSKDAkShytwJl5DamPnUFRYMjf2O0q0T5nAznl1iJn97G8lpplEH0t16W+W2vE8sbEQKEpuawmhpDPZe1ITJbCOX2T+tNcXXlXs5vh0fTxmT3393hIbbKoEFv/AN998M3qeqVpJsAyTEzNWJAm6FMEjMCkkYKcUFpJkSurQgEtKaPBP8RwpUiHlfgWJlTg0UMJbqiqQlE5JupNQKeumm26K/enZ9ilWqEqWwM76wnw7dGEcRwPchhYqz7InTDAtlpPJ0qAEVuRn6ddJqhbY2U//l5kz/k9+k6mDp9v0vMMssX7pnJu+w0+VwBLtLXEFneo1CrkkJa6gJcmG1MYH2SB4y6UmfDV9/eUvfyniQ8l7pA5F+OmTIUNCOIC8/PLL0V2R/5gKaQRmxorkTUpsAFc2F0oVExwoIbEBXIVjwF8Y3FMSqd8xc5J0IZjz+m1m9lNyaaJSwXypHc5dmCN2gMhwlMCKwOjXSaoE9rsbf259YBtNSKq89O5XiEwrVQJLQmcSO8fKzjvvbFgUUhOp34xkIIlU+h2Ck3AhmDFjYUnmSJGsyodv/ZgxYyJHZAw6JdEPAyHHqUTEOKVKcSGYOHFi9PxS1CkCuCR8hQFHIoCSfgiilCwEE/3h/q+DVAnszAd7m3kfPSE1zWT6WaLdNqbNYTJBc0pgm+CzSm3GDF3KB9ZGOt62fROgkf8rqQay7Inx1+uMNFUCKxVQhKWT8qSpSUiy+VJzwFKNT6aE4NdJSrxY4dqfIC4JH2Y24zXXXDN2SLb9o48+KmLFQ6ew4pF4PEawmpKF4LTTTovpxrbdYYcdbBCXBKFKUackgzHJt3nkkUdG3xAQOCfxe4n++EUdpEpgv71qFempJtPfcid/IFI1UwlsE3zSFAns3PdHmlkjjm4CNGrzyuVOXujovfSK0S9LlcCyyZBeKNaXkpyIWKdSE3woTz311KhhUcxAsuIOg5HwzSV1GQQ21mLWvn170dKKlMWVSHuEpZoDFumKYmS77bazhTokfHPJZkBlr4EDB8YMyZa4HTZsWFQfhY3JcEJ+6JDCGIX94D6AG4GUUOTk1VdfjeqO3y+V0FKTFAnsgi8+MN/d2jU1qMTGs8wvR5qWa8SXL1cCK/ZJ3DtKkcDOeWOYmf1kvGXDHYXaPrnMEaNNy1U2i35pqgSWicWmPZIMAIoGukQHsRtNHtblWCsllsCsuhuVjt55551g6CQtgdkg8FmMsVJmOkWhBooGhPqcYn3FP5SAsFjLd+fOnW3VOSQ2ewcEmMwIkhKrU5I+udm8OEBycPApUV2ICRUjyXNMxb/UJHZdKZyPlA/svH+9ZGbes19qUImNp/U+N5hWGx8U3Z8S2GgI/TtIkcD+8PIV5ocXLvafTJ20aL3/MNOqffzVeMoEdt68ebZ05+uvv+79VQjeomRoailuCicSU85yp512sr69eWygob6ikDHStmAZRsi3yRj5X1/J6/CBRRCyJ6FTuBBg+Qy5JSjO3xtKrKnCxffKSu5i6WQ9DsmSgE5J1mLPvjkkEbIe4jeMTpELmMwW0hKajYCxMKYUC6SAUYoEdu77Dy+8ET1W+hMm059UIJcS2Cb4pEkS2IXkFRLbqNJ674Unvg7xJ76UCSzfDnJAzXifVEOQV6rDSVUTylOHiNY/77zzzOTJk51fk109OzcIeJCcm1yTuwqbOf6Axe4aZFqA5H322WeuXZmDDjrIHHPMMc7P+z5IqinSO/nqFPMoJlIUcMFVApcXVylnOfctAQrW/DaKr9Y5MHDw89GpvMhrISYXX3yxeeGFF1xhsgSR+eHWkJeQpP/222937p5UZRyMO3To4Nym1g8mSWAn3W9mPRpfWbHWWLq+b6ltTjNLbXeW6+Nln1MCGw2hfwdKYP0xi23RXAhshpNreUR80mJ9S2O/jW97yA/lSatZqLAmE7Xep08f31cEPT98+HBz//33V7UwduvWzV6nlzswQF7ZVKv5HK644op2blwZ10JcdapHjx7mxBNPLDskiCLzq5YBgCwBFGbYdttty/ZFJS2ssdUIcZcuXczJJ59s/V5LCe3xG612CIGQo1OkK6uFMLcRI0ZUrf5XTackx0q2E8ZV7aaA7Bpgvs4660i+XrwvJbDikFbtUAlsVYgWPaCFDBywwn1ALbDVgUrdAls4A6yVzz//vBk3bpyZMmWKDRSCFGCpISJ4++23X3SVWn3m6T3xySef2PmNHz/efPzxxzYN1RprrGEoxkCmAYhPdj1fq9FDhBgTfppUefr3v/9traxkBsD3EsxXX311p+HQHgsclk8ss1hC+X7rr7++gZBhWa61y0c1ncKn1zXP56RJk2yVJ6oSTp061ZI0vh95Y5lfJeJaCOCsWbNsPxD+Dz/80KYkw/KHpZXCB+CETrgI3wvMy+kU36/WNxW4Obz44ovmlVdesa4OMTrlgoHrM4wJ3D/66CP7/Vq3bm2/36abbmoxlypp7Dqe0OeUwIYiF95OCaw7dkpgHbBSAusA0sJH6o3AkpqJAgdsfGzspA4ioGKLLbawm0zmC+g2e32qGgLVCCyYs8mrGGuBhQDhVhBDYFPFkt/d2LFjDUQd0onw7bFMbrXVVvYQ6SIZgZU4FEE2IZ74NIN54aGIIhH81fpQhCW38KBdvE5xaHA9FLngWfyMEtgQ1OLaKIF1x08JrANWSmAdQKojAut63YsLwfHHH2+tJypxCNx99902yX61ICUS+/fr16/mlry42cm1xoWAIKUPPliYC7KCuLgQyI1KricS/+OOAEGsJNyE4EqCD3o5cXUhqKZTEOghQ4ZUDcarpVvK7NmzbWnZUaNGVQW/mltK1Q4qPKAENga9sLZKYN1xUwLrgJUSWAeQ6oDAYgEk4ObNN90LN3BlS6R5ra9G3RBP/ylSRBHZjhXJVfALJHConE+maz/19hx6SaARlj9XIS8qfqf1INx4oAuuZYFJD0ZMBBbZQgnVKQLkioO4uH2hLDB5fV0FvME9L2GdIsjv/fcX5ud2FNxBaCN92FYC6/gBBB9TAusOphJYB6yUwDqAlDiBJY0WC7wPec1mvfnmm9vo/lpfH7qhnvZTvhkIstnkmfIoRcTee+89c84551S1UJca+6BBg8wuu+yS4rQWjQkfVQ6PvrlSSe3GAZLfIEJ7SHC1gLJSYBTrFH7iFH+oFnBVqi8C1Xr37i2OOb7OZCYIXafI3rHEEkuIjUsJrBiUzh0pgXWGyiiBdcBKCawDSIkT2NA8jdnM89qw3JCtz6fw4bzwwguDB59H0vngweTYcMGCBfa6PPMF9X0VByvcYlL12caiiCtOtWwI5ebNvJgf86Ts7jXXXOML0aLn99tvP3PCCSfY/4/lNYQoZp1dccUVNqhOUmLLQpOZomfPnmJDUgIrBqVzR0pgnaFSAusClRJYF5TSDuI6+uijDVHioYILAbk1pa/oQsdTD+1+9atf2cj3UEmdmIXOq7jdyy+/bK2TMQJpgbykKKRPu/XWW6OGRuoxfD3xjw4l+gwAnRo6dKjNXIF7QoyQCSK2j8L34zrCNwwl+vQF2Y/FunBMSmBjNCSsrRJYd9zUAuuAlRJYB5AWPpJqFoLY8prZ7IsrHrmh0jyfInUXeS5jRdqiFDuePNrj70tUfoxAXDhgtWjRIqabXNpSbAHCGCMbbbSRtZxSUjhWGA8ZB8iTGyP46FK4QMo/HrcIXG5iRbJsshLY2K/h314JrDtmSmAdsFIC6wBSwgT2+uuvNyNHjnSbRIWnunfvbvr37x/dT3Po4C9/+YsZNmxY9FRJp4RfXyPL/vvvLzI9SpKmll+UwhN9+/YVmR8lge+7777ovkiHRbYHfGBjBTeErl27xnZj21977bXmiSeeiO6r0E0itjMlsLEI+rdXAuuOmRJYB6yUwDqAlDCB5XqWa9pYIaVPjE9n7Pvrqb3UxkfCfdIuNarg1oJ7i4SkeENAoQlKMUsI2QgIBosVslxQvMQ3oKzUeyVvCGJ9crPxQdClMJf6HTO2pZde2lBuN1bmailZJwi1lKwTTLIPaSlZWTxdemv0UrIDBgywlZ9ipdHJVCw+he2lDg1UjSKHbKMKPsL4CkuIJJmSGA99SF2L01f79u2r5sd1GfcKK6zglTarUp9YhaUOIBKuFowVdwsJVwT6UgLrolGyz6gF1h1PtcA6YKUWWAeQFj6Sqg+sFJlSC6ybHkhufI1+aGh0C+w777wj4reKTlGpjVK2sYIFFh9tUuvFiuShQS2wbl9DLbBuOKkF1g0n0afUAisKp1NnjW6BVR9YJzUQfUjKB5b8nyT3b2RRH1i3r6s+sG44qQ+sG06pPqUWWPcvoxZYB6zUAusAUsIWWM1C4Pb9JJ+Suho/6qijTK9evSSHllxfElkIVlppJZs+SbMQVP+8klkI7rjjDoObi4RIuVtoFgKJr9F0fSiBdcdeCawDVkpgHUBKmMAyeq76pk+f7jaREk/hN0dt8jZt2gT30dwaElT07rvvRk2bTAbF5T+jOkywsUQeWElfTGmIYouIMB5SslHY4pRTTrEBWKHC75eiCOSSPeOMM0K7se123HFHMfcI+ps5c6ZNFeZT1rZ4ApRfvvnmm6PmVdhYfWDFoHTuSAmsM1RayMAFKiWwLiil6wPL6PGdu/jii90mUuIpAsF233334PbNseHEiRPNmWeeGTz15lT9LMb/EesrbjIpH66oNDZ16tQgXVh33XXN4MGDbdsJEybYktChcuyxx5oDDzzQNr/qqqvM008/HdQVBRHIjrHKKqsEtS/X6Mknn1w015COccGjwIKUKIGVQtK9HyWw7lipBdYBKyWwDiAtfCTVIK5s9LfddltQHklJnzI3JBvnqUceecTccMMN3hPaaaedDEEILVu29G5bjw2++eYbc9ppp3nnJoW04iMsXdJUGkMsnljkmaePUKCBg+fqq6++qFmoRbdYp3744QdbSeu9997zGZLVSdJUkdYrD+GmZ8SIEd5d53HgUwLr/RmiGyiBdYdQCawDVkpgHUCqAwLLLIYPH27uvPNOtwktfIoAG9wPUvQtdJ5EEz/4+OOPmyFDhjiPYvvtt7fkdckll3Ru0wgPfvnll9a6SJJ9F8H38oILLkievGZzIZXd+eefbyhu4CKQVopYrLHGGj96/IEHHrCVx1yF25NTTz31RwciyraS25l8tS6C5RXSu+WWW7o8HvTMggULrD8zc3SVPMgr71YC6/oF5J5TAuuOpRJYB6yUwDqAVCcElpm89NJLlsRWIgqk2sGijNVGJR4BCAIBL7gVlJPVVlvNYr7HHnvEv7BOe/j+++/tLQGWa/67nKCXffr0KUnuUp76jBkzbDJ7Kk7NmTOn5FA5uEA4Dz/88Ir+z+PGjbMH0lidwhILWQRzDhHlhKt5iOJ6661XE4gJ6gKrSuvUBhtsYA499FCxamDFE1MCW5NPvdhLlMC6Y64E1gErJbAOINURgc1mg0WIGvQEGhHghT8bScApX4rfXVMKG+m0adNsnXVyoaYgBJlwFYxgFQvxuaQ9WSHAHsxXXHFFs+aaa5pOnToFl0H917/+ZbCkrbrqqg0T8AWpgvTj8wlWs2fPNhyqNtlkE2v9I6jQV1LSKcj5+PHjzZtvvrmoyAi/OXItd+7c2SuyH50aO3asef/9961+4hOMS0WITmVj+uCDD6xO8dvr0KGD6dKli2nbtq0v5NZlgpK1VKHCoowF11cYC+NifrVep5TA+n6t+OeVwLpjqATWASslsA4g1RmBJahrzJgxliBAzDKBlLGBduvWzSZOr6Xgi/fYY49Zgvf5558v9mo2dixA3bt3N61bt67ZsLjuHTlypCUI//znPxd7L4QKP8B99tnHEP1cK5k1a5a14PEN33rrrcVei88kBI+I9dT9QsvhBel59NFHbfnjYv9MSBBkat9993U62DS6TkHsnnrqKYM1ttC/FivuZpttZnbYYQen4MtqOrX11ltbPXc52HKgwpr76quv/sinGZ1kXUE/OZxWk6Zep5TAVvtC8v+uBNYdUyWwDlgpgXUAqU4ILIQMPzyX0rJYBvFJLOWD54aI+1OXXXaZefbZZ6s2WG655WzpUTbUvMXHzzAvH7ziOULur7zySqdgIK7Z8XusJeGP/SaQMTIKYHGtJj179rT+2aWE9kTZu1SuWn755W22CIpG5C24kdxzzz1OrynMGFDc4KuvvrLBa1T6qiZY5s8555yy5JPD2dVXX22+/fbbal1ZlyKC0crJtddeaw9X1QT/ZVKDlXNRwpKMfzMVw6rJ+uuvb+eXxyFSCWw19OX/XQmsO6ZKYB2wUgLrAFIdEFgsiCT5xg/PVbjihsTiWpCHcE1JqVuuUl2FKGiCnPLyzyWI5KabbjIPPfSQ65Dsc/iukqczr4C35557ztZ4nz9/vvO4sHhxYHGxdjl3mtODIdH15CLlQFMY8Aa5I/iJK2dXadWqle0nL53im1133XWGNFE+QsqrY445ZjGdgtzxO+Zq3lX4/gRfFZN0yCYBhj46hWWXtGeFOsWBgWwJHLB8pBRJx2rO9/PJBwt5Pe+885wsxD7jUwLrg5bMs0pg3XFUAuuA1Q9jrzY/PP8/Dk/W5yONXkqWr8KVPFamTz/91PsjcS2N1Y//lRRqsRMB/corr3h3C4mFmOVhNYspA5uXJRZ/UA4SPkQjAxWMIARLLLGEN861ahBThWnnnXe2BxoEnQInnwNRNkdIMMQwD53685//bO6+++4gOAurseEmABEtdmdx6RhLM783XF8QfnccHkN0ihsQxoFO0Z71gW/oKxz2ODjssssutimk/KyzzvqRC5FLv7iXQKIl1yklsC7Iyz6z1Pa/MUtt/avoTlkTfA6xlV7YsWNHc9FFF0WPSboDJbAOiM596y4za9QAhyfr85HmQGBDcytmX3TXXXe1G42kkA2BDTVU2rVrZ61HksQMon/iiScagohCBGJNJSDJTRSL8KBBgwzlaUOFa9+8rIuhY8ragfXRRx9tg4ZC5YorrrA+vzFEmHcT1U5fklZ0LKaUbw0hioyJwCeqZ6FTMUSYvrbZZhubwxWizxV+FpQYgjtW2K5du9pgO/oMFebF/JgnrgyjR48O7cpI56xWAhv8KYIbtt7zWtNq018Gt88aKoGNhtC/A061xYEZ/r38bwsWY07GsTJv8tNm5v2HxnaTbPtGJ7D4tkEQyqXtcf0w5GaUJGYSpVaxKpM3VUognw8++GBUdwcccIDp27dvVB+FjbGU4Q8YI+3bt7c+oSnKww8/bAlMjBAYhOUOok/UeoxgwZVM0h97eGQulMolrRbW2ErpxVzmzaHvo48+su4oMYJbEX1gtSabSYxA8ME89neDFZ2CLfjKS4gSWAkU/fpoc/B9Zom149M3KoH1w13k6RQJ7IJvFqbpGdpZZH4pdtLoBDbWKpV9MzaZvffeW+QTYunEty9WiLKOremejQFLJ2P64osvooYFySfJvJQV79JLLzX4v8YKmzGBeamJxEEGH1aujysFGLnOW/K2QUqnSGd1/PHHW1eQWIEEY82X0CnKyfbv39/MnTs3alik7sOaS3+xInnboAQ29mv4t1/2xDdNi2VX829Y1EIJbDSE/h2kSGCZxffDdjTzZ0zyn1AdtGh0AhtT87zw80mSxdia59m4CDK7/fbbRbSM69R+/fqJ9EX5WKnsDQS6+ATelZsARIM0ZKkJ1d4khIAnn+pN5d5JQBCWeAmZMmWKDeyTkD333NNQ1S1WSEnHuAh2ixUyQRB8JyGsLxKkerfddjMDBw6UGJJW4hJB0b2Tlqtubpbp85R7gwpPKoEVgdGvk1QJ7A/PXWB+eGWw32Tq5OlGJ7D4qoUEtRR/vuzKUOKzxvryFY6BoKuQBOnF84j15Svsj+AYorVjBV9Fro9D/ScL359XgFnMHAkqPOGEE2K6WNQW/05yx8YKPtVUgMKqGytE5UtYTRkH+uRa8rXSuClIIHEg4h3kjCYXrYRwO+CSNqvauyDoMb71hf2rBbYa2rL/vtS2Z5ilup4u0qkSWBEY/TpJlcDOn/HOQivsDn6TqZOnlcC6fSglsG448RR+gRL14rmapbwsRDZWGp3AUuCA5PmxQiAe5WwlggMbncCi476ps8p9H0rU4psbK0pgYxFsuvbLHvuyafGT9UUGoARWBEa/TlIlsMxi9pOnmTlvDPObUB083egEVsqHMotglvikVFqS8HcjIXpoeqLieWD9ITJbQoimJsG6hOCzWKlGves7JH2YXd9Z7TkyEPTq1avaY07/Th7eUaNGOT1b6aGf/OQnZtgwmXUOX1Op7B2kmnr66aej5wfBY1yxwWAMpEePHoYgvFjh0MABhKIKsSLpw6wW2Niv4d5+yS3+wyzd7Xz3BlWeVAIrBqV7R1LXvbyRDZSNVEoWzJxhvru5izE/VK/YIvXOWvTT6AQ2Jq9pIf6F+ShjvwsVhE4/Pf6qiOAPqStarJ1HHHFE9MZOOd4777xT5AoanCWivOmHamcbb7xx7KcTbw+xpvxorJA9IDZbA2NIVadOOukkkUwSlHHFdSM2cwBYSWFOkBq+qxIHB8l1Sgls7K/SrX2LNm3NsscuPLwsvYJbA4enODjGpB4sfIWkVd9h6M6PJJcHluTsEtdgIMCiIGHlKkRz3pTnzMy/HOgMcD082OgEVio4iTKRWRJ0ie9KGdDp06dHdUXQ1b777hvVR2Fj0s6NGTMmqr/CxPpRHf1fY6olgX2MSAYmxYyjVFuf8qrl3r3JJpuYSy65xBx55JHRwUnSwW4SNyDoFPmJe/fuHQ1/VqKVQMMYyXRKwtJ16KGHGqqqgX2sSAZQKoGN/Rpu7Zf55UjTco2t3B52fIoD39SpUx2frvwYKd44rKUmyRFYicUuA5l0PuTulJY544ea2U+fLd1tk/XX6AQWYGP1SjIDQfahY90I2EDZrArLiMYqERWOBgwYEBw0xVXo4MGDzdprrx07lEXtyd/LYhxD9lN0H8gmSDQ85GzmzJnBmGU+x42uU+Q4xT83VDI/dgmdItIfq2msn+8KK6xgC5KQUSR2nZJ0HwBjJbChmubervXe15tWHQ52b+D4pJTrFa+jCIxEij7HoTs/lhyBxdKCxUVKfOu5u753zpt3mNmjz1pYu3G2a5Nkn2sOBBYfSvKl+tRPLzwIkbAcwigtv//974P93nAd4LpXWu655x6DVTBE8gqUIosE7kUhQmlUcE5ZYqzMpJcqTFV1zjnnmNdff917uhyEsE5uuumm3m2rNYjJukEaNVKEIfit8jsOLSULQeRmDhk3bpz57W9/W23oJf+dUrLgnElMqj4KUFCIAvnss88sUSBPtK+sttpqtooahFhKlMBKIVmin1bLmNZ7Lay6taFMGr3iN0il56Pf4jUmR1S8uk6OwA4dOtRIkk7J65RiZOdPf9PMfPg4s+DL8BKXXl8rp4ebA4EFOlwJIEE+KXSon05KAU0wzgAAIABJREFUqHXXXTcX9AniYRP1TfPFtSXXqnkJhQh8c4oS0IIlMS954YUXbLJ+H+FqHXzxy01dqIDmm3+Va+diX2osueedd57Bz9pHKIdKoGJegpXRN48rKdSoolcokDx+xz6HUb4/7mnFPtAEhflWaMMfEJ0qTl0X4v7GzcI+++yz2Pz+8Y9/WHL89ddfO38KbhupVS+Vezl7sRJY50/g9WDLlTuaNvvdtDDjQHuvdq4Pc8A79dRTXR+v+hwHSA6SqUlyBJZNk81TSvJelBnnnFeHmNkvLyxLWKfBXc2FwPKt2Pywxrk4t5OXEb8f6U2hlG5j4aViWDWhRORpp50mkqKq2rt8fov4XpLuKm/Bsoiv5zfffFP1VZA73CGWXnrpqs+m8sBTTz1lrr/+ejN7dvWbnUp172fNmmWuu+46J53ikEb2F4hZ3uJjiS20vBaPixsVcp1OmlS9uMwqq6xiAwHLubUQ+U+wLyWnq0mpA0NhGzB3yQRB9hAyfnA1W0o4bGe+utXGRPot1qk8boiUwFZD3+/fW7T+qVlq+7PNkpsf49fQ82kKYnDbICXEa1C0IzVJjsBK1D0vBLnSIi/5MRbM/MzMfeevhiCvuR8vLHs560vJ7nPtqzkR2AxIrHnPPPOMTUJe6HuIpaZTp07Wupld6+UKfkHn7733nnnsscesT13xFWLHjh3teKgk1bp161oNyRL+kSNHGn6XkydPXuy9EAKuUrEg5bF5lpsk5Iwr9xdffPFHlmssUeTmJNJ8ww03rBlOki+CnOPLSlECdKJQVl99dZtuicC97Cq80rsbXaf4/UL6Cfz97rvvFkGBOwSFD/Bd33333at+nkynnn322R+RYnSKIBYwd7mJIaPEI488Yl566SX7+ykUdJLfMfq57LLLVh0X6xTzmzBhguG2JpNsnWI9YGx5iRLYeGRbLLOqWWLtHcwSa+1gltxwIQkUzDRQbnSuBynX2eXlrub6/nLPJUdgpSLGswljReNHWHOZ/bWB1C6Y+blZkLifbMufbmRaLLNKNERY4FwsRy4vYoGXykla7n1c1ZFK591337UBQpAwrhjxK3XZqFzmEfoMFqZp06bZTc6FqIS+x6cdRJ/fJ4JVOuRanvYQdLAHcwJX+I1yaAhNcQVhgLysuuqqhhymTSmZTnGFxyEE8gPR99UpyArWZv7ok98VGTBwiYCgh/g5NqpOZd8bvNEpsAm9NQFvqn29//77VqfatWtnMce1IkS36INIcG4BOHyEVMzj++OvyzoFIcaiTDCar06F/C5SJLALvp9u5n/+bsh0atamRavWBmtri2UWxk0stXzN3pu9qG/fvj86PMUMAtemWhopXMeaHIFl4JLOx/THaUQyKtoV3Ob2XL0QWCwj5CkttigWfi/IAvMpd8XX3L5t7HwhBQSGTZw4sWxXBKGQTgirUr0JlrK77rqrqk4dfvjhFS37BClRxhULbKVE+926dbMppUKJWr3hm+d4OSzgLoPVtFLBDCyd5Enmyr4WgksRulBtnerTp4/p2rVrLkNKkcDmMtEG6pQ19swzzxSdkWRckuTAkiSwEnn1CkE64IADDCcSlXwRqAcC6+ODB1o4rx9zzDGmRYsW+YLXwL37RtjjZ8gaIFHKNG9YFyxYYG666SavwNNyARFY1wgOco2wxzrP1R7WOJUwBLCQEqTpGkSJJZUsCHle24foFCT2sMMOCwOhQislsOKQ5t5hSLBkpUFlOaZzH3jAC5IksCER0JXmzkJP/sCQ65sATJttk9QJbGgOyVr5UTei4oTmJcW3lkhz8sqmLKE6VRxdj98rgVSu5DXDBDcOgn2UxPprCZZXMC/2M67WEzpJxgHSs+Uhf/rTn8yIESO8u84jhZ0SWO/P0KQNOJCRtaPQXzp2QHnoVeyYsvZJEtjYxNClwCG9D2l+VPJDIGUC+9e//tVaykJFsjxj6BjqrR2BX2R8wKIUIqkfHGJLFGeRvfgWkzbJl0hlmJJFgCwW6k7grmXz5s2zWQzQ0RDJ6+AQq1PSlfmUwIZoR9O18b1hdBkpv5NaZChxGUvxM0kSWBZ06esQgiluvPFGtcKGaIljm1QJLARq0KBBTqmzyk2VYA7KEqsrgaMyLHyMq1ki6UMl5d+shE5tsMEGNvH8Rx99ZKhbHiOpprmJmVOebQkmpDrb/Pnzg18jfcCCVBO4mgVKhgws0ympdUoJbMhXaJo2+G+TV7iS77zvyLi15lCVqiRJYAGL6iRvv/22KG7kMWOhV8kHgVQJLAndi5O9hyCQlesMadvc2hARju9wrFCVKMVAOimduuyyy2yaJNKnxQiZKjhgqbghEOr6Udg7uVwJTGzVqpXbS6s8JXXziE6FZvQoHqISWJFPW5NOXHOJ+wyGjCfse6lKsgSWii04I0sLViHyA6rII5AqgZXYrECL7BjHH3+8PHAN2COETCJ9XbXE8U0FnZRO4QsLga0U/e46RwhsKinXXMfcVM8NHDjQWr5jBRcZKV9YqSqUkj6LSmBjNaQ27Z9//nlb4EVaUjUgZPNMlsDm4UbApKlkNHjw4CRzmkkrX637S5XAxl5lZziSd5Gob5XqCIQGohT3TD5efq+piZROYeHA8iYhBL3llU5JYnwp9XHQQQeZuXPnRg8JN4S99947uh86wNJFXupYoXgDmRIkRAmsBIr59kGeYIimZOAWIybjBukmUw5+T5bAAiCl0CiJJi1YKeib4AcVOQRSJbD8uEkCHiupkqnYeeXRXuq3S/L4YcOG5THEqD4pUcvGESvkp/bNPFDunZJkKnZeKbcnUpt8vBIiae2U0ikCbgi8kRAlsBIo5tfHJ598Yt3jvvrqK/GX7LnnnuaUU04R71eyw6QJLGUCzzvvPMn5Lupr/fXXtz9y/JhUZBBIlcBKWTYkNwYZxNPtRWrjo+pQTPaIvBDC2umaO7TSGCgtGpp9oLhfrsV32223vKbcMP1ieWWtImgqViSzk0jplORNkdTvGJyx6FGYQUUGAeIMKFjw6aefynRY1AsBpqmX406awILnqaeeKmahKP7Ka621lk0cziapEo9AqgT2qquuMk8//XT0BHfeeWebYF+lOgJS6VxSTaJ95ZVXmjFjxlQHosoT6JREP7xG0h8zemKJd3DssceaGTNmRI+S9YBvKCFSOkUlu/79+0sMyfqxxwYYZgNRAivySWwnVGfDMAOJzUPqxViTPIGlnB7RdXkJdbPJeJBqnrO85p1Hv6kSWErHSlypqYXLXWukovQlr2jdR1/9SQKvrrnmmuoPVnkCnaKvWGsu5IBStlIR8dETS7yDq6++2owePTpqlFSKu/XWW82KK64Y1U/WWEqnJH2hlcCKfFrRTnCrRH+lfV4LB0msB5b81CV5AguApL6aPn16rlhyIqfEo0o4AqkSWGZESqeY0yrV3LjKVpcTd/0gt+mHH37o3qDEkxAE8sGmJmweFEeJ0amVVlrJEOw2duxY65MfI5ohww+9t956y1bhipFtt902uo/C95O/k70OH91QQafIkCElSmClkJTpRyo4ttJocK+EINeD1AWBHTVqlLnuuutyx5NyjLgsEKyj4o9AygQ2thJXqpZA/69Uuxaxtye77rprdIL/PGcbWzUp85/EF5NgialTpwYNlyhhirSkSPSDJlSjRrE+p2zybPaSEut6I13QQgms5NcN74tMJXyLvA15jFDSgh8+Y7eWdUFgmQqRdlxL1kI4WVMJTHpxqsXYm/IdKRNYSAI+Q6+//ro3RLiX4CudcjoR70nVqEGoXx/R+RdddFHSmUKwwp5//vkiOkWWjHPPPdeQPtBXUs/V6DufWj1PxSussCFW9LwOtOgUYwoJ7GOduuCCCwyuDVKiBFYKybB+KHV8//33G24MaiGdO3e2a1q9SN0Q2I8//tiW2aulYImFzG6//faGDVWlMgIpE1hGDjkg0OWNN95w/pRsCr/5zW8MLgQqYQj4Vojht4YPVtu2bcNeWMNWXPuSE9ZXpyCrbdq0WWykVB6EgPhcIWvqrLiPTSo0NuzPPvvMuSNyyEpUmSv3wm+//dYetn1ILOtUKZ1ynlSZB5XAxiLo3551gMIEL774opde+r9p8RatW7e2Vt6VV145tquata8bAgsisdcrMaiuttpqNkn4GmusYa/q8DXib9VVV43ptqHapk5gM7C5bn344YerYr/HHntYlxKVeASGDx9uLQnVLIzdunWz9bzr7cDgqlM9evSwvrPlhOhiNpGJEydWBJ11h+tiDtgqcQiQhujaa6+takknWKtPnz5mr732inuhQ+tZs2YZKnPhPldNqulUtfaV/l0JbAx6lduSwxXrP39kxJgyZYoh4Pjrr7/O76UVembd3WeffZrk3aEvrSsCyyQlAkNCwdJ2tUOATSJPi/sXX3xhT7njxo2zCwebGKQA6x/Rl1jd1adQ9ntjWQRz/LmwfHGFi5V1zTXXNFxdgfnqq68u+9Ia9lZNp6iQxKHXRSZNmmQ3M64O8Y3lapnDM3kZu3TposTVBUTPZygtS4Q3GSHQTazrGC7WW289s/XWW1sDRq3diCA3+JKTE51byGnTptkxkQKSdYpSyxT7yEskCWxeY9R+4xHYbLPN7E1SvUndEViIBlax2bNn1xvWOl4PBGpBYNmsKN1IJaTCjWGLLbYw2223Xc0JLCTlhRdeMK+++qqN3mdMZD2gchwLDNY2NtNaCxgRKQ+pYmNHIFPkaN1qq62aJN0KBBisuLr/17/+ZckGBxD81iF4kA2uxGopENhKOgVBdyWwUuPGkgcRLqdT6HlTBK2mqFMQWK5t8ZPn0FCoU9tss43hrykIbOFBu3idylunlMBK/RLT7YeKpNdff33S8Qbl0Ks7AstEnnnmGUOVCJXGRSBPAut63YsLwfHHH18TIkSycOpOVysJuPnmm9sk5Vhh8hYsUSxs1UqdtmvXzlrLGVvegq8imyqErJLggnD00UfX5LqXcbjqVJ7XvcV4PPLII+aOO+6o6lML4ef71cL3bcKECeaPf/xj1YwL3IRwpVmL/NwcyoYMGZKUCwEGGlImNZILQd5rg/YfhkA9F0CpSwLLZyKtlsuPO+yTaqumRiAPAssVNtckPknjubIlyCMvn8wFCxbY/LIPPfSQM+QQDUos52k5w5JIBgHKbroICfRx79lpp51cHg96BiJNcItPBSVyOxNw06JFi6B3VmsUolNY00lVozpVGV10ioh8rPx5CTrFt/DxO0SnyBuel6BTBGS9//77zq9Ap2gjfeugFljnT1CXD/bu3duQUaNepW4JLIBDRl5++eV6xV7HXQEBaQJLGi0WeB/ymg0PyyKEMY/rw9DARPxzSTPFVb60cC0PVvPnz/fqumXLlpZwcNUqLfgCUrYztZRHpFcL1SkyLUimPMowJ5H9fffd5/0J0CkOLXn4fpMOiPU6RKc4QOZh3SeIhiqMqlPlVUUJrPfPqG4a7LvvvqZfv351M95SA61rAsuE2Gi5llJpLASkCWyKhQzwc8VqGSp51KvGD/eEE04w+HOGCFZFCJQ02Y89rF522WVm4403DplS2TZShQwkBxVbwpfDB2njJAWLIq44PunBCt8PocZFQ1qnYgsZ4MbGDY2khB5oszGkXMhAEiftKw6BXXbZxQwaNCiukwRa1z2BZcMld6KS2AS0SXAI0gQWf8hQUsa0IGa33HKL6BUdFlSCRmJEmpiRXgyyECOQFUqbSgnBNQMHDozqTpqYxRJ9JgMxo1SupMQSfcYiXWGK9Gmx8yT1GP7DUtKopWSldUotsFIal04/jUJeQbTuCWymFlzHkZ5HpTEQkCSw6AX6ESuSFY+IcD7iiCOcfUzLjV0SJ97BHKkKFSNkTSBQR0pCr8SL33/XXXeJ+Z3GlsnNxoZP75ZbbikCFVfhEgn2Dz74YBsAJyUUWyBTRIxQ5puCGFIiQczw0b399tsbWqckcJL6ZtpPPAK77767GTBgQHxHifTQMAQWPC+55BKbZ1Kl/hGQJGZE0o8cOTIalO7du9sMABIiRYDImxprMc3mI0WA6O/mm28Wi2qXIEAZOZcKMiPx/RNPPBGtCpJ6/vTTT5urrroqekySBxCyRvTt2zd6THSAFVfKPxeLLj6wsSJZN15Kp/bbbz/rBiQhSmAlUEyjD27FuB1rJGkoAsuHIfXIiBEjGukbNcu5SG7sEteqfARJn9NY/8lMKQgCuvfeew3WoFgheEvK/xHMiYyOFYLvsAj6Bv+Ueq9k/fpY/8lsfJI6Fes/mY0JXeLaX0IkdUrKXUZSpyR9TqV0StJdRgmsxK+g6fvgRoV1tNGk4QgsH4iIVxzsuaZVqU8EJAksVyYkvo+VVVZZxaa8khDJgxZ9SeSFlbIKg4+UuwV+y1LX2ZI6BXGZPn16tCpIWjvxXR09enT0mOhAyt3iqaeeMtdcc43ImKSsnRTDkbJQSlo7pXSK9HqDBw8WwVwJrAiMTdYJKRfPPPNM8QDWJptQ0YsbksAyR66ucCkgKlel/hCQJBuXXnqprZAUK5RulPClZRyPPvqoiJ8olbruvvvu2KnZ9rFZEQoHIRkIhOVU4jAqaS2TsupLWstiM21k309Sp2KzIuSlUwcddFC0/zljw71l7733Fvn94Q9NhbJYoWTxGWecEduNba8EVgTGJumEtYUsN3nlm26SSTUXApvNk6hqHO1nzpyZAt46BkcEJAms1NUqm55EkAwQUK7ynHPOcUSj/GOkhuJqVUL4jTA/id/K8OHDTZs2bSSGZU4//XSRgyg5WykTLCFSgWWSAVPjxo0zzDFWOnbsaHMMSwipsw4//PDorpZeemkzbNgwMZ067bTTzHvvvRc9rgsvvFCsWhg+vhKuG+AtgbkS2Gj1aJIO8BPH15WDTKNLw1pgCz8c15Bcs0pY4RpdIVKZnySBpVSkRMJmkrxvsMEGYhAR3MJNQYxQEYjKQFLCHMeMGRPV3XbbbWcTxEsJAXgE4sWIdHohKjideuqpMUOybakoSNlUKSGzhU9VqVLvJVCRgEUpoVTl2LFjo7rbeeedbSELKXnggQdsWrwYkdYpKm9JzPGGG24QK3CiFtgYDal92549exqqa0kZD2o/A783NgsCm0FCxRxOuNXqqPtBqE/ngYAkgWV8sVe+ksE2GV6xV75cDQ0dOlT0igirFNapGJEK4MrGQM5V/GBDE+HTz1FHHWV69eoVM60ftY298pV0H8gGFxscuNJKK9nDvmTRAIlALkmXFLD69ttvrR9sjE5JuqRk3y82kEtap5TAii4ZuXVGblducyQPw7kNVrDjZkVgM9ywnnACJ8BAJU0EpAns5MmTo1JgSUVAF6INMcPahYU4RKStr9kYYnyGpTfQbEwxBRYIviOoRdoXLNa/M49KThAyghZDA8ywKu+xxx4h6lixDeVgQw0H3bp1iz5UlRpcjBWWEs6kvZIk+owxVqcY0zrrrCP2/ZTAikEp3hG+6nvuuafB6iqVXk58kDl32CwJbIbpN998Y5555hkbucv1jUo6CEgTWGbGNSbXmb6CRZJNNA+BvBIl+uWXX3p1nwc+2QAg1lgXqVbkI5tssomtiie9qWdjCPER/MlPfmIg5OTLzUNeeOEFc/HFF3t3jf/z1ltv7d3OpQE6RRDPV1995fL4omckfbyLX4xfNXP29TvFH5fAybx0KoSg5a1T7EkcbnwlD50Kwcd33Pq8HwKdO3c2u+66q8FVK6/fhd+Imu7pZk1gC2GnUgwLB8E1b7/9dtN9EX2zRSAvgkaKNQjN7NmzqyJNPkzyokpVSir3QggHwTeulljJfKblxjRr1iwbHAZeLgJG+L0SbJOnEBx25513Or0C0gr5wVqWp/joFBvO2Wef3Wx1igMOLgUuUiudwhcWa6yL1FKnCKSbO3du1WGhU6wfuDlJixJYaUT9+8PSinFg8803N7gKcIBS+V8ElMCW0YSJEyeaSZMmmQ8++MDgciCRR1SVzh2BvAgsIyBwCl9oDixY4Ytl+eWXtxZXrmYk8qu6zBrCSGqtxx57rCSRZZNiQ2dMm266qUuXIs8Q+PjQQw/Z30Ip6dChg6HCSy0jXrHi4etJiWCsxcUCYUV/SG/UunVrERyqdeKqU1g5yc1YC3HVKXyDN9xww1oMyb4jRZ3CaIFPejmdateunenRo4ehFGetdIp8tYyJCmulfHVZpxgPuWjz0iklsDX7WdgXEXyFHyt/7du3t2s9eX1VSiOgBNZDMz7++GMzY8YMGwBAXkquxfhfiSpBHsNoFo+yoW611Va5zxUyNGXKFEMZVQJYWDhCNnP0AJKHFRVSBYkiY0HIxkIfHJzYwPDbZPOEKIZcF3EQQ2+5TsYXFP+4kAWRyHb886ZOnWq/CWMihdcKK6yQ+zcq9wJ+h08++aTFiv+mKADX8lgqfAUCihsR2IMz3w/MsX74Ci5JECL65PuzCXHl5yuqU76IxT+PHlEimJzIsToVP5r/3wO/PX7HrFNt27Y1a621VtA65Tsmbhd83T5839Ecn6eCImsLf5BW1lGMJazRKu4IKIF1x0qfVAR+hAC5Nx988EEzfvz4kuhAFrHckAYohICGQI47DOVlX3zxxZI5XdkAd9ttNzuueryOkrTAPv744+aRRx4pe8OCvxlWU/63kkhaYF11Ko9gq3Jz5AYKPa+mU9wQYBmsN3GxwBIwU0urfr1hqONVBGqNgBLYWiOu72sIBLC6k8MTC6CLYPnE/y9vwoj1aMiQIU63Alh38RHdaKONXKaQxDM+RSmwouIbWMoHFos0c3cN3oQsUnUJy0mxcO2Mv2Ipd4biZ/ERJsCq1O2Cr05xU3DuuecmpVMrrriiHVM96RSp6HCTcZFKOuXSXp9RBBQBOQSUwMphqT01EwQIACPyHOLiI3lvfj7kLht3JULlM7e8n/Uld9l4ShEq3ATIsvDJJ594DRvSSVWwQh9InwND9rKWLVvahPU77bTTovfH6BR5d0NcVVwmH6pTkNgQVw6XMUk9E6NTHEZDXHGkxq79KAKKgAZxqQ4oAt4IxAQ24GNLdL90pZS//e1vNvXOggULvOfDlS8lMSXzR3oPokqDmAT9RI5z4CBXYmg6p2x4++yzjznppJPs/yWaHgvvnDlzvKe75JJLWhKdkbwYncISS3q41HTq8ssvzz0DhDfwBQ1CyHnWHJ3i91aP7hIxmGlbRSAlBNQCm9LX0LEkjwBBFCeeeKLTdXG5yQwcOND6oEoJpHXQoEE28CRU8sz6EDqmrB1X81RNoiR0qGRVk1566SVL1kMFP+Ybb7zRkuHY6m5Z0QcJnaKCU9euXUOn9aN26BRE3TW1W6kXEx3Pd0tRiOqnXnxqlbhSxErHpAikioAS2FS/jI4rSQTuuOMOc88990SNjewEV155ZVQfhY0nTJhg/Q5jBIvgbbfdZpZbbrmYbnJpyzU9FYZihOjem266yRaNIDNDjBx66KH2ANKvX7+Ybmxb6tZTETBWp8gTeckll0SPJ+tAQqcg++iUdAU0iUnGVHbL3p/plMR4tA9FQBHwR0AJrD9m2qIZI0AgD1H+sUJVKanyfzHXz4Xz+M///M/F/DJj5yjVnqv21157Lbo7SD6+i7FCui4I7LBhw2K7MkcddZQlsKpT0VB6dSClU1dffbVZf/31vd6tDysCioAMAkpgZXDUXpoBAlxlk/RdQiSvfCGe7777bvSwUr3yheT5ltotBQZJ312zRlQDk4Au1ypllfri2h+3BgmBlElVjRswYIBI8ZaDDz7YHH300RLTE+2Danbk2Y0VDrSk1lJRBBSB2iOgBLb2mOsb6xQBCgtI+fRJbnz4d06fPj0aVappkeIpJZk3b56BBEkUC/nFL34hYskFn/XWW8989NFH0VARgCWVKF7St1rq0EABh1/96lfROEl2gN/r4YcfLtJlLco6iwxUO1EEGhABJbAN+FF1SvkgoAQ2H1wr9Uot+EMOOcRAZGOFoKmXX345thvbnipkVEeKFSWwsQj6t5e8SVEC64+/tlAEpBBQAiuFpPbT8AhIbnzqQuCuLlLWQFJgjRw50v3FFZ7cbrvtzAsvvBDd17bbbmurW0mIuhC4oyjlQiBp9XYfvT6pCCgCIKAEVvVAEfBAQMo38Pbbbzck2ZeQP/3pT2bEiBHRXUmS6ujBFHQQm64q64oALvK2xlpzSWBPEBdZDWIF9w+CuCjVGiNUCCMwUHXKDUUN4nLDSZ9SBFJGQAlsyl9Hx5YcAhLpd0heT+J5KYH8QKxjhFRHd911V0wXubUlWCo2e0D79u3NVVddZQsaxFpOyQO84447mr59+wYVMciAInXZzTffbJ599lmbWzZGsAifddZZMV0s1ha/3NNOOy2qP8omS2RqiBpEmcZPP/201YcYyXQqpg9tqwgoAuEIKIENx05bNkMEcCOAwJB8PlSwKG622WahzUu2i7VSpuzLR1J9gt6mTp0ajFmWIgy/VcrBhgpEn9ym5DiNTV+WZX1Ap4jUj0mqn0c6Jyzyb775ZihUJiseEdxBjg2xwp9yyilROpXqjUWOsGnXikBSCCiBTepz6GDqAYHnn38+OGn8LrvsYqtmSQvkDmL2zTffeHdNedtLL73ULLPMMt5ta9UAIgVhCJFiizdFESiOECJYuknHhXz22WcGYhxymCEHMMUsslzAMcUa8qqiRpYFrLqU3/UVgtMuuugiS/RTlXHjxlmXkhDJqqiFtNU2ioAiIIOAElgZHLWXZoYAwUDXX3+916y7dOlizjvvPK82Pg9jXcS3zye/JTXdKa268sor+7yqSZ7l6h8XAB+hQhUkpU2bNos1C3ElwPLeo0ePxfqZPHmy+c1vfmO+/vpr52FBWnEhWXPNNRdr8+CDD1qXAh/BlSHGolztXW+88Yb53e9+51U6mQMR5HX55Zev1n2T/3uIK8HPf/5zq1Mpk/MmB1YHoAjUAAElsDUAWV+CAGw/AAAgAElEQVTRmAj87W9/s9fILoRx3333FSk9Wg1J/GEhR9OmTav2qGEjprSqVOBP1RcKPPD6669b67eLpRlyh8V06aWXLvlmgrD++te/Vh0V7fv371+2Stm///1vS9hcArEIAOMQU+7AQEAXB6PZs2dXHVetCk9QJAPCj8W5muAag6U8xfKx5cY+duxYgwvGt99+W2161vc5zwND1QHoA4qAIrAIASWwqgyKQAQC+C0+8sgjNr9ocUJ6rJtYXSGvlB+tpVBx6rnnnjNY0ObMmbPo1VjFtthiCxtF37lz51oOSexds2bNsi4ApJ8q9tHEukk1Kq7VucauJpRw5fu9+uqr5pNPPlnscdpzVUylJRdrIhbiZ555xowfP36xa3esv506dTI777yzIdiqmkDOH330UdWpakAJ/numUwTUTZo0abGe0Skqr/E75gCioggoAmkgoAQ24jtQ3pKN7/333zckuWejateunbVs1Ss5KIQDKx7zw7LE/NjEufZkM+Zq1kfefvttu7Hjq4mlY9VVV7WbAQShbdu2zl1xVfv3v//dYg7haNWqlVljjTXseKi05HOtx7xee+01889//tP6MbJRcf1JPz4bFUE4WAb5o0+sZ+uss44dE2RqhRVWcJ7fjBkzLOYffvihtaLilwr5xbLlG/iFS8GECRMssf7iiy8sTiTgZ0z8t6tgYebbsbFjbURo36FDB6vnTe07CwnlIIFOEfkeKvSBfmJx5fDho0vZOzOdwmpJdTQsrWDelDoVikeldugBv8VVVlllkR+vz3tS1Sl+wxz6WF/QB9ZzfsesUz66la1T/PZYp9AlfjPsDb7lftEp/HWnTJkStU5B0lkPJk6caMfEusWYNthgA0vQl1tuOZ9PKPYsewPj4ndcuDdw+Oc37Sq0ZT3nt8fvuHBvYM9q3bq1a1d2T6AvXIRYk/n2a621lv0dk33CR1g7OWgzJvzJV1ttNYs58/PRqUbnGz6YZs8qgQ1AjeCGu+++u2ICchaDnj17mgMPPDBoIwwYllgTfmzMj8W8nEA6KfFZ7BNY/PwDDzxgHnroIbsIlBMWlyOOOMJu9OUEAk3uVK7tywlECivJQQcdVPEKk9rzd955p12cygkElApQO+20U9lnWIzuueceay2r5EbQrVs3c9hhh/3I57GwY3SK+UFeywmLHfOrplOjRo0y9957rz10lBM2ZcaENbacQHrRA6y5hVbcwudJBdW9e3dz6KGHBhEZMaVt4o6wvpKGrJpOUcK0khUWPeLbuehU7969vQ4iTQyRfT3rAL8ZF50iM4bPBh86P4gc6xSWeEhCOYHksU5RRricfPzxx/Y347JO9erV60e+2YX90ge6UE2n+vTpY7p27Vp2TBDxv/zlL046xfwgWLUQUhLed999VfcG1imIfzlBp+644w6bT7mccCjlVoY9q5JOcVCgLw4w5QSDAnsM6145wYiBTzsuSpVcU1gLWBPYb8oJZJr9qlLBk4xvHHDAAWVdpmrxTWv9DiWwnohj/cPfjUXPRerNJ4yr2SFDhjjXnscnjFrnEJlC4QeM3xx4uQinZfopRRixYhBI4hoow2JAMFMpP8M///nPdoNxFcjiMcccY1q0aLFYk6+++sqOqdJCV9gAn8Czzz7bEBFfLFI6NX/+fHPddddZcuAqxx57rCXExYKFDV/GSgePwjZgjW+nj+XadYwpP0eKL3xpOaS5CniDe7HgY0pwEBuWi6BT6OBGG23k8niTP8O8+F266hTWQfDwuS3wnSTkjhR0runCIEJnnHGGtVgWC33gf+7iE09bXFTOPffcHxGqEJ2CxEL0YnUKf3jGlKdOcRgmAwfZXFykZcuWNo3ennvu+aPHJXUKsulTnGSPPfaw46KISKGgU2DoujdU0yl+A658A506//zz68oH3UUHyj2jBNYDPa6WUEyIgo+gVCxsxZHQPn3U4llO/Jdffrn3q7beemtLdlhoEHIsgpPrppC9EJJIP1zXZcICRdCEbyofroCvuOKKxXwXyd/Jid9XioNl8FGEjLoSjex9kHwOP4WbA0n62UBDdKowTRHt2RQqWX7Kzbs4XyfXi6RP8k0PhYsJ+pMn4fD9dnk/H6pTWILI/ZpJqE6xplDkIU/CIYEhOkVhBJfgu8L34daDnuehU5ACfsfFvuvV5ss6B0koPIzSB7+ZcjcV5frEZemyyy5bbG8IraxXnMsZrH/9619XvIkpNS50irR6layC1TAq9+/sDWQ9Yd3zFdIPkoawcG/g+4XoVGEKO/rDQh1SdAO/djDOhH3qnHPOEdEp+AbkVUKnfLGul+eVwDp+KRYoFNOXSGXds9hhLSk+rTm+PvfHQolUNjDqzJ900kmWiIUSKfqC5GGlAa9QIpWNqfDg4Hu6Lgb8qKOOMlz5hW56WX+QPBZwNofQTS/rq/DgELrp0VfhwSF008vGVOrgkLvyNtELQje9bLjZwSF00yvUqZQPDhyEyHZRyaWl0ifMQ6diiBRjLTw4cJANIVKFewO3F/jJxupUv379rJtRrE7ldXBAT0MO2WDFwQGcMXCgUxBH30N2hnnhwSHUcJP1lR0cQg03WT+FB4dQw0298A2pJVsJrCOSoZaWrHt+fFzN1zoa3XF61gpIJH2ocJ0JicoqVbleeZR636677mrdCWJJJ31j3cA6xemdwKhQIZjjj3/8o8FXlbHFSEaGY0hntqCTNxT/pxNOOMEGaoUKwQkcsPAPhmDHSFb1KqaP1NtyzRurUwRycEsgoVMpV72KJQjognTVK1xkuP71vfko1MvsZsbXLamUbqMH66+/vjn55JMXBUqG/AYyneL2i/zEMSKtU1ytH3/88VEV53bYYQfrwoG/6zXXXBMzPWsoIaAutuIcZB/XA4JuY3Uqu5mR0Cn2q1T5RtSHK2isBNYBSTYr/CBjCAKvKb42dHh1TR7hFMv8YoUfL4tUyFVM4bvxhyWgCSJEZGqMsOARTCeRu5EFD5L/2GOPxQzJBjtBXgmYCLXoZwPg9E9miBDXj+JJMCby2hJ9GyMZGY7pI/W2sSVps/lxwGIzjtUpNio2rBSF301qOhVrkABngkZZpyBlsXsDAUZYFjlExgo6xeGfNHoxIq1TBCZK6Oitt95qD9lkG4gR8MaNh0NDrECCWRNCXNQK383egFECH/lYnUqVb8RiXdheCawDmqQP4tQXK9ILQux4svYSp1n64kqbAAZf39dS84AMSyx2WCdx/o9dWBjj/vvvb6+/KkUqu34T3C18K3mV6hs3Ca5YyV8ZK3379vWuBFXunUTk11Mye1/sJAgQ72ST4fcnoVMpWlw40BJlLSEEX0qlbBs4cKC1fMfKqaeeagMnY4UgSCLSfYIBy72TQy0R/i6FGaqNe+jQoV6prCr1hz8nUf6xwoGBccUKukSmGX7LscIew74Xa3BhHFI6xa2hxB4Ti02e7ZXAOqArdXLE/5W0KFgYU5LYq+xsLuSEZMNyjcKthAGW01gLQtY/uUrJxRcr+OVWSi3m0z/O/2PGjPFpUvJZdAkLrEsVqGovYwMlHZSEYAWqlBZN4h1N2Uesy002dq4wXTN1VJuv9DV7tfe5/LuUpZp3US2La/ZYwVeRg0OM+0A2BrKmhPp0Fs9j0003NeREjRXSEpJXVUIkdQqXBHIjx4ok5qQfw20qVjAkfPDBByI6RaAaJY4lBJ/qkHzWEu+uRR9KYB1QlvBHyV4DWaxVnj2HqdlHpDZjCDqbg4RAftj8JIQI5iwBf0x/Uv0who4dO5q33norZjiL2mJJkDg0sAj7RmSXm4DkxicCknAnlKiVODRI6pS0z6IEZBI+1dk4pHSKq9nCDBAx8ySfMoUBJITr49CgpML3c6AlH62EcBNGJbpYkTw0SGJOTl8JS/xKK60UfeWfYSy5N6TIN2J1qbC9ElgHNKUssARycZWdWiYCtcA6KMHCRyQXTvLnSlz7o1NE1EqQKbXAuukBT0n4ddIPCdolXG7oK8XguRQtsHPnzrVXxxKHbUlroFpg3X5/2267bcWk/m69/O9T5PMNSelV/A4O/wQJp6ZTaoH10YYGfZYrPgnnek7YOKCnJvhL3XjjjdHDYjMmKImrlFg58sgjbYBErJAkerfddjMjR46M7cpWcuFqhyINsSI1P/yqseJVquDlOlaqaVElSULQc/S9UYVgt9jAK7CR1KkU3TakAkTBivWARPsSgmVRwl9R6nfMLcr2229vKCQTK2RHGDFiRGw3tv21114rlg+WVGoS1moq0HErKiEUFaEKW6zg8ob7h4QFnaIUVN6KFSqOxQZUx44h7/ZqgXVAmBM7ShUbMV6cEN/h1TV5hOt18gfGCleY+MD6VLoq9U4s1LfccovNHRl79c/CwhVYbEoZxonVDavp6NGjo6BaYYUV7IGBSNNYncKXjyvD2JQyTAhLPP3EWgQ5yMSm4ooCuAaNSTIuoVO47xDEFatTuCWhU8UV42oARdVXYBmOjRiX1imJIDwOx6xTRLHHBuGROhB/TInfDTpFMFhMWkQ+qrROSaRFZFwcZCiUE3vrRLYUXEli0yIyJtxbWBNiDw7sDQSonXjiidE6lSrfqLpgeDygBNYRrNgFj6teooTzqCjjOIWKj8X6wRJxzg8P6yQ/vlTywDIvNj+qALmW9isFFN8NqxvXRPQVI1ni61jXjUyn2rZtazGPOf1nBEHCZzHFq+yY71WqLan1sOJNnTo1uGsCkq666ipL7mLTvKXo/5oBk2IeWKyvp5xySlTQjWQeWALUKG7CmCR0KsU8sGRFIF81Ro5QIfUVB0eJzDmZT3VsHlj8X1nLCVCL1SnJPLA33HBDsnwj9PsXt1MC64gk5IANK9RitvvuuxsCP1IVHNlJLRMq5DTlChrBKhF6LUMlLtLSQBghwaSbokZ8iBCNS5lNZOzYsbacb6hQ9YXMAQilLV988cWgrqjEhaUMwo9OYfkOdUno3r276d+/vx1HrBsIcyJ4ACGNi2+Z3AyMVFPFBX2sKo3IIkHVuVAhNR83BAgWpdDIcVw10KmUo42xUoYGFrVv394SfWnhejz0yh7rKwQB7CFm/I59S5pm88GnkwpTSKxOoUf4dcbqFGm9SMEkrVPczsVc/3NDROAVEuMGgs8qxSMQgmkz/EN0LKt+RlvWg9DsMlTiwsiV6RTpwkKDc4lnoLRxo4sSWI8vTAolSv75pl8pLGnq8bqaP4p/Z8hGwYLJqRiLIIIjO9ftvimnuP6kXG+2ANPX5MmTbQ5e34MD118sJhDGTEKt6MVXMaF16yHnF198sUEfMuGaD/IYolO0yzYY2mPFCVk8i613uG2woPtadFl4mR95aZuLhFrRi5OMo1NY9imf7CNsehzMCnXKp32tnkWnsMz7krw8dSq0LDTrHOtd4TqFFZ3fTEjden7HhetUqE5lNzvZN43RKfypCQ6VFvYG5otBwVeKb3bYG7CehugUe0Ohj35oCV+C+BhXJqElfNkbyJO72WabLeqL/ZPYG1+dqhe+4fv9Sz2vBNYTRSIWL730UmerGVezLHb1ktT98ccft6dAV0JF4AHWSX6AhTJr1ixbxtU1wpN8pvSTWaQK+2JzwJL61VdfOX0tFl4WA6wIxTJ8+HAvB3mKF0Dwin0L8XljTK5ppwjSgJyjD8UipVNsDny7UaNGOeHEQ+WuniEc6K2r9Rs3BhbbPDY958k00YO+Nw7oFNaVYkGnsKCxMbsIOoUOpk5es7ngs3j++ec76xQHIXQqT7crrrPxO8V/0UU4MEJUyd9bLBAOyJnrFTllXznoFwem4Z5CEKTPLVYxec3Gxu8XDF11Ch9MxpSnTkHIOGy7ZmHhwMDVPDdOxSKpU+DNb9lVuFXltioz3GTt+P4Yulz3hmo6xW/c9ZaunE65zqnenlMCG/DFuG6HCFVK+k4FKEqYEuUofQ0TMGSvJvhPMb9KV5pYOJlfjx49KvbNosBfpSCHLl26mMMOO6xi4vtPP/3U3HHHHeaZZ54p+z42dAK2evXqVfHAgJ8nUZ6VFnX80Ui1wwm7nHDa5uT+yCOPVLzqoQ+qEVWqS41OMb9KhJ+o0n333ddiVUm4FiWbAJiVE1KCMSaKPJQT8mWiB/RXzgrAwYWFnDE1ctaBaj8g1gKqj1XTKTDneq+ccGVIqj0XnSKwNE9yV23OIf8+Y8YMW8zFRafACp3PW7DEskaBeaV1iqt+iGJ2hV1qXLhJ8JuptE5hbeV3zN6ABb2c4DsMVpV0CsKC6xYBYOUkC6wla0YlIkS2FuZXqzzluD2h6+hEOaF4DFkHSDFWTmiPW0IldxBcPqiWBVaQ9HJCpTDW4UrxEqzj7DHgVU7A+cEHH7QlfStVREOn0PN11123bF+4czE/F75xwAEHGObaXKRZE9gpU6YYLIX8YCspdTllYLEjfRHKDllgMaJ8G1a2SsSgknLRD/1i0SplQaylYk6bNs1e9bCA8t9gxPzwLa20oJQaIxYO/ghQ4Ae96qqr2h8t5JX/dpWvv/7aVi4Cc6yEHA7YxPHfZLHzOSxweqdGOxZeHPCpJLbRRhsZolMrLSjFY2UDZG4Qfvpk8YIAQxKx1PjoFosxOkW6GbDiIMQmhU4xPx8hBydjYlPFes38mBdj8iE+kCoqmVFSOcsKQfsOHTpYPQ8p74l7ApiDjc9YSs2fgBw2afSoFoSn0jeQ1ikOk2COjoETuuCrU9l4WVf4HXMbVOkw5aJjjInfIjoVcnDJdIr5ZdHk6Ga2djaVTqHnjInfHgdU9gYIK+sUa7KrgA1rJ79B1k/2BtYEfsO+6xRpCRkXa17sOsV6x9rC9yO7DlbuGJ3ikItOQcrZG0KE8bBOYbFknUI3KWTjuzewr2TrOd+PWz1+M6zD7FmtW7d2Hh7cADILecSKzbqy1lpr2fUOvHyklE7RB/PzWa8yvkG6LtY8dCrbG0L5hs88Uny2WRFYNjmuVwnAYTMuFMji1ltvbfMy+pAXiY/KaZ3TNj/iwuh9NhqUHAteob+VxDubex+cZvEXBfNC/1oWBRaDbt26VbSUZfjhf0WhC3xZi6+M2Bz4flhbXAgD7bGSQNCL/U/Z2Dmtc43msxCn9J1ZyIkeZmMo9FvDiovvF+4jWHOrCYdOrC18w+JqZpApCB6/4zyvQUuNUUqnqs3f598lderJJ5+05Z05rBVa5CEvW2yxhbVIuWykEALyMkPwioMFIXmsdfvss4/TAV5Kp3wwrfYs5AJrLgfRYp9mdBILPPrp4laWok5BoPj9Mb9ity6IIm5lpAWrZkxgryN9HDpVHC+BWwVrJ+udr7Gk2vepx3/nkMfewG+m2K0LQwJ7wx577OGkU/U4/3JjbjYEloVg8ODBTlF9KAK+LXkLizf+LZWuerMxcCLFJ9HnxJb3+Ouxf378+OG55BAkvyo+ieUshBw6iGR28U+qplP4C7v4hGGRJW8hh616ER8/Q6yoBO1hCS8lkHsCMFwCNzj48TvOm/BjzcL30UWnOBzjH5f37Qo6SUBmpWvHDF8IKDmXy1n4IcHMz8Ufmj7wES1HzriedS2WQZ5krtlLCcSJ4DWXctPoFP7ntTBMuGY2wMJMZoZyLkroFHuDS+YG0rExv1roFPEfLnENEFBSw1XSKb4fFtxqAikmot6F8Ffrqx7/3VWnwIesNJVclOpx/pXG3CwIbEgCZawA/ADz2vy4puIH7JMmAyJFcFLslWujKbHrfDgwEKBQyeequC8WYkhsMaEK1SkW4sKAN8gduWp9igcQNEDAWyX/XFdM8n4O0oPO+qTlwocLzIs3Pyw1l19+uXOAIXPD4sWBJa/Nj3kRCc2VsatANCCxeREqyB2BOz55j7lu5WBUrFMcGCCvPnmdsaLyOyskVASFkh4PK66PQGCPOeaYxYIoIXf075Oxge8PsfZ1w3EdKwcGMnCAl4+UIukcGPh+qlP/H0l0CkLfnAw4oTpFwBv+vs1BGp7AclqEKBLZ6Svk/WRRL44y9O2n+Hk2PRZTFytScVuivIvTrsSOpzm050oeK5OLtbsYD66lC9OuYHklh2CoTkE+EbIGEAHtYtEoHhM6CTHLa0OW0InQlDK8G1cOrD1sXAjX1pBa1+wYheMHIwgBFd4kBZ3iW/qmG2MMxTolNS50Cpx8DkTZuzlYQQwznWKd4hDvm8KO/opT+RCEElqh76ijjrJBM0hoCjvaYmnm95bplBTm6CTrA+uCr5DdhD1ml112sU0h5RxyQ3QKlyVIdIhPcqVxc3jhEBqqU+xXmQEAco61OFSnClMH+mJdT8/H6hSHaoo+NLo0NIHlh0flD5drinIfGutYYW42CYWIrXpVLmWKxNgatY/Q3IoZHvh0sdFI6lRs1SuCJoYMGSJOzKR0IMRKXfhugukgnhwUBg0aZKughUoe1cGozIZfWqjkUeoxtuoVQSEcziBWsRWKshRtWExJOh9y+ABbfCkp1AAxiyHC9JVVcgr9ZqXaxZYVLixEQXqpmLLCeehUbNWrPHRK8vul2JeETt10003J7g1SmDc0gY394QEy1oiYCk7FH4roRkz8MYL/1LBhw6o6yce8o5HaEp1KzWvfhNDFGJCbkWAtcq3GCMEJXCFL1IjHqkzQRIqC5Sy2Rjx+60ReZxXVQucpXc2Ja/q+fftG6RQWz5tvvvlHeUBD50g7iD5R6zGCBZeI+9ga8Vz3sk7FHh6ZC4UfSDeETvm4XZXCgUMfEeVSgtWa6PcYgeDjtoZOxQg6RcEWfOWlJKbiVTYGbou4VYktmYxe+uRqlcKg1v1gpfYtBFQ8RtaCzLJf6/HX6n0NTWAlFhY+BPkdpXzoQit+FCsEcyuVTLtWilNP74m1SmVzZSHHahq7WeFvCDEjiCNWiNwn6Ck1wRcQ62msQFxw+8D/NVawmBKYJyFknog9yDAOdIrcxRJCwI+ETnHbQH13cnTGCod/LLoxt2CMgSweFH+Q0KlCl4TY+UGmKaNNSqoY4baBXK4SOiV52yClU1nWBQmdIuCVoOZGFdxH8PuOlewGK7aflNs3NIElaTEpd2IFf1XSVEgIlqQQn8fid5er5iMxxkbrg2hsyuTGCj7RIaVaS72X4BSfSjvlxp6qRcIn2rzSdyGHI3kmfQLvyvVHhG6paj4hehFT87zwfehU5hMdMo7CNqQ2ImI5Vgi+Ir8r+TljhRRypJSSEFJrkX4rVkhJhy+shEgd1BgLh1GJgxrpzAYOHCgxPfvtbrjhhui+cHfCFcQlU0e1l1XKTlGtbT38O5lD8GWOFQLQXTN+xL6rqdo3LIElupsrJwmRtJIMGDBA5EecquVNAm/pPqQs8Zz6XdL2uIyfVCcuKY6q9UVgEtV6sOqmJLG+fNlcIFNYJEL9JwsxkfQdj/UPzcYlSaZi/UOzMaFLWGBx3YgVrsUlDuyMA9cbco/GCtZcCUsn45CyxNMXbi6x7h/0I2l5wx1BwmqKTuHWEOtSxPzy8PON1SnJ9rGxA4Vjkbw9lpyjVF8NS2AJ+Ij14cpAltz46CvWh4txSW58UsqUaj9ShwasUhKbOjiRfLq4mEYofmwyEI6UROrQAEEnsl5CuMaUuGJnLBJ+gfQjSaakDg2MiywXEocGcpTGBN8VfncysPikYyunM8QQhGZEKO5T6tBAv/yGY10t6If0bLgoSUiKOtXoxhupQwPfX9JtSkKfpPtoWAJLtHiWeiUWNK5jKtU99ulfInCH90luxj7jr8dnScckcTVHQm0qd0kIFad8c2KWeq/kZiwxr6wPicCdbDPGhUDi0JdFxUvMMzaTSDYGyah4KcsNOkXyf4nrXqlrcfCSurUgpRP5hCVEyr+esVDFjMpisSJJ8KRiNgjoI46EKmWxgl88QbmNKhLB52DDIRTruXT6wJRwb1gCC8g4/bP5xYqk0/g111xjy2nGCk7eBx10UGw3zaK91IkWv2M2LIlrsJNOOslcf/310fhj4cJKkpqQXorTf6zsuOOO9jcs4bpBLktKnkqIlE5JbsaU6GWOsYKrDATWpTJctXexBg8dOrTaY07/DmkB91ihWAOGBAn56KOPRPxNSaUF8XzooYeih3XIIYeYI488MrofOiDrCoe1WOHGEB9YdDRW/h97ZwJvRXXk/3obDxRBBFFUJIpGlqiJCBENbrii4i4C7mPUxC0u0czEv3GbRGeiuDFR45KAjrihQdxQEcYgirgrbihBFAVBRFGBt/3vtzPtNJd7b5+l+r6+9936fN7noa/79DnVp8+pU/WrX2k6lHz7ksT9rHW+bA30SzO6k8Q4NdosawPWl6cRBRPWgT4JXkQN0Tqxl3toQEPXYRtaCwJhcRZ0H+7PcE6xqbPJ+HoWNQ0gTZ1rZdJiaGDAQsfkI1D43HXXXWpYYa05pXk4JhOexFXfjHiy9Fn3OGz7CmsnCVPvvfeeV1PgOuH01oCAaGbpw1FMUpFL4YGoQoio4Y3XYFnQnFPkkrBOacwpPLAa2GPmlHaxBq/JqXyz1pxK696gqa6yNmDZ+PB0+Xx8mpQrvDi4SOmTD5ZSE6SvOZnS3BYnWh8vHryRZHhDKwOm1gcfGM4pXy8eRhnlOcHmplF8oRskcJEBjZF/yimnOFXvCfWSxGLuO6c0Q9nhODXmFEUDgBH4rlNhKFsjUz+kDfTFVodzKlrO2ffb8Q2zE+oFswrFG0wZcIW7ShJzytcRxDrFnELnfMc2JXKz9aAJj3DVcTHu851TJM2xdqZ1b9DSYVkbsCjJh85HEwwffWE+CzrUGNBCER6oiLkGfJP6oDXp169f8EAfIyE6pzDMSDS0qekeHXHa6WTgb4VMm0ISLkJJTXCPyOTJk4NN0EVYxDEQtLicwz74emE1PWVhn/CYccByPSBHGVd86HzIOEfnGIwIRPauDAJRowUMJXPKlR4xKf5sn0TR6OFqzpw5QSlZVwFOBKxIUzA4GZ+rlzk6p4ClMO9dJHtOubRRSveccTPiEqQAACAASURBVMYZzkmLmonnadZZ2RuwKB/Avm2dajBgeJCSClXAZ2iLgcyuVZ7miZXGvs2aNcupqtp5550nu+222xpDYhG2xQhutNFGctVVV60xpyizSTUtW1xtqSTxETqmqoytwYGn5sADD1xD54QOJ06caDW1SB7hO6ZOfBLiauShk0GDBiXRJWFOUdyCamE2AqY+m0AdTKYthpVDNrjJrbfe+vvHf/fdd8E8eP/99226JP379w/C6uAnQ6FCEQYxibo2okmHmP1cjDu+Yw5tNpLLozh9+vSg+IOtJDmn5s+fH5QW/vrrr626lSvyAe3f+PHjrdrBi0tRjOicsmqgBC9mTvEd2+bxwHWNJ78tSJswYMGUUD5wypQpRu8UuhaSIULvgdFNDhdhVEOIbhKOJqTHAgUYviLuGoCTEoNm1apVsY0Qhvntb3+bs+IZ1E7guUznFPXA8f507tx5redicDDf+G0ipXa6xoilgIeJQUU4lVLL+QoO3HPPPQGW1UQwWjF+evToYXK58zU2cwpDjMIoSVfR05xTTzzxRLB+mkinTp2CeZ7L0OAQwzygzruJoCO8kfX19WtdzpziOXic4yRuTsXdb/p3DqGU4cXYMxGYSPCy0b9sYU794Q9/MIK/MadYP5LeG5hTrIdLliwxGZ4UYv2giItpSViKtfAdsy+3NUHXjN10TpFojN61cnbSru82YcCGL4HwDLQS+Yi1+UDwbO2zzz5rnPiTfImExB566KGA5inXYowHiXrGVG7i3xXx1wCLAp48PB25PArrrbde4HE9+OCDBa9pIYH2hrby0d8AGaAaEe8w6kXKbpPNHVJ0EsRyGbLcy4ZOn0Iog78mitcCeobmCQaOXFW18LBQ7Y4M6jh4DF48MGJAcXJ54TBY+Y4p0Yo3sBhiOqfwciZ9MA7HazqnoBuM82yxTuE5mzlzZk4sMkYGVIPMT76fQsJah2c3Hw8yHMlsxHgnCwkGI9ASjTmlNUeYj1Tro1/5aMj4jpkH2267bcHH4s3lm6GKYK69AT1jBEPsX6w5RT+ozsXBPZdnkMMGyWjMg7g5hX74jkmMzeVQIArKQZYKbHFzSuv9pbEd5hRV9tgf8vEgUzAEb3cp7g0+Oi8pAxYcIycRNkCMORJrXGois/Cx6NEeoS3A83x0hKtaUyjdSJIQ/QO3h0GtjWeyHR8fDAsNixWLCMaF60kfz8vChQsDTCTjo/JMnLGSq78YC3Pnzg2wo3hJMVgoOYqX2lYwhkiaIFxD5jU6j1t4cz2DOcmcQlcsxr169Qpqm5NUYSuESIE7YDSA+0JPbFT8u7UEHByYT94fQmlIvj08brZC2J25gKGOzmkHg9NWmEdw6VK9iH8zlwjLb7fddrZNqV6vNac0O4Wu0RNGEVhg3h+GYqFDVb7nc8hiLkC6z7eHIRZilW36rDmnWMv5jsH+EuVgTWdNaE1BRxj89AvDjsMsRj7Gvq0wz9kfWPsw7BjbnnvuadtM8J3QL9ZODCPeH2uUC1QOR9Arr7wSrAmsA6ybGNMu8vDDDwfwEg669IlEZYwyW2HvZHzM93BvYH1xWTu17A3bMRS6nu+XvY/fHM7D79jloI6emJvojDnJntXa9oatrlJvwPLBMrk5hebCCbIYc1LHixDnLWPTxNtZyAOL14ZTn8vCbqv8tF7PIgJGl1NfoVM2OmdRLiQsSngR8p2yWaxY1PFSxiXZEMrk9J/PswEROJ4NfhdL4DVkThXywILlpOZ9KXpgtbxl5e6BLdZ8a63n8M0xzzU8sK01hmI8F6OQvarQOhVGUuLWqdADmy9ShBOHvc/Eq886Rdg+XyEWDBc8nUQfCwkeWLzLcXuDlgeW/rAnx3lgp06dGvQL4y6X4HQ55JBDYnHn2BjoKc7eoC0X50sx5mCcAYzXu1wivqk2YN98880AuG3Clclpi4xuSKqzBQzsbbfdZkwSzUkEfFWxwjKtPamjz8fjCljflOoEvOK+++6bcwg2ZRbRNYkfufCKYCfBAeVbnLIfDvn9ueeem2gFEnDLUFiZVtNiToH/ywUDwVvAfDNlIwBOAgNBkoIXGeYFwvQmghcO/F8uTwCHGN6fyZwCD0iyjcacYi6BDUwaA2uin1K+BmMFDKwJVh/vJ/PAJfJQyjqi76xTYERNy91inDHXc1VKwsAgP8KEAhLvLjrPFXmAtpF2ZsyYYaRevKgkyOVyJjAu1qlcEKBcjRdiSbGpGsecYu3M5SzBoGbfwFYwEby64Kpz0ajZ2BusU+wxuewNk360xjU2c4r3D1a/taNZcXpKrQFro+zoILMNKtsPOGyrkEEVp9RS/bvNBxwd4+jRo2XEiBHf/y8ODHCmmhp34Y25Nj888BjUpsZd2BYLFTydLqGVuPdna9yF7eUyqGyMu2i/Cm1+cf2P+7vtgSFsj82PjTRqpGMAk4ximzGePadsDwyF5lTc+Ct//z8N2BxCw7sKGVTlqlvbQ2h0nco2qDgwsH7aSC4HDusUB0dT4y58Xi4HDusU37aJMynabw7bMFtEk4pgtbCtOJbLoGJv4IBqemAI+8Vhmz0laqS72htppzIMx2xzYAjvKeQUtJmbSV6bSgOWj4WMe/CptsLJiBNkeHLw4ewEDwldEgkm5S4YiNBF2dKkhHqBm5FEJcTlYwnbAYuFx4DfGD2cAm2pd8K2CNtzStYWH2Lv6Jxypd4Jx6NdZIN2YVegclI+mE2cLsGg8s7wKrGx8G+XOcWGR0QlnFM+xN6wEeBNdsH5xY23nP8OSwp0ThxIbYWQL/SFbcH7zT7FYdnWkAp1Cm6UKmMIMDcMRRNvd/Y7wavIYTH0frvQR4ZtchilLWBPrFOso648sFE2Ap9KlNE5xd6A8WprnEf3BtYX7AVfe4M1jhyatAprOV5qlzmF7YP3O60RlVQasL4VfMC7sAnzwcEnaev9iU7Ecq+7HI71z3/+c4A1dhXA5IQZMYBYjEnwcJWQJur5558P3qOrsDjRJ02skuac8jH00QkeBA5omnht34IP9Csk6NeYU1CVEUXxnVOFKH1c51c534fRSiUuU2q3XLqIGmblrCuSN33K7vL9UqSDAxaeQVejDB1jSAFj4L0BT3AxWsJ3RV9IRHXxwkffN+NifBxqKQWsMacw9Bmnj7C2sDdQ/AEMraskUf3MtS+57vOdU2mufpY6AxYQNZ4lX8GLRzY35Oc+gscMrGO5CwlZPoY++iEURtiKSmE+QsYoiybE4GTe+og2XtSnsls4DjhhmZ8nnXSSMadiPh1gZJB8oSX0CxogH8HzTb/4jn3nFKd/EgltQ6rZ/Yf1Ahx8Rcw0QLIPnkAfwTDjgBWXnOnzjDTciyePg5+PHHXUUUFCFhWvfCXM9+CA7CNEMclBGTVqlHM1vfD5eHCZD0RCfAR4CnRurAuuUaLw+eDsgSpp2Bs43WD1SJuQN6IRhRw3blwqaTxTZ8DCdcbJyFfgROOUBuG1rxAyhpalXMWntG1UJ9C6YLCAJ/IVNk8WKV/hhK0xn8J+4NWA3spXtMYH3Qw4Nw0hYYQF3QW6E30+dGannnqq90GGNqHXIhsbuh5fSaJ0q2+f0nq/D0wmOqbzzz+/pBJdbN8HEZns6mW2bXA9CUokBGEo+AprFBhT33UKDCSwMqoH+krI6auxN+AoAR5hkuBWqN94hjk42FbEzNVmropjvjrTuN8HQhl9fpJV7HzGmToD1tedHyoDTle8dz4hlLCtcl+EfUNEoZ4wFjFgXeuwRycyXkWovDTk7rvvVvECMTY81RqCYQafpq9gLE6YMMG3meB+DfhA2BE2Y9vyzbkGwcaOB9Y2eSRXWxUYgfk0wROYj67OvBUJyNWPP/54m1tK6lpfmFN0sCSe+noVaY+wP/3SEK11mAgIHlhfo5oxwYltmyCcTxfwF8NL7SshbNG3He37feEDYX9wThFpSJukzoDVUjicsLZ1qfO9nHLf+LQODRhTVP/RODTAkZiPW9X2I2J8GgTNzKcw2cK2D9nX4znV8CrSrpaBruWJp0/gwjSiHyQR+HqEQ92XuzHlOyej94ND1zg0pHXj09KVL4492g+ifBSy8RUKn1C0QkO01mHwr4T/NeYULAKm5YjjdECymmuScLTttEKUsF00HEppNdBTZ8CSLQfpva9ofsRpdZ/76ii83zfZJmwH+iQqvfiGdmiPsqKQpmsI44srcmHyHBLTtLxJWid/EtUoj5yLS9JkTNFrqMxCNrWGwEZANTFfYWNA7xpzKkwO9O1TW7hfa+Mj0kDiTrmKbwJXVC9gKPOV17XRH1W6fHMHwudprcM4N/DA5ipGZDM2rtVaW2hLy0AnUnT99dfbDiXx64keazgSwuTAxDts+YDUGbA333xzUMXEVwjHcErDI+grYG5cSiX6PrdY91N55I477vB+HMlJnLDDcqM+DR555JEBWF9DbDkHCz2TGu0aQnIZevcVSgBqvDv6QXYw2FUNoXoOeHZfYTMGQmBKnl7oeWeeeWZQZa8i8RrQSKDkKWAMjznmmPgHlugVGsluDB0KrF122cU7gZK28Hr7ZNVHXwVRCw7IvkIyNIdtDVgKVb58E9TC8cCnPWXKFN/hBWVvfZMevTuRowGNZDeapVKm1t6gOc7UGbA+PHFRxZBZiAGrEaaFyaCcOSS1PG8sdlRG0cB2knXOJuobctKmONGAuJAcQba/RsaxJsUJ1EkQc7vyPYbfX5cuXQRjET5mX2FOAd3QSP4o92RMX11H79dK/qByE6VTy1VY74499ljvCAGQIrCrGgmneN04tPt63oDvkMClsU7hiYeNQsMYJuMfDljfvYGcDSJqPlSN4bxOgpNb45vx4c+OPj+teUCpM2BZEAhf+U5Oqn1gwPrw8/ECQyoRjcmU5jYwXHy9XJCe8/4uvvhir6GG1GW0Rx1wH9GulKLBkrHjjjsGOtII72Dk47nRkttvvz2oee8j1AmHIoxF3TdkCIUdBqwvIwWQIl96Nx+dlNq98+bNEziwfQRIkUZWvU8finEvB7XZs2d7PeqMM84IDH3fEtFUHiQig1fRNzKz2267BSwE9M21SEOoFHQEjIA1z0fCiJMGSwbRAQ7IJ598slOxleg4iBynsWgH0SvG5yO8N+ZSGgs6pc6ARdG+p4aQQJtkIjxBCxYscHp/hDw4gW6zzTZO95fSTb6e76gnEK+Lj+c79Nrw8cEn6op/pBwwC0uuuteu70ZjToGVwkj39Xxre5fRCWVkKf7hmjjFIgdpOWWBfY396JwCm4u+XKXcPYGueil0n29BmbZSBAbjDi+la/Jqz549A55j9htfz3foCaT4B2unawIPUSLWTjDovsmdUao/3zkVegJ916lOnToJuRGsV77rVNpx3r7Gflq9y6xdqTRgqeZEGTuXJJBoCTwGOH/+/KC6iUs5y3JnH8jevFxJ7EmQ4l5K/SE+pQezM8WfeeYZJ88ZCxMk3MwHbWFOXXDBBU5GXnZCoCuFGZAWSMEpk6otFADBQ2y7IbMBUx0HPFgornMKA581IIk5pa2vcm2PNZMymS7eN2jUfL1tpaRXVzYC1in4iZnviE/5bDLFiVSECZ1ACHh/GLM2QhlnPK+8w1BcE33ZG3AChRA85hRtU7rcVrINRZK9Cf/bljrGoQEEATYDhHWOdlztDfaZNHonQ/36zCnWcuwnjSRh2/dtcn0qDVg6TkUnPmybSUUSEaEKKjlFBc8Nk4xTm6mAjcGYamtiWz8bAwrddu/efQ1VwfcHqH3JkiXGKsx3koUP1oZsmpAHHx3wj6SELF/mGpAJU4Hw/LDDDlvrcjDWEydONG1GCKPhUSTzNSlx4bfESzpkyJC1umQ7p9jMKc7AOKPiMqfQtwbRfFJ6Tnu7HEaZaxzaTKWtGa+hXkg6HT9+vKmagpA6hlR2BSeYXNC5Db0TxivrbbYhBRUhzD7sp6YCawRrcbbYevLYG/iOs0PrRNboq01J2aFDh+aEtNg6OGBCwPkAk0FUMPLwDtvaG7wnok1pF5c5hY7QlWapcm09pdaADQdqGlIhmxCOTrjmcgn8enyAcXWmOSlivO6xxx7aui6Z9u65557AoIoLI8PMgEcx3weM8YrO4/BhgPvBI5GZn0+g1KJEIotfIQHrCGxEg/c17oWxqTO+OMoa5hRzsxBWlcS3u+66K/aQhVEOoTTwiKSFb4WDQ5wHbpNNNglwcmyi+cR0ToG7I/SZr/yo6ZxiTlJVLNdGnLTeyq19DmkkF8UVpsB44huGrqytCgYVe1ZcIiTsGhiKvXr1yqkq2HPI4zDJkD/wwAMD2E8+wRBmnYrjhsUJQdQR6qx8Aj6ebznu4A7OHwhJvr0BbDxrS1wRAeZUiFXN16eXX345gC3Fsd9wMAbqAfQqn/DuHn744dgS2DA9sPflszfSOP9N5xQGKzBMLcrIJHWRegOWwTPZmejgKjEaCD+wgYMdgscNr4/phs7HjHeJzZkJj5HGSRHDB3d5WPIuSaWXQtssUOiJyjBQn6ArDDGMle233z7QOf82EQwgssjROV40ToMslltssUWQuIBhR/KBiWDIYhDzHjnB87FxwqfyGlm8bAzFFrgb0dVbb70V6InTPH0CvsBCXmhDiPaV+5jnjI+qWBjreGnIliXcRTvorNjCd8c8wFAPvSaMD88Rp3QwbibCnJoxY0aAqWNO0RZeVgjc+Y6ZB6aQCO5HVyRqMqdI+mROcXBB5xyu0uw5MNFX2q7hfaFzvHo4BEj6ZB4QCQi/43wHj7SNJen+sE6xJpAMx5rA+oau+vXrF8xN07wKDGEODqHOWRMIy7P38d2xDpMsZyKsv4Td58yZE3x7QPVoi3WK7xiuTxPBEAq/Y8ZHn4D6hHsD46N/JsK3S1vQkfFvxst6F+4NrOmmc4o1ih+gE4yPsHeoc8YXQgbi+vXVV18F+1U+e4N1KjviGNdmmv6OEyAcH/lB/DfzgO+YOYUNBEa4FKQkDFhNRVYMWDNthgYsxhTGAosLBiyLCwYsHzH/LlWBHD/8iDGwoxvDDjvsEGwyxaZOS6sBq/WO4wxYdG6ayRtnwLLx+RyK2IzDQ1EQ4v3mU2n+cp60LPtAWr78MPi3rFwmLU0Znumm1SKNq6SpYWXm14rgv9tV/RN3uLq5WhqlTqrrMkTu664vNfUdpapuXZH260tVh65S1X6D4Lfw73U2lKpOm0lV5y2CwwIGEMaGz6EIY4N28h2K0HmSUBStuZOvHTCVGIsah6Kk++rSPgYdBh5eRoyN7HWKdRjaumJKtgGbvTdw0DY1YIvZb9NnRQ1Y1hlYUEKHGQYe30xrGLDsVxjoeNJx4uGdZp0i8sV6l0S+h6nOWuu6NmPAciKjpKhJuLetQwgmTJgQkOybQAgI95p6AFprkmc/l3DT5MmTY7sDLAUKElNDKLbBAhfYQAiASGhUFvPpr+29pnNq9913DwizfSEE3M93XAhCkAuWsl5do2zdeYX07vytbLbuStl4nZWyaceMQVrdZDtkr+vnf91BPvmmvXy8on3we/6KdWRh5ncoJuFeCsLceeedRuFewtmmUSyvgSnebBrujZtTil1SawrMKolTGhACtU5lGmJfuPfeeytzKrNO8c0UY28whaVgyLI3mDoBNOdFa7XVJgxYvK6AyTlZmQr4uREjRpheXhbXkY1J4hwnflPhYyFJoBQ2PzyA9DUOBx0dO6dakrVMw1imeguvI4MWbK9NtTB0DUtAKXjOyICGicBmToELJDkie07hKef/2/AVg8kkiYvM6qiQNT7+jj8HhupWGYN1K353WiEbdrDL2LZ93z7XL11ZJ+8s6yhv8/PlerJgRYeANzQbO16ZU2trmTlFhn4pHLZZp0hymjt3rvF0ITzOPUkZVOwNcDI/9dRTxn3i+2W9LQWDigMDrC548k2FvQGdJzmnbFlqwBzTp0I4X9PxlcJ1ZW/AsulBJVKh0YqfjrZZpmGL4BYpOhBSHsU/qfhXgPfiw7YxXsNekjiFwZgEptJ2gQr7BLwBmqm0bw62DATh+Ei44DAVZlX7ULORVDRq1Kig6eb5z8gH/zNOGhY8K1t2+q74E1Hxid82VMuby9aTbj8+Qvrtd6ZIBoKAmCa+ZneFOcVho9jQGRuVYEjRx7iEslxtZs8pm+cW61pgRDATuK5TOGqSoDxypdFib8AwTPucwtAmPG8rGLFJ0Wi5UrOxD0MLli9B0HaMab6+rA1YPBHnnHNOkBDjIvBajh07tqSxnqbjdqFNirZNVibZ8WkV18UgHE/UCNIaI/PSR2eEjDTKIGqNJ7sd3zkVpVVjgyEBxVY2zcAAftx1uRy1y8bS4cs3M/jUDGa1TKVqwx/Jso4/lv+ckElyXJ7B2ToIiTxw+aZVnn76aa/qimGRm7SOz/VAG44nCe5yEiV95kRlTtnPNiCPsBzYcnGHT0qiyI39KJK/o6wNWDI3fcua7rXXXiq1oJN/lX5PwJByNfTDJ6e1nB79Aw9J4parACGgnJ5miA4PKjhMH8FLaZrR7PMcl3t95xQeb/DK8DfblDXdZv0VMqTHFzKw+5fSpT69kAAXnZre83VDrby0uLO8sqSzzFxkl+RDrkAxaOhMxxK9Dny0DX9o9jOYU9BTJRn2dRkX98CkgQEaR1FVqH08nfBKa8pFF10kFDfxEWjY0pr0qzGn2Bs0I5BUa7SBa+R6Nzg3ClEb+rzPtNxb1gasb9k6XhI0RiRCUFqvXAVKHADpvpLWknO+pRBDvYRlDH31FG5WxxxzjHOZ3LAPaS1jqDWn2NCh0XvggQcKqr1ddbPsuslS2afn5/KD9UobGqAxv6JtfNNQI9MXbiBTFnSXhd/G09VlV8PT7o9re76ll8PnZlfDc+2P9n2+5bzD/miWTQa6o1EIpDKnzGcLpdPJwYlLoo5rMVqKO+7aUv17WRuwTAIX7Gv2y9RcENI4UcjIx9PlK2kNaUOYTTUvX9l7772DLE8NIamJEou+AsZM49359iP7/vvvv1/GjRvn3Sy0NVAHQdWTS3pkWAL27blYdt/0C1mntrhMAd6Da4UG3vtyXXny424y87MNAoqvXIKnDI9Z2gQCfYp9+EpaQ9o33HCDPPnkk77DC0joKZyiIb6QjbAP8KyPGTNGo0uqbeCcglXBV6DW+s1vfuPbTHC/lsMFj7DG96IyqIQaKVsDljDMyJEjVdSW1hO7yuAyjbgC9LOfv+GGGwYZ9WkTV/xk9jg0DXRfTG7YNxI2KGGZtgiBa0Jgts4xpuBhxCsRlYHdl8u+my2S7bp9nbbpVhL9WdlULX//dAN5/KPu8lGGzSAqzCWb0sbFGjDQhqlTp3o/DvYOQrRpE8pfuyRvZY9D00D3xeSGfSOSCZVe2kRrTmliTh977DG1AySOhCSSj9PyHsvWgNUKYfKikkjgScsEoB8aUAvaSevGR/lACKl9RdMzpXVoYExknRebzDxOl1qHBlgIoqG0oZsukYN+8Jlssq55bfe4vrb1v7+xdD154MMeMifDaBDK3XffnRh1nKu+iYRRHclXwL9qRAd8+5F9P46SfJEGm2dpGlNaBh79T6MxpXVo0HTeaB0a0Dn7TKlxhtvM9bI1YKEjOeKII2x0kfdaEkiGDh2q0lYaG9EypjQ/Yk09aRlTafTAwpQBPjQJ6hyfd6DpgV2+ZKHs2eNTGdZrsWzQRpOyfN6F6b3vftlRHvhgY3nvux6p9JZpzamKB9Z0RohoGVMVD6y5ziseWHNdla0Biwq0MLAQ2VOrvVylgoE1e7MVDKyZnkJvi6+Xi6pYJw1slh06vCMdatomm4C5xvWuXPBdZ+l9+DVSveV+eo0qtFTBwJopURMDSxUoDexqBQNr9u64qoKBNddVWRuwGqFxQpgAodOGMTR/xfFXasEtKiwE8boOrwCjfeyxx5YtC4EPx237mmY5fMuFcvAWi8wVWrlSXQNVXbaW2kHnSs3Ww9XbdmmwwkJgpjXNpOMKC4GZzjXzZMD7w1ADrZqPVFgIfLSXgnvhroPDzkfSSlPkM6Zc9/76178WNggfgV+RGu1pFOiYPv/8c+euderUKcAThZWhnBuK3AiH67PPPuvVVJp5YKEde++996zGN6THUjnmh5+0Wf5WK2UV6eLqjXeUuqHXSFWX3kV6Yv7HnH766bJgwQLnfvD9wtpByc20CVhv2ANsSp5nj4Hyrbfffrvq0KgM9vLLL3u1SRlaKqGlUTTmFHufJg+sBlymwgObxtlm2SfKvM2aNcvyrn9eDnk9FExpXOycBlTgpvfff1/OO+8852bTnuj23HPPBSUNXYVEMIpaaAr0UPDvgtd2kT322COoNJdWefvtt+XCCy806l7Pjt/Jaf3ny9advzG6vnJR8TVQO+D0wCMrNfFcskn17rXXXgtKQrvKiSeeKIceeqjr7YnfB3m9D0MCZdMHDx6s2k8ODBQlaWhwg/EceOCBcsopp6j2SbMx3zmVRPUziregM1cu2EGDBnk77zR1nFRbZQ0hQGlMALyLH330kZUO6+rqgprU2267rdV9pXyxK95p4MCBQalBEorSLK414jUxZdn6oTwqFblsSwZSg5v70k6R8sgjjwgV2vLJOrWNMnLrhRkuV3fveJrnXLn1rarjJlK3539K9ea7t9rQXCnodt11Vzn33HNTv065JtUm6URgncKjR3l2GyHx9fLLL09dkmn2GFx5q5lTRJqSECLIl156qfXBgb0Bx51mtDCJ8Wm0WfYGLEqikg8fEV5GEyFjEuhBuZdhy6WLJ554IuCgMzWodtlll2BTwOAvBbFNBBk+fHhQ3rGqqiqx4b344osBldmqVWbUUMxLDgxECEpBmFNjx45dq6t7bgpcYIF0rKsUICiF9xjtY3XvYdJu18szYaqNW6XrDz74YFDa2VSInpxxxhmpN14ZD0Yi5WAZo6kkabyGfaBSGLRa2ZzM+fo4YMCAgNy/vr7edBitIV8S7QAAIABJREFUel0a5xRGLLaL6d6w1VZbCRjothA1ZrK0CQOWgeKJnTRpknB6X7FiRd4PhfALyTWbbbZZq35MrflwyLQx9Ait5BO45Q4++GAhPFRq8vzzzweJefPnz8/b9V69esmRRx4pnLCLIfPmzQtKFmPM5hP4Kw844AAZMWJEMbqk+ow33ngjGB+wAtgFTu3/DxmUKUZQkRLWQAZKUDfkd1Lzo+NaZRDgMlmnmFOF1im+43322adV+ujzUAxGipQUWqcwWI466ijZaaedfB5lfC95EnzHhfaGrl27Cgf/NEM18g2YOcX45s6dm1cn8IFD0Vksak2ix9CZAYPLJx07dgz240MOOaRkDgzGk67AhSVnwC5ZskSWLl0qbOauBL2vvvpqUPGESYphy4Ts16+f7LjjjkG7tgLonmpB7du3l549e9revsb1tIPHmEUAQL6rMC7aampqkh49egheZVsBowl+mESchQsXBrqBDmX77bcP9OUitEN5X5K9fMj3yeL/7LPPgtAU43M55VPcAGJ0xkeCFzy2kIBTvhSuyNYQ5vbs2bOFLH70z3tjfuJ13W677VqjS98/kzn16aefBv+Nzl1CVEteeUDqZv6b1DfnP0S26iArD7fWQPWW+0q7va4VadfJ+l6NOcWcZJ1iPeffrCuEUVmnttlmG+s+ad7AWsc6xfpE2WcXyM8HH3wg7FmMLy3rFGsT6xQGLWs6Sa4Y02nYG8jeZx747A3gfjFm2RvYR9mPmVPQaTLO1hDsAnQ+Z86coOAF6y99YW9wpfnUsjdaQx88syQMWLxSlBDkI8ZwCYXFgA8GL9luu+0Wq0PunTJlisycOVPeeeedNa7HWAT4DOuAifGC8fP4448HCydGdVT69OkTAOk59ZuEeadPny6ctjnVRhN6uBejmvGBM40TJvijjz4a9AkDKCoYQZQYxGNqYhjzkVCXmw8GQHlU0DnQAXQVJ4yHd/f3v/9dCIdEhTBHqHMWhzjhowVTSZ/YFKKy5ZZbCvWo999/f6NsUE6z06ZNC3QeBcqzKLAYMJ9or60LczucU9k4crzUzMthw4bFz6nG76Th75dK05vj27pKy3L8K1rWk6U/vkS2GXJ07PjU5lTmSewJTz/9dGBsYCyGAqSJ/AWohLSTL+MGWGidYp1jXWHtNNkb0rhOmewNe+65Z6yxHrc3sPfBvW3iLMEQY2/AVsiuZsbewD7DOmXioNKyN+Lmic3fi2Vv4LwhOdjE3rDpf1LXptqAZaEjUcUEu4qBdvHFFweeoVzCQkB2pwm3GoYneKl8Ykp/xAJFljgfTy7BIADfwscXJ3gSwD3m+wDB7xD6MMkULYSXwshH59nGZq7+bbDBBkIpPryWuQQv91VXXbWWAZzrWnQEGB4vdi4xTWzA03HyySfLvvvum7Md5hSFKUxKywIjIeM535yKe2el/ncbTFihOdWy+FVZ/fgvpOUru0TKUtdfW+z/MysGyK5n5i9Dyxp17733GqmmEGMAh2oSVUyo/4j2kNNg4pgw6liBi2644Ybg4B8nRFZgIMkHUcKDyN4AR3ecYKAxPhPHRFxbhf4ODhOsfiGYU3g/zgmSp/NFjdjTeX/Lli2L7RIOE7C0+Qx+0znFoQZ+1XzQBuYUOjeh/iP6y36cpjmFfs4888y8jhfmFHufSbli7A0YZJKeU7EvP+aC1BqwGHeAkQmpmgofDQZHtkHlkrXKCYQPMGpQYdxRlhTDzFTIzIfkONugog0+YBODOnwWhhTMCFGDCsD/bbfdFuB7bQQjnX5FS5Bi3NG+DWMDBuMFF1yw1okNj+s111xjDPin73gneH9RIx2DnHZmzJhhM7ygCls2VlRzTll1psQu9plTcCpGE94aX71FGjOe14q0HQ188G036TFygmzQs+/3gyYpFC5QaKJsBGPjhBNOWGNOsRGzN2RHYQq1y+YOxVRSMByMO2j6qKJkI7mMdIw7ss9t+GAxNHDgJGVQYdzRp0LY0OxxU/wH+q1sIx0d4SSxoQ8k2oNxGd0bfOYUeo+K65xCJ/kcODbzINe1rnOKNTjb3nCdU9g7aXbgpNKAJRREZruJZzL7xeMV5OMIlc5pEUPRlv6DdnfffffgA8QI5WPhZZqcPrP7xP0snoTwEQwp/jsa8jKd7JBBM76QNNmV/oPnHX744XL88ccHjyaMzinexNud3VfC7iwu4YdMwg6GsIk3OLstNhgWhdCw9iF0xvtNOAShogwnStc5hRHN3GoL4jOnop7Yhmm/qUAG2sKEyTHGb5rayToHj5MOPxgS/JUklAkTJjhpI1rhjzWTtdPmkB0+lDUTKiiMIU1hb2B9AAZmKxz22GPCdQqjHG8j65WtgLHFiNZepzA0Wc9tHDdh3/F6sl+FewP7C/uMC79pNnWgKy0ifYtyt/rOqT/+8Y/qRp7vnCIyGtobvnPq6quvNoLl2c5XjetTacCahovzKQD8DYsCHx6VTUzCFPnawmgFS0XmOoufq2yyySYBlRCGGW3Cq+cqoZHAIgfZsc1JNvpMDGv6BPzCxUsdbQsgecgTiOGYjcG1GevZZ58dZHj6lCPleXhdmEtkaGrNKZtxlOK1GnPqjj//l6w783xp/mh6Kaqg0mdFDbTb/8+yaJ2fBNEeU2q+7MeT60D1LAwzH0OYdtnUCf1qCgd2nzYZF+NjnNBUkTPgKklwVoMxvu6661y7FCQaYQRhrGNYuRjC4cNDwxOPaVrmVBIlWzXmFJFZ7A3fORV1dDlPgoRuTJ0By8mME7cp71k+vWCw8KH4fHi0jUcQD67vh0dbYDy32GILwcXvI+Cnxo0bJ3fffbc88MADPk0FyQRgsdA5SWA+AjYYijI8qD6CQQ0XLXgroAg+QqiIRAA8zS4e4eiz4WbU9m74jC2JeylD+dBDDzk33bX9avn9boulS0s8rtv5IZUbS0oDr9buKb9/1I8yjU105MiRwTplA7vKpSgO7b5sMdF2gTPAZuIjGGPA1k466SSfZgI+bjyTHNq1hL6Z4CYLPQ/sJZE6YHk+AhsA/L8+kbnw+dCP8aMxpyjWohlqx0ttkodSSJc4kkiAw4nnI9gb6NyFdcbnuSb3ps6AJQyDS95XOKmRmeq7sNAPPhaMPF/hpAbgHuPTV1g0qb/su7BgkBGyAsfqK2wy4IRhZ/AVkiHok0uoKfpsQldwEmrMKRZyWA7KVYDZgDd0jVj06vit/HbA+7J+fWO5qqgyLkcNTF+4gYx9cwvHuyWIEpGc6Xs4pgNRSIJzh/73RoxpEoNMyf3zPY/sb7hcObj7Co4SLf5qksg09r6QdcHX4YJucGwAS3Bdp0L9pnVOEQVjHfYV5hTRYw17Q3NO+Y4ren/qDFhOMtBh+ApZ7VCsuIbXo8+HIJgQu69wgiG7j375CklYUIJpCNRakydP9m4K7zKec3gBfQVCZh9PYPT5LOYu+LTsMSQRKvLVk+b9hOVOPfVUpyZ/0m25nLPdB9K+1q7UpNPDKjeVpAbmfNFR/uPV3vJtY61T/0lMoaqbr4RwJ992uJ+EJA2jmrZYX3wjTrQD/AoYlobElYI2fQYQOiASJuwvcW1SzEXDRuA5UKzZJhbm6h/Ui3iZNQTGJLDMvkICOgasS95O9rPRueve4DuOQvenzoD1xYeGg4UCyYSCxES58NHBPaohfMgaBl7fvn0LVqCx6SuTHMyNrxBqWLlypTPWLfp8TZ0D/ndJTsvWB95cDU+ur56Tut8VdzV4oy/knO3nJdWtSrtlpIFPvqmXK176oSxd2c56VFrrFAVLwAdqiG/uQLQPWnuWpoHumzsQjg9GAgxYX/gH7eFZ1Iis0lb//v3lrbfe8p4KIezNu6FMA5pziqRvl4TH7HEkgR3X0FXqDFgNPBGK0VoMaEvTmNIyYLU+PM0FAQMWj7dvOI0+7bDDDgEEREMqBqyZFl0M2CE9vpAzt60Yr2YarlyFBpaurJOLX+wjn39nZ8Sm0YB97LHHVML+6IUIFiWlfUXTgPXJ9I+Oo2LAmr9VTQMWrDdVxXyFQ4NWpMG3L9H7U2fA+mbMhYPDpc+GTClVXwG/o4Hr5COmSpdPFmY4FpgWfLJVozrRCs3BQQgGlnKHvkLVFCpAaQjYMlgkfCWtp1DfcYX32+Ld9tx0qZzW/x9aj6+004Y0gBF7yextZNG39cajhmrqmWeeMb4+34WaBp4vO03YRxhhcJRQRdFXQhYe33a4X8uYwuuNB9Y3Z4M+aYX9aYuKi1TC9BXNOaWVB8ScIgldA7KoOad8dR29P3UGrNaJloQiDFiTqhpxCoUgWgPfQggaL4IGkP20004LKtq48AVGx4tRDUBbA3MDhotMfx+KsLBv6Bu9+wqhHTBhGkB2zeQP33ElcT+ecxJSTMJ8+2y2WE7u53+yT2IclTZLQwNfrqqVS17cRhZ+m7v6XnQU5A+w5o0ZM8Z7cCHzindDmQa0Em7Suk65RGVy6ZW9AdHA+MLnDS2Xb6SvS5cuQbGbm266yXsqaFJN2ToS8nVe095IawJz6gxYqkH5UonwQiGWBiczfrxf7XUwJFSQYfH0xa5C6YQHlg/QVzDIGJtJ2cJCz4K6hepXRx55pDd1GWwGGD+U7PURKGDge0RPb7/9tk9TQdlANiwNADrMCNok6F6DS+Bmvptp06YVbPmAzRfJ8X3iS1wm0L1Kk2Wmga9W18jFs/rEGrEUlYHzetSoUd4aoOgK5Um1hKI7NhWqcj0XOqchQ4YEpUB9RZvSCZ1Dj+gj6AgPrK+jhMqP9913X1A4xzc5CXrFY489NmCl8BUMaqBqWkIpe1/sKvYGDjN07yvYG/nK2Pu27XN/6gxYBuPL8RbiNTCmWPRsSvJlKzOkj/B163fq1Ckg08eT4IvzDT0IixcvDgxr15MoIYarrroqYEbwqb6EzjjtQW+CsAj74G5CsmrfDF90DUE4JYZ9OWXLnYEgnPcsmmeddVbeRLzDtvxUjt7Kn2XCZ9Gq3FteGvi6oVYue3Frmb9inZwDY53iUIwzwReTmUQipu86xd4AN63GOpVEqNd3bwCHyeFfY28Io2DvvvuuF6cskUcMfaANWvaG5leZRntDc3xabaXSgMXgxHC0qXUdKgReUwj1mZjIjBkzAiPNRcBcQQYcCgUNXDFKGK0DBgwImsKTC6GzaylZxkOVKcQHoxQt+0nyFSUaXbL1MRQ5WZOEgOA1hYjZpXBAWDgi1LkPrRqGGHgphCIN8Mq6zinYB6g33hYEaMqdd9651lB/lknYOquSsNUWpkDRx/hNQ8YTm4ETLFjRYa1n40kikoLglOA7dvFOUUqWgyzhem0B2uCKzyVytfPOOwddIgLJ3ucCDdtoo42C0DoGsba4EutTWIF9E9YchOqK7DMu/N7ZpWRZo1irXCRaSpa8DaJ9rnMKe4PkbG1hT4VSy0Wic4ry6XhhXeyNJOeUy7iy70mlAUsn4aTko7FJCGKBgoaLZKKokAxki3MBUJ+NwXStCc3kIQQWFU6QGLUmeMPwPmpdU64125By8UqQuJVdEcylJjRhISAI2SE5cLC8CxthgWKxy674wQLx7LPP2jSVk6ycOUVFtaVLlxq3lW9OGTdQohdSeeXBBx/8vvc/XH+FXDHo3RIdTaXbpaABqLUumNlX8MiGkgtbiJHHd2xzGGVNAVdPtCkpoX1bukUiaCSsRgWuVPY+m8ghjhvI/TWrQUX7hMFJn2wdHJTYJfk1Kq+99loAAbDhaMf7zvhYj6OC59qWG7hU5hT6wYi1nVPs6+zvUeHggD1jM6dwAmJvYMSmVVJrwKIwFiq8jRh7ccKpmheU7wPGJU+VE05bcQI2phAWCW+cCTE+XlI8uBRVyCUsVBh5nJDihNAXhiJhplyCscGJ1MTrCd6KZJ1cgn74aFhk4oRFkwUqH/aHUngYn8uXx5eRBIuLZwWMUy6Bt9GkmAT3U7En+wMO22ROYSTzQccJVGzoPKlNIe75rf135hSG7IbtV8lVg9+WjnX+jB6tPaYkn1/VuZe0LJ+f5CPKvu13lq0bUGwhUc9r9sCJqLC5vvPOO7E6YSPGWYARlLSQL2FSYAbKQSpc5auYxWEbI8+Ey5zIF+tU0hEiOL7Z+0yikOxTeDXJzs8lJFfz/kw8zUQu8UqHUcfs9siXmDBhQuyrxRvMnKJwTy5hTrEfm9gb7AnsfWmaU+gHuyX05mePkTnFIcuECQJ7Ay9u0nMq9qXFXJBqAzbsO2BtwjMkZUUNULx/eP5YBKDDiBPuZXGZOXPmWgsfLwpDE3xptgc3V7sYn1Br8TFjFEWFRK3BgwcL1bLyfXTR66HxYHxkfEYNUO6FDgxcEwZenPAB4m1mfPPnr7mRYuBzEubjNZmUc+bMCRLEGF926IEwP/rG0I8TTpHonFBINn0YixyebjwQJgB4DH2MWE6k2d4X7md8lHrNPqXn6iP9Qe9QjETDWXhqmFN4zPMtBHFjLqe/L/30H9I8cbis12LutS6n8duMpf6kV6SqtoM0LXxRWj59Xpo/mSnNn+lwGdv0o9Sv/aBuoGx0+K1G6xTf79NPPx2sCdG9AWOFBBaw6yGMqFh6wUCgUhQUW9l7A+sU60pYWjWuT6xTjA+HQtRjGa5TrMEme0Pcc2z+jheWfQadZzsn2BvQOXsW+3OcsIcC88t2mIR7A+Pr169fXDOBEwidYytkG2iUb2dvZ58xSUTSsjdiO21xgba9gQMue07Z2hsW3U/s0pIwYKOjZ0EgBMxE9HVtk2jEqZJ2XHBDGIx8xBh7nJQ5VW+11VbBqRPD00bIYsVAZ3HgVEqfOAXx4dl4ABkPExPvJ0YsCV4Y5BQ+4CRLH02FJDHGh5cD3C6LCgswBl6IaTJtK7yOxYWMVsZnspjka5/Nij7hcaWtfJ7bQv1jUUDneAOAqmDYE2IkCdDkEGM7dpPrmdvoHA8x+ud9cfhgM+an2LJ64uHSvNCfQ7fY/S728/C+1h+bA6/W8G3GiH0po8OMMftJxqhd+EKxu1aSz6vb7Qqp2fZEq76zbvIds5bbrJlWDzG8mFAtyV3sDWArWZ9YU1g7w1wIw6aC8qsUdWGdYv/Do8ze0JrrVLg34K1kTffZG9ARexZ7IHoDT8o6jHOje/fupmoK9hXWcyproTMStdA56yZ6p7SqqfDOaIvxMVaijaHOe/fubdpMcB2HLJw37Fc4S9ivsBMYn80eqG1v0C/mVNTeoIAQSXelIiVnwKZBsVRLIWSBpzOfQAV18MEHB8kHhU6ieCcJ1RZy6zPZCfkzufIJk5tsUfBAq1atynsdJ1poUbp27Zr3Gj42xocRnE+4HyxRvnBMGt5Tvj7gGbnrrrvW8lJHr4cuC2qxfCE+7fExp6BFK4R3YrGjJnXcnNLq24pHT5faDx/Saq6s26ntP0pq9/hPozFyIGicdY00fzzD6Pq2etHqvW6VTn32L6nh48hg7SwEMeNQynd8xBFHrIX3jw6WNqCMyo6mZa9To0ePFoq1FEMw6Fin4vaG4cOHf594l69fkydPDjjRC+UkYHjC1ZoPikDb3A98Dk91PuEAgdebPauQ0chBgbYK0aLhUDjssMMKRiDZgx966KEgYliIggxv/MiRIwvSM2JMs1+Z2BuHHHJIQWcOUUfmZ5y9wZyyPWgVY/5lP6NiwFpqnVM1YHJTADqnPxIOsqEEzc3NAb/sU089ZdyDfJgwsC1gvEyTGvA0ghfO5WUENgAwnv6ZCNyFv/rVr4SQXSmIKV4qHAvG4gknnCBVVVWJDU9rTml28IsXbpV1XvydZpNl3Vbd3tdLzTaHG49x9aRR0vyRfwUg4weW4IXfNdXK6gPul422iodPpWF4HPzB15sm5hLNAruabVC1tLQImP9JkyYZDwuDA0MvSaEIATzRprSNQBtg28n2fAKTox2gAyYCjRpE+rnyGjDu2PtME3PxzF9yySU5PfS2jD5ABOlXTU3NGsMgOsh7NeUGxrgm/yMXFIQ5RX9N7Q3mFDjXbHuDOQWVmYa9YfLOinVNxYC10DQYVSamqXEXNp0ru940ESy7e1H6D/6G+x+WAxMwfLQtcKL0IRpqc+WeA+aAkc5Ck2ZxYWtgPAcddJD8/Oc/T2Ro4K1IHHCZUxykTHBmth1f/MFLUj85c5KvMTvE2LZfjtfXn/iSVK27sfHQVt78Q5GGwgmlVR17SMuKT43bLMcLP/muo6xzzLRWhwTE6RboF0kvJkm00bZIAiLRNcq8Al/4ww8/HPfItf4epUW0vjnmBtYpjHMMIRsBE3vppZd+b+RR2p3kLZciBCREQ20ZCsYrlFy29FDAATCg+R2KK9ctuRLRQgGubA3snRie6CsU7A2MV4055cp1m/bqkxUD1vBrZIGCRsSFv45HRD9kV0OKdvAE4vHkQ3ahvYoOF1ouGAf4kF0NqbA9APJQwqRVbE/X2eNI4kN23fTCviVxcGBOffanQdJzna/S+ipT16+qThn863HmfI0kdq2+/6DYcdQNu01qttwvwM3+Ez+b+fl0lkjjyth7y+mCqYu3kCG/fswoObM1xu1qSIV9ZW8gIsZh1NWQCtui4iDwBE1xNaTCPmDksWdhpLk6bmiL+zFYSdZ1ddyEfYoeHFwdN2Fb4cEB4xwHV3aysum74BADTzHwNeYU3msNe8M26pjd3+yDg+l4inFdxYA11LKP0Rl+fITmAeDjzVu2bJnhk9e+DDwQp1iwnPz2kbPPPluGDh0aeAHhbnUVQhZ4DsD+pk3wGvARmlBn5es7iQXQsGlCCVw9LWEfWdBvv/32NTwJvrr/x8RzZOOFbuTgvs8u1ftr+h0tdXtebdz9xpfGSuPM+O+2/anvidT9s2BJVDCAMWZbMolhTQszBu1qvzKfxh1vxQvnbnOZ/Gjvf2nFHuR/tK+BQMsUICBbHmotIGGuQr4EbWmuU9dee61MnTrVtUuBYf6Xv/wl6BMUhyZUlvkeFlZEBO963XXXOfeJG8PiQkQPXY1O2sEBBOSDZC8gBbbRtOggQo5ajTnFfoWTyndOhfaGl7ITurliwBooFgMIHKSP0cljmJxw9nEK9RVCAhhAZEr6CJmVfMCMz1f4eKGxSpv4lh0MxxOtpuY7RnBk4NZcT9jh8zXDhi2LXpZV98V7Bn3HXm731+11ndT0OcJ4WA2Tj5WmfxQ2CKq79Zd2R08xarP58zel+c2/SuNb/210fSle9HVTB9nwtNki9eunqvtaewMJRngWCbf7CpAErYIN4HlJIDbFvebrOxEsnBwYVb6CMYzjhgx6H0Hfxx9/fGDg+Qp7KPsMSWk+gjGMU4J8Fw17A+NTY05hb8CLnjapGLAGbwQaKUDWvkL2IhyxhbIlTZ8BFpZTn4YQdqJkq68Q0gZmkTbx9Z6H4yGzFg+ChpDtCr7JV8BX43HxloYVsvLO3UW+cff+ePehRBsI+F/XMaf7McG/1m5/stQOMTdmGp//D2mc7eeRSrv6W3ruKR0OHp+qbsIeQhTLV0isJSPdJnEr3zM1D7UkbhHW9hUMKTyxrHu+whp86623+jYTUBTCNMP+4CskmOHFNSkSEPesM844I0jw9hWihsBT4Nr1FQx9HHBpk4oBa/BGHnvsMZWTI9mKhIlsy/Hl6iKnR5+Qf7RN8LSudbyj7WCga5ywDV6J1SW+8IjwYfAuapxmac8Xkxv2Ca7DiRMnWukj18UNT54pTe/6t+PdkRJroKrT5hn8a346vezhNC96VVbfF49RrBt2awb/ah7NWP3AIRl87Islpj377tbtcZXU9M9dRdC+Nf87fPGT0R7AHQ43p6+EYXbfdrhfI5RNOzAtwFRjUxo+X/+hNjSphGkyfujHgOL5Co6EDz74wAs+EPZBaz+mPfjf4cX1FQpTgGNOm1QMWIM3ovUR8yj4U00pPwp1DayTKU1H3BCh+gKo7yucaE1K+vk+x/Z+yhD6hpt4JrRj119/ve3jc16v5RWm8bvvvtuo4lu+jjf/40lZPfkElXG1tUZq+o6QuqHXGA+78ZWbpHHG5bHX15/8llS1NwyXN62SlX/aMrbNsrigpr3Uj3xSqtZPx3i1DqK8G0K0JqVj496jJmbRNXs9u484b8DA+kIRaJfKXBQ/0BAMTw2HEqF/WyagfP3Ha1qIZ9dm3GBgTek1C7Wr6byx6X/ctRUDNk5Dmb9rLlJkGBYipjboTnCJ1mmdtrS8uZyyx40bZzqEol0HdtUXK0xnNTcG32zjUHkkcoG7yuYiNFZuJqN95fifVaADxgpb80J7/OtxGfxrfsJ1Wq/u1jeDfzXnh25e8Kys/tvRjiMovduqN/mptDssHdECjWSi8A0ALwOu5iuaxobWQRvnBhACCu74ClA1SpxriNY+CqsBzAEaApSEEsIaouXowkb47W9/q9El1TYqBqyBOplM0E35CjQZGEEuHHjZz4YqhdrPGgJZP9XAfIWPBX69tMmYMWNUIBLZnH8+44RQWsObi0f/jjvucO5K48wrpfGlG5zvT/uNMARQMCApPtX6E1/O8L9uZKyGlbf0ybAGfF3w+trt/yWDf73MuM3GFzL41xfLG/+arYx2GYhFtQXEwliZlhdSAhXqJF8hvL7LLrvItGnTfJsKKkSdeeaZ3u3QwKOPPio33XSTd1sYeBy2KfHqK1S4xKmkIRQjoBqmr1CEAAysb1Iu/aDKlwYsjAISeHM1jH3sDXJl0iYVA9bgjXBqJCsQnjcfAUcCC4FG8hW4TlgIfBcE6jJDwA3NlK9oJg/49iV6vwbdGO2FlGMafWNOkZnrKz7YpJZlH8iqu3b17UJq76/eeAdpd8Q/CeFbls+Xpo//Li2Z8q3N/P5uqXe/qzr1zOBfzfFzzZ+/Iavv2S/2udb414mHZmi1dDxSsZ1LyQVVHTeR+hNaH/OLwQKDi6/hgocLPKYvNRSvh4x4rdKyUHppGC4Ug4GFQANihkOCXARfby6QMJKTNPIaSKrxHslHAAAgAElEQVSGhYCkNx8hksaBAU51X3uDOUX5eY28FM055aOf7HsrBqyhNqEmefbZZw2vzn0ZlZNIdCKL0rQ0XK6WqJ4FawC1pG+55RavPo0aNUowPAFo+/Ck0gn6AuYmjcIm44NRYvHl4EEoTEs0ksuYUwD1XWT1/cOl+bOXXG4tiXtqB5whtYP/NWdfm794N2PIzvhfgzbzO8YrmquRmr5HZfCvY4x10fjKLRn8azyzQAX/aqbS2p+eL7UD/Q/eZk/LfxWRFJsSnblagr2F6ByGkA9PapcuXVSy6qN9pG++mEwMczyCvsYwSdDw0oL758dHTjnlFDnwwAODPvlw7wKNYG9YsGBBcHjwERLUyNlAX75sRVT2AuPry70LQwbUXmmUigFr+FYAep933nmGV699WRQ/6UtgH3oCMYL5CF0NM4wy6Ej47eul9PEEOivV4kZfHHMS3mXNOWWhiuDSpvcekoYpp9veVlLXtxt+l1RvvrtRn5sXvxYYtMFPpvKVNH4Xe1/dXtdm+F+PjL0uvKDhkUwUZ17hcGV11z7SbmRhjGz0gc0L/p7Bv44w7kO5Xdg+A+EQCwhHEuOHOun00093zkDHKMOrSJKTb8JwdqlxjfGS4OuDf4ziJ32LIoSewBUrVgQFgVyNfQx99mGMT18cc7TUuG/CMPphPjCn4FV3leic8sUxJzGnXMeVfV/FgLXQpGvizXrrrRdwdYbeSdd6yXQVrA2LCXgihJMxIRDbeskslpysaS8U8KsuGCxgCNzLONMqhGNI5nLxJHD4gLOVxU5bXDcssl7BZTt5vBu+kZV//anISvdqcNp6SKK99qe+n6lk5eYxh5Iq8NBmijs0fzpbWlYtX6uL9Se+lMG/mkccVt3aX1pWFk5isce//mcG/3ptEuoriTZrtjpI6vbzx2j6Dtb1gExeBNE9MKIITgnKpbpkxrNOXX755e4JnQWU4Op0YW+46qqrvq8WSKlqHEEumfEUe4gWHYBGkoIGFJOwEfDGrOew7yBUzqIdF6woHs4rrrhCeI8InlyMWMZpK9nlyl3nFPswkTmNOYV9wKHBOUnYVgmW11cMWEuFkWWPIWsqnTp1ChYVsK9RAb/D/7dZqMi+pKBCtiHFh0x1r1WrVpl2S84991whKSlbbGtVY0DxAXfvbk7kbtxJ5Qs5ONBXG8owNgUODHipkxIqy9iA9kncwhgHw+Uijc/9uzS+/F8ut5bMPVH8q0anW776SJo/eT6TEDZVyPqXduvZ4V+XzJHVE/aO7Urd/rdITe94ntiwodVtEP+arcR2h94v1ZsOjtVt0hfcd999Mn68eaEF4EgYUrAPRAXvIt+3zd7AOkUyWWhIJTFWW0ot9gacK0DeokLJVfpqE7an3HmughHwl+O9NhX2TvZQ9tKocHCgYIONEUvSMu+pc+fOa7QFFI//v3z52ofefP3MF+GznVPYGzwbw9p3TuWzN0x1XYzrKgasg5affPLJgC4qboKSAUhoKfsDDh+5cuVKYVGI83ry0RGmAHCeT95++20ZO3ZsLJUH1TmAHQDuzif33HNPYFDFJSZA90GYI/sDdlBpUW8Bqwt+OE7IUKUqSjGEail33XWX0ZwCrwwuyUlWfiEr78h43ZtWOt1eKjcVwr9qjKHlqwVCEpepNL52qzQ++7vYy+tPfjPD/9ol9rrggrbE/1pAI1Ub/kjqRzxhprOEr8KgImQbB+vq27dv4E2EVjGXsDcA7zLJkAfHyZpeDHnooYeE/SEudL/jjjsGBme+vQEHDslKcXRRGORHHXVUwSpQVPdiTV+4cGFBFeCRPOuss4Ty6fmEd/fwww/H5qgAmWPvq6+vz9kUxjn7cVzED/2Qn4GBnk9M55SJvWEyp0zsjWLMNZNnVAxYEy3luIYTG6c1KLGowEFIhI8NA5HTMMZd7969jVrnREqCGJQsEFkvWbIkMHr54OD0o7IKJysTwbs4c+bMICOSD5rwCG3x0YJFGjBggEkzwQIFLpbxwXRAW4StGd/2228vQ4YMCf5dqkKd6RkzZgSlDQHfL1q0KPAihzqH0obxFlOYUyzos2fPDhLqmBd4aUj8I9w1ePDgtTz5tv1rnPn7DG3WWNvbSu56G/xrMQbX8OjJ0vThYwUfZY1/zUAcVj90VDG6n/pntBv+3xm8826p6SdrMOsnpWZZO0lgYh2GhJ+9YZtttjHqK4YwVaeo0MXewJpAWL5nz57B3sA6DP92MQXjmrXzpZdeCsZHnwhbh3sD46N/JgLWk7bY+/g342W9I2LJXgWbgmn0i72KH4rWYEAS9g51jjcxhAzE9eurr74K2ATgDoeznb0dhwFjgjeWvcE04ohtwJoOxRbzAKcQnmlsA8Lz9MsUmkafNOwN7ItwfOx9/Ddzioierb0Rp8uk/14SBiynNSYBEwpjCmMjnFChwp09Uo4a1jZg+YgZX2jAMsk5nTPJ+YhNDVjH4SR6Gx8J749Fio8YfBALAIsUHzDjY4EvpmDAhh8xBNTRjQHvNItwKRuwLLrMqXDjo/pb7826yaV9n5Z2VY3FVHWrPKv9Lz4UqcntHWmNDpkwPtRud6LU7nqFcfcaX2jb+Neooqo33jFDmebHDYoxhuGJ14x16ttvvw3WKRJiOPzzY2ps0A4HUYwpvkXuw8CDMYS1pZAXMDouDLroQTt7ncKYIiGpVAWjlXU4195ga8Bq6SBqwOayN3h/pgasVp8028FgxWHG3hAasKG9gT3F+Ip9KHIdX+oNWOgpTEiLCfdCF1EMQ0gLQgBm9cYbb5Tp06cXfH+l5NKPDoQPBYgEC3kh4YQ9YsQIOeSQQ1znsdV9NhCCYs0pGwgBJOWcmHMJnnNCc7nm1NFbfSKHbfmZla5K8WJt/KuWDkjgIjmsZdErGfqyTJLYZ6+swXZgj3897J+MCRUJNOCKhbUJ944ePVpIJsonpuHeOAgBewOJU2mDEGhNNeB38JOaQAgg9md/KIaYQgjIHwECUgx7Q2vcNnPq8MMPLwhZ1OqTbzupNWBRNlnWhClMBeAy4PAkTw+2WeNgXEjWyk644QMG4D537lzT4QXeWIoOkEWZdmFTIHsRz5+pcAgBMwxDQhKCcQf3KuEcU2FOwadnGsYybTe8jgxaDmmTJk0yvpVow8UXX7zWnOLAQFJIrpKG69Y2yp92e0Pa1zQbP6dUL0wa/6qpl+bP3wy4eGE7qN3ld1LVwRC2Qgngm8wgSpr9TXNb1Zv9TNodco9VF/lWWKfwupkKlQspbJMttlnjrCnsAdneWNYp9jGbvYHwOPeUgkHF3kCikQ0TAXsDmNOksuHTam+Yzsm461ztjV//+tepnlOpNGChPILWwqXkKgYHFBKmoZ64Fx/9uw+NFtn9YTKXD40WIXcW3JBGy6b/xbqWsNeFF14YQD1sJamTH3OKBd7GeA37DjgegzGJOWV7IAr7BLyBeR6dUyw2+epxH9V7oRzR+1Pb11GS16cN/5qEEps/fi6DfzXnoE2iD2lss93hD0l1j/+jBizURwwoHAJxCVe52sjOGn/sscecKh6RN0H2e5jMBTSNQ6jrOoVBnJSRp/G+gY/BgOOyNwwbNiyoUKUt5Ing2HC1N6I0Wtp902jPh5ot7fZGKg1Y25Ns9ktOgnSepBqyv10liUIGrn1J+j7fClPcbwq4Nx1LW55T7Wua5JbdX28T3lfmQ+2gczMJPXtIdbd+mf8oLrbadD76XlfBv+bWYHWvPaTdQXcaqRdHgIuhGDYOtzcOEzyKeAcxhFwEOibaSmshA5cx5btHq5CBZp80Cxlo9kurLVcnSfh85vb++++v1R3VdlJpwJ500klBZpyrJFH205YfNVfftUvJuuonyftIhMjF12fzTDyenGo1BQoyErdchTl1xx13qIZTmA8ke/gIJOjgYQuVJz7wB4vkuB9+7POYkr23JmPQVG02JGPM9pfqnj8r2XFkd3z1xMMz+Nfny2Y8mgOpP3qKVGXedyF56623goIBPgIrCG2kqZQskRl4pdMoeLx96b5gb2DN0xSNUrLsDWks5EMiom954rB0vabOtdpKnQEL5pUwiK9QDYO6whrCJDjmmGOksdEvexvwP5n3gNd9hY/YlIrF91k29/uWrQufxSKsxQLQ1ufU9T97UzZex7zIhc37LqVrqzp0k5qtD5SabU+Uqi5blVLX1+pry/L50vT2hMzPPdLyjT1Up6QHH9P5mh8dJ3W7/6HgVbak/Lkaq62tDQ61GGVxnNlx+oYqETYWHCW+Ar7UlC7R91k297tC8LKfwbvbbLPNbB6d91roJoFe+UpavZRQsGnMqSSior465/7UGbC33367QJbsKywIVNzQELAxJGL5Csll8ADGZV6aPAdyZ4zqtMk555wT8OL6Cu3ssccevs0E95OV/+ijj3q3tffeewsMABqitbBAf8IJGQq2XNKvy9dyycD3NLpcVm3gka3dOVOSOUXcoa4KbvrwCWl++25pmvekaxPldV9tB2l/WuHkWIxOmySifAo69thjrapv5WsHvmcosWC48RWK3vz85z/3bUb9fvIiKLjjK7w7ijdoiJbDBeop8NRpE/DV0JT5SlK5Kb79Sp0B64ufDBVCZqfGyYP2fPGT0ZcEWB9yZF/RNNB9+xK9H/wxHmtf0cQxa82pKI7Zd3xa3ggSNjBi4VPMJWdt+6H8rIc7dMJ3nGm/v/Ynp2ay/y9OezeN+tfy9SfS9NadmZ+7pOU7c/YPo8ZL7KK6vcZITZ/cRR5I6GRDdsWsRlVBlI/DqIbg3JgzZ453U/DVUv46bUIo+/PPP/fulqaBrmXgwTIElCRtQuUxuGx9Ja1zKnUGrJbCN9xww4CeSEPg46O8nIaQdeobbqIfmsaUxrhoA/qXkSNHqjRHqT6fpLloJ9rqnFqvrlFu2+M1lfdRzo3U/vQCqR14dlkNsXH2DdL48o0iq1eU1bhMBwMTAYwEuYQMeC0PJY4SihVoCAUJfHD6YR/SaExpHho0jSnfRL5Q53jQJ0yYoDENVNs47rjjhEJQvqLpEPTtS/T+1BmwvlmK4eA0DTxXipTsFwX1FRmnGgseeFqIlNMmWh8M7RxxxBEqw9M6ZVOlRAOfzaC05hQLJ1Vhcp2y23LyltXEabeetD/lHatbSuHilu++kKYX/kMa3xxfCt1V72P9Mf8jVevn5sqFHN83p4EO77XXXvLUU0+p9J0ypVRH8pW0RufAieaLFNmMWTOcnUZ7w0YXcddqGeiaDqW4Ptv8PXUG7AMPPCDgUnwFjIxvxmPYh3feeUcFT8vJmMSrJ554wnd4Qdb58OHDvdvRbgC+VI1FWDMRwZdGJNQRm94JJ5ygojLKVV500UXebTGfKFFJBaBsqSRvmavXtYqT+RNa78rmJW9L4zPnS/Mif+Oo9UZh/+Tan5yWgYf8v5w3nnfeefL+++/bN5p1B1EijCBf4RCK4Tlx4kTfpoIomFYkzLszkQZglpk1a5Z3k5oJ2lrwwLQ6lDSSFXlhsPhwcEibpM6AhVMPWgtfueaaawJvp5Zo4Heo3kJdbQj1fWXcuHGJVhxz7R9JCDfccIPr7cF9UFbdfffdXm1Eb07rnPKli2OM+eZUJXnLbvrU7flHqemnA3+xe3Lxrm589RZpnHmlSFMbYaRo30Xan5y76t6DDz4YMAj4SEhZdcYZZ+QtIGLaPkm5sBBA8u8rN9988/cFTnzb0ryf5GWqa/oIxWTuvPNONTpDwutE+3wFSsT+/QtTt/k+w+V+LecbyfVUgEybpM6ARUG+IV9N+ED4wnxPahhlt956qxDy5fRvUyYwe9Kk1Z1PP6n6gefbpbpNOE7NBK6wTd9ErlKbUyf3/Uj26emfMJG2BSup/tTtdV0m6UcHspJUHzXabV78mjQ8cmKbod5qd8AdUr3FPmupbsWKFQEOFty+q+DUOPjgg8WXCB+j7JZbbgloA31Dvpr4UFe95LsPHCylwhcuXOjctGYCV9gJXxgBTqkxY8YkVgLdWVn/e6PvnEorJIXhpdKAJUsfbraVK1c6vbskOFIxzKBQwpvnInjKqKGNEGIn1O4i1Lom25HM87TKlClT5MYbMwkkDsIiPnbs2MALqynMKR8KrFKbU/815HXp1qFBU4Vl3Vb9CS9KVcdN1MbY8uWHsvrBw6W6+/ZS3ftAqeq+rVR36pWKymDwxjb8baQ0f/Gu2njT2hBedbzrucTHCwt1HZGmsLy0T6JolBLRl5eUPoVladP4Tny8sB07dgz2BpLdNAU6Nd6fq71x2WWXCfjltArMFq4UX9gb7H1pnVOpNGCZCC+//HJQn7ihwW4Txru52267JTKXMF6pvGLrXdxnn32EMFNU4CWFn9RG6urqBGwolarSLi78elQyIRSz+eabJzI88FcuFb6SnlPwI9pmiubCXIVzaqNM0YIbMsULKmKmgapOPaX+ON2qVo0ZOqvGZy5cqwOUt63ebBep3nKYVG8yyKyDCVzVsvrrfxqxi3LzByfwyNZpsgCMgA65YATh8yZKGHUisCfwHcNwYCO5vFvTp08PSsvaCph6atenXe677z5r7lzYe1i7Kd2bhJCTQIKurb2R1gIG2TpymVOlYG+k1oDlBTCpMGhMwjxURQE/xIKQpFDiFo49U08siVaEmqhznS3wB4LVNeEjBHrAAkUou1TExsPRtWtX+f3vf584douiFGw+q1bF4wCZU7zrpKvaMJcuueQS4zlVCGJBguAHD18qJ/Xx5xoulXnm28+avkdJ3dAxvs2scX/DlNOl6b3CBVmq1ttUajbPlLrNUD5Vb76rVK3TXbUPsY1lKLZWP3iENH/+RuylpXxB/VGPZDzg+T1kYGFZq0wEoxVDBw9stnAIJb/BlOcbBgMcG7DTZAvrFHufCVMCXmDWj3LeG9B5Uo6NUPdptDdM5qTpNdgbwCVM5lSp2BupNmB5MSwKLC5kWefyUhFqxmiFcoma8MUQQg3gnqBC+uijj3I+cuDAgUHWHuTUhQRaESqPUS0jl6HOaZ+KVMAP+HepCZm+MEvMnj07wMdmC9m3BxxwgOCl1oYN5NMVhxCyfTmVfv3112tdhicYLz74tmLOKebT448/ntOQZZPCkKZPcXNq+QMjpf5THXL1UptvLv2t2+vaDP71SJdb896z6vafSMu3i63arO75M6npO1JqfniI1X0+F7es/FJWT9hLWla4QaN8nl2se2sH/kpqf1q4XChhVvIcKDuda52C6QNmG4xOwqr5hHunTZsmkydPzksgz3cMo8m2225bUAV4c+kTe1+uvYF1iv6AC01jgk3c+4X6j4IuL7zwQk6HAnsD1Q+HDRsmjLUYYmpvHHLIIbLpppsWo0uqz2BOofNysTdSb8BG396HH34YnG6XLl0aGHM9e/YMaKlaU956663gA/z444+FMAeA7qFDhzoZmxgvcMQyPgwnFrghQ4ZYD48EBUr2MVk5beEtQE+taQCzsIPvwmBnMWZxglaMd9iaMnXq1KD6DUYtmwDGIUlyrSl4ZCnHy/vDqGfz7NOnz/d4u7i+rbwpw77R+F3cZZW//68G6k98SarW1cOUt3w5T1bd6R4Jquq0udTueHaGFeHooryj5o+fk9UP6RrwRem44UOqMmWD64+eYnQ16xRrJ4lGVBRkHe7du7dTZIj1bubMmbJgwQKpr68P1jv2BqJNtkJb7DFAFbifdTOpcLpp3xjXvHnzZPHixYGBiUHn6gWmUBDODhwK7FdwbuMEshUMUHTFGkoELdz7wM/ayrPPPitvvPFGMD5yM/r27RsY1OUi6Il3iM6YU+BcsV9KSUrKgE2LYvHAQl6NwZm0B5YPB2+giQcWQ5oT+5tv5sY/Uk0Dbyce3bYsafTAar2P5k9nyeoH/pksWJF4DRQT/xrfmzWvCAzZnS+Smq0OsL3V+vqGqedL0xw96jrrDiR8Q/vMIUUUDyn5uosBjMf0kUceKeiBJZKS5sSffOPD+YB3GbpEDLtswVCHCYHxxRnYJh5YInP7779/rAcWRwT9ysfug2GN1zQOI1zuHtiEP7OiN18xYC1VjvEDLQWZiyaC4Qn5fS4MLG78P/7xj0YYWDxxJJDlSuACeA5+lPCXieDZZQzFCtmb9KlY16AjsGW5woTZfeAEj85dPAHFGk/2c967+xey+dJJrfX4kntuIvjXJ34pTe//TU0XNVsfLLV7XCVVmYphSQlVu1aN+6lIw7dJPaJV263b7fdSs+3xifZh+fLlAWY+n1Mj++EYZyQB1dTUJNovrcYZF0nERAhNJMq8k329DS1l586d5fLLLw882NmCQU2ydz6nTfb1rOVk5JOglC20QaIYnvc4AbdMzs2uu+4ad2nl7wlqoGLAWijX9gMOmwYGwGSPLlQ2H3DYTi6DyvYDDtsiXMCi0JqwAgvVq1xqc2AIH8hCxSaz7777qvQhyUaoOLbtvEtk687u3JZJ9i+NbacF/xqnm6rOvaQOTtMNkoNMNU7/V2l8Y1xcV0ry79Vb7ivtht2eWN8JWWPcmTo2wo4UMqgS66xDw4T3SVAzMe6izedy4MCHPmmS3SE7lwMHZxLJa6YHhrBfuRw47A0kVJskOEXHV8hId1Bz5RZLDVQMWEOFgc3BCLWlSQmbj2aOk2HKSa+lpcXw6f93GThbsugxQGEv4PRJey6CN5fszlLxALiMMbyHBZiTty1NCvdjxML1l2b6MjJMod65Z+/ZPmpqc/eq878u+0BW3ZWMV6aqvrO0G/l0hq927Qx4jRfX/Pmbsvqe9B/UnMbaoau0/5fXnW6Nu+m7774LeMttDamw3STI+eP6bPN3cLfsfbb0keEzwoIP/DfrFFFHFwFny73gWomgYbyael6zn7f77rsLZYBZ29kbYPjhPdoK9xOlAzZRkeJroGLAGurcxWMabZoT5J///OcgbH/OOecICWmuElbiog0+Qh/BAI7LhvVpPy33prESl5ZuOAgxp+q+eF0uH1T+5PRaeksE//rmeGmc9hutLq7VTvXGA6TdEXbeK5vOrPrLwAwjgXulJJtnFfva9idmDnfr6hv/mpW4iq0Tk+cR2ZkwYYLJpTmvIY+DSmM4Sn75y18a0wXmaiw09kmuAq7hI3/605+CxDPfSlzklrga5T79r9yb0kpcaXwxlMAjY89HCDcw2Tmx+cq4ceOEH5LJfIQQFqGhchbCe6eeeqr3EKkuljQXoUsnX3vtteAdHviDRXLcDz92aaJN3lMK+NdcL6Z2pwszLAVnJfLOGqael0nmcjdWEumUUqPtht2aKSCxv1Jr/9cMTgQfhwQtRatxqXfQs8FRo0YJzDY+ggcXKsArr7zSp5mAzYFCCMDfXCOPYQeAhY0ePVqOO+44rz5xM1FRmGIqUlwNVDywBvqGvoSTo69gvOLthBfVVyh9N378eFm2bJlXU+Bq77333oBypFwF3juMfV9hoYNvOG0SVhM6Z7sPZfDGfvMhbWNLsj+J4F9v21ZIiEpa2p/yjkgCSV2Nr9wijTMuTbr7rdJ+7YDTpXbwv6k+m7A6Sbq+QoISJcLTJiS9AjPzlbDAEFhTXwEKhsfTFq+a/Vw8wxwcbCti5uo/nO/HH59skqCv3srx/ooBa/BWfUNE4SMwEjmlueJ2ol0l+xE8kYZQ67i1+XQ1xpGvDU7HGgsnOCffsFUS4zz//PMD/uD/GvK6dOtgV3o5if6USpv1J72iWv2qZdn7Gfzr7kUZft2+f5KarYerP6vpwyek4dGT1NtNQ4OU8G13yL2qXXn++ecDBhgN4aCNlzJN4gudC8ey4YYbBmODB9xXKN7gG3kM+wBFJQVtfAWaLq154NuXtnR/xYA1eNtaHjweBSk9JNm+AqkyhNsaAqXWTjvtpNFUKttgfBqHhrRinUiSWLX8U7l199dSqf80dioR/Osbf5XG6boevny6q93uJKnd9XJ11TYvfEFWTzxMvd1UNFjTXtr/4gPVrmgZeHSKHIliVf4zVQJ9osiAr+C8wYC1ZTHI9VyKHLzyyiu+XQru79+/v1CMyFfA0oKprUhxNVAxYA30nUYDVuvDY/gVA9ZgEmQuSbMBu2nzXPm3AXPNBlK5KlOy9SipGzpGVRMNj58qTXMnq7aZr7GabQ6Tur1vUH9W82eZUqr363t21Tvq2GD96GlS1WVrx7vXvo3yz1qGSxoN2L/+9a8qkLeKAas25SoNRTRQMWANpkMaIQQwEVB9REPIwiy1EnI2424LEIKtVz4rx/epJHCZzotE8K+3/khaVhYHg1yz5X5SN+w20+EaX9f86exMJbeDja8vtQvr9r5earY5XK3bWhAC6JjIjUgbpaGWh7kCIVCbcpWGKgas3RzQymIHJwPWVCuJi8QkSt/5CFmdJIO1b9/ep5lU36u1CKc1iQvPzcZzb5S9ey5J9XtIU+fU8a9fvCer/rt4JZprf3Ss1O7ul9Gd6300fzRNVk8anaZXpdqX2kHnSe2gc9XaZP3VyGJPaxLXu+++G3Dc+gpJXEAINJwusPjgdHHhbY2OA7jGiBEjVJLnojzvvrqq3G+ugYoH1lBXF154oTfmFK7OLbbYQmAQ8JF11llH7rjjDrn77rvloYce8mlK9t57bznzzDO92kj7zZR4POmkk5yKGETHlsYQH/2jpvjScftK/w38qG7S/h61+pcI/vX1v0jj//jxUtqMLykqraa5j0jD46fYdKWkrq3pOyIDHblGtc+Q4L/+ul+RhFNOOUUOPPBA1X5pNQYFIU4cH4HmDw50GAR8hMqROG5uuOEGefLJJ32aEpgDYCGA3tIXmwuTAfktFSmuBioGrKG+fUNFVA+B7ogQkS+pfnjag8KFhY+qJC5C2Ar8Fn0rd/FNRgiLR6RVT0uu30o6VttXkknreJLsVzL411My+NdHkuz2Gm23O3qKVHfrr/68xlduztBoXabebloarN50Z2l36H2q3fEl1e/SpUuQwJU2BoJQSSia3tQAACAASURBVL4QOuBpY8aMkaqqqiDfwiehNqzqBZsB3OxUo3QRdE1xBai0fAs1pJWdxkUvpXZPxYC1eGM+hidcemRPIrAQEJahPK2tQKQPphMvLOITHm9LYY+vvvpKoJuyrVWOjlnk4B3s1q2b7esqzvUN38jKm39YnGeVwVMSwb/etl2G/3VpUbRT3a2vtDvar4BJvo4WMxGtKMrKekgS3ncegYH2zDPPOA0Jr+TOO+/sdG+xbnL1MtfV1QVl02HNQebNmxd4YV3C/1tvvbX84Q9/+N7Q9zE8o+Vt8b5ecMEFTqWAKW8LDWXF+1qsmbjmcyoGrIXeXesvU4WE2stRAVv0u9/9zip0sfHGGwdcc9mGlEumKFVIOMG2JSEMhgdg6VJzQ4MFioMLGLW0Ssvnb8iqe/ZLa/dS16/6E1+SqnU3VutX8xfvyur/3lOtvbiG2g2/S6o3X3M9ibvH9O+r/vpTafm6vJMB25/hz0WaS5+XXXaZzJ6dKVdrIaeddpoMGzbM4o7WuRSDEyP2/ffft+oAvNl4KKNC5UAqadlEDnHcYLyyHkdl7Nix8sQTT1j1KVfRgSVLlgR7g42Do0OHDsI7L2cOdSvFtsLFFQPWQel440yKCID5Afc6aNCgnE8Bu4hxtGjRotheQOEEjqhz5845r33wwQflzjvvNMJ5prlsYawiPC9gocIjYFL6cbPNNgt0nnaIRfP8p2X1w/7lED1VWxK3V3XqJfXHPafa18Yi4l/JoCeTPglp+WaxrLrjn1Gicpb642dJ1XqbJjJEyk1PmTIltm0iaFR3pCBNqcjKlSuDSNSsWbNiu8w+Rd4Iicu5hMIrOGOAwcXJgAEDgugZ+2kuMfXE4g0G75oPa0xCHvsxzqU4YU/AOE9jafG4vpfT3ysGrOPbxPh8/PHHg48ZoygqVNsaPHiw7LPPPnk/uuj1VAIh/ASWqqHh/yop8cH++Mc/FvCXAwcOjO0pH+Cjjz4qM2fOlPnz569xPUTLnIT5eFMbCo8dod4Fzz33XFCB5dVXX10jnMWpevvttw885mkP64XaoHY9NewrEq+BJPCveGCb50+Tlk+ek6aPZ4g0JoNFrulzhNTtdV38IB2vaHz5v6TxuX93vLt0bmt32ANSvUlyhVvAZz7yyCNC3kT23kAYnHVlv/32M9ob0qhVvLDsM3ibSZCNynbbbScwDrBnmWB62UNnzJgheGWjggG84447BknG/fr1i1UDTiB0/uKLL65V7QsMLk4kPN0kgcUJbbAfUyzhm2+++f5yxsPewKGDCl4VaX0NtEkDFqMFIDlYVEIj0GlstdVWwQdjMsGzXxv4Sj4gqKh69uzp9Fbnzp0bfDAsDpxK6RNeVz48Fw/gqlWrgsxRQO5AD0LMrFPnFG6aM2dOYCyi8xUrVkj37t2DsDxGddeuXY2fgK6pz42+CPdAkI1+wFiBMTZZNLMf9vnnnwc6J5mCftkKoTCykKnogs75b/rEnMJ70KlTJ+MmgTewMeAhXrx4cfDeOHxsu+22wU8uaXzpBmmcqU+pZNzpEroQAxBDMElpXvi8NH/8nDR/+kLm5yVvg7aqYw+p/dklUrNVslnqwCAwxstdksBA59MZBhBrHnSFrMMu6xPOkpdfflkWLFgQrFNg8vH8sd61FrSJtYl1Cm8lBjsGJ8Y5Bl6IdzWdR+wNGLCs6azv4EkJy7Mfu6zHYFpZh0mYZh1G97by0UcfBfsx42Os6Jz9GJ337t3btrnK9QlpoM0YsBh08K9ySiuUPMXpeNSoUUULDRBuIvxfqEY0htAxxxwjO+ywQ0LTILlmGdukSZMK4k5Z9BhfISwRBwT4agtBNzD2DjjgADnssMOK4t3g8HPvvfcK1XgK0bBwWodvEEhCPiG5gfEVwtBxuGJ8hx566BobYcP//D9pev325F5iGbVcf+LLGfzrRkUdUfOStzOG7Cxp+fx1aVn0qjQvfSf2+VXt15fqnkOkeot9peaHh8Ze73tB8+LXZPW96cdi+o6T+2t3/q3U7vBLjaYSbYO17r777lsrmhZ9aK9evWT06NFFKwWOQcc6VYg2DIfE8OHDg3WqkEyePDnYkwvlJLA3sHbmgyJovwAOCkDxMKbzCQ4F9hi8wxVpXQ20CQOWMAcsAIUmZfQ1cGID+0g4JCnBMwpe6qmnzLOJwe/ELQpJ9de2XQ4MV155ZeAtNRE8qb/61a9yYsLwSvP+OJ2bCIs6CXJJQiVs5xRwEAi4c80pdESCgmlSA55YEg5CTFjD46dlKJz865Wb6LaUr6nqtHkG/zozFUNo+foTafnms8zPouC3NHwrVZ1/IHhbqzr3kqoOxWW8aJh8nDT94+lU6CbpTtTueLbU7nRB0o9xbr+lpUVuu+224OBvKhixGHpJyt///ne55pprpLGx0egxwN5g28kukgNMjnaADpgIdI+/+MUvhMTjJMWW0QeIIP1KW/W0JHWUtrbL3oDFS8ZHREjARgB8YwQlZcSaJoJl9zlK/2EznmJe29TUFBwAbPn+Qp7AaNYq7433Z0u7Qrju6quvXitrVUMPePAxRl3mFIYqoahQwFuROGDLZxillFn94BHS/Ek6DDMN/SbVRk2/o6Vuz6uTar5k221L3ldeUs12J0rdrlek9n25clYnSYvIOkXyK8a1jbB/4nwIjTz2BpK3aM9WSIjeY49kqt3df//9QYEEWyFXApahirSOBsragHWlvQpfBQk9cK7i0dMUF9qr8PkYeXgqk/qQfceJIcbp2oSlIdezogcHMK5wBppkquZqCyOPRZf3qCXMKYxXWzqZ8PnQwLCAM6dog/FFE/ds+gk+Gk9swwPDM6HpV2xubZPXFgP/WnKKbVolq+8/WJozVGxtRWr6HJlJhrs2lcN1NaTCwVA1C5iRppBcfMkllzivUxh57Fl4Ul0dN4yH+1l7s2m5fMfKXkW/XCXJg4Nrn9rKfWVtwALk5oP2Ee3JiQH085//XJYtW+bcLfBAGEFpFN/qYIwprHplG9LJpQ9IpjV5+kiuYjH2EWqnH3HEEUH1nYcfdg/9s6Dffvvtss4TmdDh0jk+XWoT99af9IpUrWOfpFfOymmYfGwGOjC1nIe41tiqt9xP2g27LXVjxjsJtZZP2VbyJYg84ejQkmuvvVamTnWfIySu/eUvfwn6dPLJJ6+R2W/bRxgOKDqgKb7VwUjwAvJRgRJovhWztsragPXxdIbqY3LecccdaguC72kv7BdlaQslBZm9fv2rfD0I9Ag8LIkCcP8VSm4z6b32gofeoX7xEeYUxiuJa7bQiOzncsDa/5sx0mHVQp8ulf29acK/pkXZjdN+I41vjk9Ld4rWj+rNfibtDrmnaM8zfRBYeMLtvqJ5aCc5lXXKFPear+8c2sHsU7rcVzCGWUM15OOPPw4ODb6CEbzTTslRs/n2r1zvL2sDlionUJj4iuaCcN111wm1pX0lrVhY39NsqBfA8RqLXceOHYNa11rCQgzfrq8wN2+66SbfZgLqmgt/8Kh0qjJLcPN+YIk2UNN3hNQNvaZEe6/f7cbp/yqNb9hj/vR7UvwWq7pvL/VHPVr8B8c88dZbb7VK3MrXnGbUkMQtYHS+QtQQTyxZ/r5y9tlny9ChQ32bCe6HBQFHl6+0xcqWvjrTuL9sDVhC9YRpNUTzgznrrLMEXj9fCcPsvu1o38/iWYhSyvR5eE5ZPDUEbye8ur4Cp+PIkSN9mwnuBxc2bdo077bwVv9p19ekc+1K77bKuYEK/vWfb5cysY3PXixNH9qV3yynuVG1fm+pP+Z/UjckrcM/GFGqRGmIaZWruGdBcYgHFs5tX8lVCta1TV94RPhcEnN9cLSu/W/r95WtAQtvKFhTDdE80Wp58NKIg9U08MCtmpT0M3m/Wh50Dfxr2N/+/fsHhQ805NbdX5NO7cyobTSeV4pttAb/a5r01LJymTS9PFYaX/YP4aZpXE59yeCg22fw0GkTomoaBp6mMaVl4KFrMPu2bCu53pGm80br0LDhhhsGONiKFFcDZWvAptUDC66TOtC+ovkR+/Ylen/FA2umzSFDhsizzz5rdnGBq9gU/rTbW9Kl7lvvtsq1gSTwry3fLi6JhDA8rk2v35GBC2TCpAmVuC21eVPVcROpP8GexinpcWoZU+XugT3ooIPUnFNaBrrmoSHpeVZO7ZetActL0vJ2XnbZZfLjH/9Y5b2DJ9IIjWt6hVUG9r+NwNX3wQcfeDd57LHHBolcvkJRCqrZaMmRRx4pFGnwFa3xURXmt32elW417qwWvmNJ+/1J4F8bnj5Hmj54TGo2GShVnTI0e122luoeg6S6W99UqKN5yVvS+ORZRlW/UtHhInaiqvMWUn+sDjxJs9s33HCDPPnkk95Nahp4zzzzjIwZM8a7Txh4ZOm//fbb3m2RH7H//vt7t0MDVN2imqKvaCcL+/anrdxf1gasRsY4dezJegRrqCFaLAScHLfcckuNLqm2oYGZYqGD+eHCCy/0opRhYNoLi8aJnTl1yy23CJXVfFkIwIMNa7hV1lv5oep7LKfGksC/rhq3k7R8tWAtNVXVd5bqLfcNSsBW98gYtx26tpoqW76cl8G7ZsoMz3+m1fqQxgdXde0j9SP9E2m1x/b888+r0CNSGIVqfRpCwirrFBRfPoIzCY5vjTA7jo3OnTv7dOf7e7VgYRUWApXXYd1IWRuwUDBxWvMRbU8n0IZTTjnFmZyfsaQR/xrqOG08sJqLOWOk+MB5553nM6UknFMaPLAwNXR57gyRT5/36lM531x/4ktSte7GakNsWbFQVv1loFF7PLd6s52lpu/Rmd+7GN2jfVHTvCnSOPV8afluqXbTJdleVfftMiwEj6Wu7xiJp59+uhdzDk4NPKZp44HlwA4LAXkp5Eq4iiY8IuyDL3SjS5cuAS0i46tIcTVQ1gYsqrzyyivlueeec9IqFExMzLDmvFMjOW565JFH5Oabb3ZujnKkJAGlVfCePvjgg07d45R+4403So8ePQRjH7qpJUuWOLW1/fbby+WXX+50b6Gb0P/MmW6lW6nExWLOnMLYp9CGKyRh7733ljPPPFNWTz5emv/xlPo4y6HBqk49pf44XeO+6Z37pOEp+2IWVettJjVbDZPqzfeU6p5Diqrelm8+k4ZHTpTmxa8X9blpfBie8XaHP5TGrgXMJFQydBVKeA8caHa4Mn0GhRXOOOMM50pchx56aODFRSZMmOBFawgN5RZbbGHadaPrSKalwperJFH9zLUvbe2+sjdgCdH++te/dqpbT/k8rVBM9sRikXKhUQqrOKV5ouJJ+N3vfievv263WeI1uOiii9ZYgOfPnx9UXrENtUObhY4xGLXl66+/Dha8jz76yKppjHMOVHC3hvLCCy8IBrFtdi5tcB+n/obHT5Omue4VvawGUWIX1/Q9KsP/6o/hiw47wL++7Yebq2q3ntT0OUKq+40uHm42Uza24dGTM5AC96pKJfb6c3a3erMhmUIGE1I7FNfIjHa0MKog1imqP7a0tFjpjWghToSwShV7A+vWrFmzrNrhYhKgd911V+v7TG5wLcBDf+hXRVpHA2VvwKJWcDx8RKb16+Gsw5Di40tK+JAJ/06ZMsX4EWktXpBrACtXrhToq1580SzbF4zxueeeG2BWswXWBt7f8uXLjXS1+eabB7W7u3XrZnS9y0Wacwodkdxn6ollXsLzGEYGGp4+N2NQpa+ykItete+h5n1NnyNVm82Hf3V9SE2vPaRmpwulekMd3GJcPxqe+KU0vf+3uMvK9u81Ww+Xun3TSyeGkUjehU0UK0njNZwI5G+QA2BalWvAgAHym9/8RkikjUpDQ0PQjikLC0wrQCuIOCUp6JvooanstddegWea/lWkdTTQJgxYVIsHb9KkSfK3v/1NVqxYkVfbgwcPFjLEi1WmlazTiRMnFiyZSn1ryvntsMMOrTNLPJ7KosBPoepVO+64o4wYMULgfs0n8PqSMTp9+vS813DwIDuVAhbasI9cD2VOcXIHElKoeAOndAogwBiQT+bNmxeMr5DBv/7668sBBxwQ6GqNDWH6RdL0hvnC6/E6S+5Wffzrpxn8646J6AGPbO2uVwje2aSl4ZETpGmef8Z70v1Mov2a7f9F6oZclkTTqm1iMMKgQhQqn7A3HHXUUUUrYwo3N+vUa6+9lrdPXbt2leHDhwvQgUIyefLkoBLW0qX5sdnbbbedjBo1Svr166eq23yNUSmM8c2dOzfv81jH2WO0qoEVZWBl+pCSM2DBQzLh2cxdqyu9+uqr8uabbwZgeYwQ2mEhwJCiXVv56quvBAOrffv20rNnT9vbg+tZGFgUoKBifPQJ6pGf/OQngkexNWXZsmWyePHiIBy/ySabOHXljTfeEH7QOQeI7t27yw9+8INA5/zbVNA1NcOhYyGET1geTBQLHT+tAaQHq8vYmFPgxfhvMLzMKbwQsA6YCu9+9uzZQnYsOscoZ8HE68r4cknjrGukcdbVpo9oM9clg3+9P4N/PTsxHZL0hdc4aYxsy6qvZPXdQ4WEtLYmtYP/VWoHZBIfiyDAjT777LPAC7nxxhs7rU/sCexZGFUUOoA0P9wbWENbQ1ibWKfYt1jTWeNY78g7sDU2WcvZ+4iQEmVjvcOZYbs3aOphwYIFQdlb9hhsDuwC9nboNBlnuQh2C84lDh1JRiyT0ldJGLB4paZOnRp8xNEMRowVPhg8XLvttltSOsrZLuVgH3/88QDLk51k1KdPH8GTu88++xh5AvEqctrmI8b4CQUvIh8x49MG5scpa86cOQEnIYtUdugene+yyy6y3377xTWj+ndYJfB20ic2haiQfbvzzjsHHtgkcK+qA1FuzDWpSLkbqWsuGfxrceAatYPOkdpByWLrmhc+L6snHp6695Z0h+qGXh2wQiQlhdYpsOusU6ydJlEiEpDJlWBviOYBdOjQITCm2Pdor5hisjdQaCfOmcBex74OL3p2vgQ0Wex9wAZsDeJi6qIUn1XI3sBhtsceexTd3nDVY6oNWAxDAN8m2FVObRdffHHg+UpawHaa4HdYoCD2HzRoUM4ucboD28kpKE44kYJ7dPEQx7Ud/TsHBHRukoC1wQYbCBQkeAOSFtPEBjwdJ598suy7775Jdyk17bdVQyTuBSSDfx2c4X+1S96L62e+v9dsub/UDbvV9Xaj+xqe+EUGDzvJ6NpyuajdQeOluteeiQzHtBgBkZVf/vKXeZOSiOSwN3z88cex/eTwTs5G0h40MPpg9U3yGjBASZ7OFzViT7/iiiuE6F6c4DABS2ti8Me11Zb/zpyiKBMHrDjB3oCHPek5FdePuL+n1oDFuCOTvRA+JntwfDTQiCRlUGHcwStKqNhUAHjDRZttUNEGH3Ah7GT2MzDOSU5KykjnwED7Ntn1GIywBCTlIQbwD5vAjBkzTFUeXDd69Oi1sKJWDZTQxS1ffyKr/pr7kFRCw1DvKuVCKRuqJS0rksO/5jViE2BRiD6rZfl8WTW+uB48rffh2k79iCekakPdBF2MOxhGgDfZCPRS2VhRjLtLL71UgEuZCoYGDpykIAVE4ehTIWxodl9JzP3Vr361lpGOjnCSRKONcePs1atXYNAn7cCJ60ep/t11TmHvJGVvaOgylQYsuCEy0k08k9lKwCvIx6GtdGiOeJkmp8/sPmHEQrsECTOCgch/M05bAQ/L+LTD5ISnOMWbeLuz+0w4i8UliYODTzU1vN+EQ9qCrLwxf4JYWxh/9hjhXK0//gXVoTe9kyz+NV9na3e9XGq3O0l1LNHGVk8aLc0fTUus/bQ13P7U90Xq1lHrFnsDh2xgYLYCdSBGXrhOAY3C2whHtK2AscWIZg/UFAxNHBs2jpvw+eQosF+FewP7C/uMLS0i7UWpAzXHV+5t+c6pq6++Wt3e0NJ5Kg1Y03BxPiWAv2FR0BTfMn8kP40dOzbgw8MQhlfPVZKgTIGdwafMXxLVwXzL/BFyYi5RkKLcZdH1faRztf2BqFz1Usr417XeSU291I9+Rqo69UrkdUHBBhVbW5BvmjtI17PyZ5i76IAETuBdroLBGVaq8i1VfdBBBwXVrjTl6aefFgoIuApJTxhBGOu+Va9KiUrSVV/a9/nOKcqVH3/8/2fvTcC0KK79/xpmYFAWRQkaFIn7wnWNMSghiAGNW1yuaNwCMW6Je0z0Jhpvfpob9f6TGLcbNaIGd0yU64aiAQnigkaNCUoUNUjighJFURmYYf7vp71l2pf37a6qc/qdft/p8zzzMDrd1VWnT1edOvU93zNeu1sq7eXOgWVnBlm/KydmNS3guISyFFRqU/rh0SaEx2TMw2knEfBTkyZNSgXJ+zwDnSdRXbm0BTY4iQrLpY34NeCtAPhLpNIRnaS9PN5Lxuyia8eaYWsVDqx9PxQvwInVlLZJu5Twr9UpjTSfVd5Wyw7fMS27hDtJSX3rfPcV03bDqvzLWY6nq9qe+89+ZtA3Hwhmi6nUb6BuTz/9tGhIwMyAYR11lCzSTsTzN7/5jeqmnb654CaTFAD2kpM6cLESIVveh6tV8qxGuJdTbOmGBn8DnfP+8ia5c2A5hvnZz34m1pPmTo3jnAkTJoj7BEk/gHucT6kwaULRpCFQoUgnFvqhuVODLBsca8hRU1wnHF1p2JOGnrNqAy7aPn8814xer6h1b3Wszv/6wZum7dqu42Fu6r9BqSRuWPliF7tr+/WWBmqtRpf7F37GrPjC2RGPp4aQwwBHtyu5f7Vnkv09fPjwqLiNVDQrVpFERrKZVCzrAryvUtEOlEj7k+f7QyuMlY9J06Y09ZU7B/bKK6+MqJKkQuY/WBsN0XKq2cEQoYQOTCoQRZNtryGQZV9//fXipoguS46a4h2AG5AsSA2ZPHlyxNHbqAKeevOPHjRf36T7cXpWeqdZOHtdhX+Nj6/1W38yTatlU11u+W37mJVvyqKI9fB9XTtvA7Ow/+ioLKqGkJBEcpOGEOCQnjjRDwj2TzlFh6uYtZg1WSpA6KDVgn5SKhQaGjdOt7qetE95vZ/clJC8nfLxUEDnuOOOy90wc+fASvGhVsNkY15yySUqCtfaxdAZPmSIn6VCQpgEdxV/vhQjY9viqOGWW3RqjEtxV/HxkQhWq8pq0vcacj+nDeutnG9++HldbF9IX7Tvad5w96jJjlfcSy63jDjHtGyvO9mu+P1ppXK9k7WH59Ver68/YHoMzKYi0Yqpx5qOl+SBA68BdcHF5z65qXmzeWMR3j/ebWnuQLwt5igX2qw0tWnmI0jzUWxfYSTAgfVh3ak2TqK5GlHhND02wt9PPvlklU2Dpr+hqdfcObAaeCIUVDiw7mYiyfSPP0XTgdWKetO/7uDAfvDO6+a63aqXd3S3hnxd2XrUM6Zp9c+Yzg/fMiv/8ajpXPRMibf0rqoVpFq+cIpp+eIZ6oNom1Q7/tdqne910J2mx7o6sKHyZ6x44GTT8Vf58a664pUbnDB9O9NnwLpqDuzUqVNVjv0ZJidYlJSWiqYDC55W49i/cGClbzXsfi0HFoiL1klD2Egq35U7B1YrGqipcK1oIB8xVbpC6EjKX59mtulNN92kEjnV3DRIM3vj+rr55psbmgQbfNILL7xgLv3SX8w6q7dpzg9d2lbzFgeVyqpWzn7ufP/vpSPvZ0znP1/4uI+lo/Ueg3cyPdbeQr3PnV2Mf7UDav3GYyUmgrBS1WlKoTwuMIlGljc+bDUnP/xvUVlmLQiBlJ3G6huqRSpPUdlRKposPFoRZsrfEoGVJoOhmyxYeKQ6z+v9WgFBTZvS1FXuHFitHa1mQpEWkJ2Eoq233lplR0tmKGVTNUQLxwWGi6IGGkLRiEMPPVTcFBXaNBIjxB3JsAEbQT9l65fNiM+mV7bJsCuqTff6+rTSkfkw1TZDGiMySYSyq6X3iekVdEL7uOLu8abjbw+G3l4X9816bYC59C8bRWVctY6gtRJ8mafArmok+MIoo5WkphVIYG1ANDC+mgnMdWG4gk5qRdA1/Q3BcFa5NXcOLNWgpFQijBJiafjntOT4448XY1ehdCICq5GcxESnWZUEULyUugwCbs263OiJZC6JUOUGvTeyUCedCnR7b/CmGb9FeunJetBFj8HDTa8D83Gk3T7j+6Z97k1dqjYceRz6rGT5b/c1K994Kqvmc9HutfOGmKmvDoqKrlCeVEsouuNToarScw8++GAzcuRIc9JJJ4m7RdKVZiGfww47zCxdulTUL3REBJZCCxKh8iNJx4W4aQC7RPdS0fY3pP2x9+fOgaVjUkymJnzAKkqKyezfv39Eqg8TgTSsrxlBsOOTJqoRXYa3laMwLZFGhtE1BOGUGG50iWjQ3vyjOW+nvzbEUHvudbVp3kjnhEGqEEqtUnK1K6Vll7NNyw7fzqwLy67c1JgVH2bWfh4aPuvxLUzTOtur0+pJ5ynWBorcME9Jua+zOOqVrg1Dhgwxl156aWQCOOjwVoeKZnQ5tA/1dl8e/Q0tHebSgaUGNLg+SqD5ClVN4IkDc6MtP/nJT4IxSvFjD1gIcDhCS8leeOGF6phOygVCxxRaSpadNUkI2iKhVQPAPmbMGO0u5bI9sGVn/8f3zK++6F/OMm8DyoIGK3SMecC/NrWuYXod8XCJQku3RKjVSedHb5u2iXoRyVBdZ33ftx7dNXIQOa7XlosuusjMmDEjqNn4yRUnkKx9IaVkKdxDxSscYm2BkvLZZ5/1bpbCCqybW265ZXQv1RVZZ0L4vYtSst7qj26gmAFR2BB/I0ubChvNp+/KpQNLF19//fWIx/Wtt95yHme/fv2iMq0kE2UhoTWhMZ5dd931U12ieABOrQ+tCLWuST4YODAbLkgMnMnl1VdfdVYfx0IcX2seyZU/nA3JrFmznPvEhd1xp45NmTv2NUP7fuClq7xd3PKl/zQt2x2bi27lAf+aRVWxuHI7XnnArLhnE81PtQAAIABJREFUQi70nVUnXnyvv+n171NUKwWW95VqU08++aTXEICm7bXXXp+6B65U1j4COa5C4Ob8889XhQ7En43DSZ98AxxQPULBFBcgT8A4WE9dZYMNNojGxxpfiL8G2Dicc845XjZFEBB/Q7OiqX/Pk+/IrQNLt9mNEm2MFuYUYVfNC9LE/lR7JJWdgBSkSZ8+fcxpp51mKKpQSZiocLjZIaUJR/Q4ilkfh5M8RTSVSSZNmDSZoNgZZy0TJ040ZMSmCRgpCjzsscceaZc25N8XTz3D9HnpxvodW8tqpvdRJUL9XvlYqDpeutd0PPFLs/LtuV2i05ZtJpiWL/9Xps9uf/Snpv2Pl2f6jK5u/IOtvm3W3k2nsE3SWC677DIzbVo6VhnKQRLJvvzlL1dsjgAOTp4LLywnX6wNWQU2bAeXLVsWwS9cmBJYp8hhgPGhksCagnPkEmmm4iRRadbTQsI1gE2xyXJhgsDf4GQga5sKH83Hd+bagbWDo5IExzPUm8bBskL0j8gfk8CoUaOkuvC6H+fzvvvuiz5mHO24kKi18847m913393po5s5c2Y0PjI+V6xY8UlTfLDbbbedAddEnexaynPPPWceeOCBaHzlRw/bbLNNpO+xY8fWskuRo48TS5SjHF6CE81OH2aG7rxLX/n6E2b57/av6XvRfFjLtt8yLSPP1WxSpa3OZe+ala89ZjpLXLQd8+82nR/4w5t8O5IVp215P7pDAlfroQ+aprU/PsbOWnAQqGAFxVb52sA8RaKrLa2a1pdHHnnEQONIQCEesQTfz9rHHFzrtYEo7L333hvNw0uWLPnUEFgbYBxgzWJ9ThPW0NmzZ68SMMEBhlaM8W21VTbFO9L61qh/x98gAFduU13pb4Tqui4c2PjgiMbOmzcvwlvysYQIO0naAIvK74TIYSwIDZUzYWEMsAIwqUh2irSDcwxmiF1QiJAxSvY+Dh81uolKU8I2lLXgpZdeMnPnzo2qWQ0bNswQ5QwRHHR0Tv84nth4442D8WiM7amnnoqcVajJso5Mh4y3q+5ZdlWJC3X5+131eNFzW498xDStMVTURi1uJiK78s3SKcU//2pWLvpTKUL7XCkJSge60bzZAaZlp++apjU3yn4oy5eaZVdtnv1zuvIJqw/6OKpfY8F5JfhC6fC+ffuaHXbYwZBgTPTVV3AaH330UbNgwYJo7WOzHnLyxdzLGkoAAIeYtYF1htM0XyEZiwAHaw1rJw4n4wsRglM4xMzrBIAYH8lfvvLuu+9G4yPaCO+6XfvQv69w7I6+Fy9eHK2d9Id11Fe0/Q3f51e7Hj1hU7xH1uLhw4ebjTaqwZyjNYBSO3XnwErGjgM1ZcqUqrWBwdkQwWPX57J7lPQli3sff/zxKEJZrVACExU1jUePHp3F4yu2ycRLn+hbJZouJhj4D+mXxPGv2YDq4EH1SkpP2diee19bBxqu3MXO9/9hVi5+Piqu0FlybDvffcV0frQ4+knaUPQYtE2pwtYOpumzO5nmobvVFD7R8fJ9ZsW936pbnbt0vHnr8abnqJ+6XCq+BqeQ0zQisAQiKglH4vvtt190upYk9sSJiFmlBBycKqKdBx54YOpRL5v9O+64oyo0DMcFLC6nhknCCejdd98dnc4tWrRolUsJbuB8Mr40Bxv9wHBQbW0YNGhQ1B+XU7Xp06dH/apGZwaUYf/9968K57MDwQFGT7xDfi8X1ih0TltpyYCcYlLFjE1MJekKfwObQufw8cZPs23/sCn8A+gnQwNe4o/Io4Fu4cB2dnZGpQPvvPNOJ9UMHTo0SrDKO/7DDgbYAXgi6FxchIjlD3/4w8wdRp8KX+gaPHAtMMwuOqrna1aWjriX33dc3Q2h1/63mR7r71J3/XbtMLCDyJlt+7/knOZepsdnShjB5rATDdfnJl234p5vmo5X0jGbGs/qqjZ67XuD6TE0+007x+nkBLgmweKcQRDf3Ny8impwMOAy5wQtTXAawcBWOpFkbaAdjuldBKcTnGSlYALjYl0kIuki8G/jCFUSnwpfnK6BB66UnI0TxrrhWt0SuAXYTtgRyoU2YExwSayGLpLk7EoYZl9/gzWPMWTtb/jYFO+fhO7QU24X+9C4puEdWN8P2Cq1Xhwq3w/Yjg8nnUkhi10WHzC8fw8+6FfZh4mKiTgUOqHxQTREG+0fmWVX6BXxqJVOWv7tSNO03i6RE9tUKg1bSLYagNsWjtuGlubepve3X8p8iBxZ49z5Uj9WcqiIblreVNeOc1x+6qmnfsqh4sSL+vWuzl18bSgP4HCSxtzs4tzF+4wDO2HCBNPU1PTJ/7766qudg0n2pkoOFRCNH//4x84bBttWpQCOj3MXH1+5ky7xN0hCz4pByWfDYMdXyaZc7bFW1zW8AysppUaIHwonAPN5lJUrV0Y7t2pHFGl9ZnfFBFcpApB2b9LfQz4W2x5YLCIGIZgsSZ8b7d7l//t1s3KhH/VYnnTQtNZmpnn9ER87tKWfpt5r5ql7DdGX9lnnmPY/TWyIsVQbRI8SLKVXxrAUKKbg9XaNvJb3dd999zXHHHNM9L+BueEoMrf7ClFFqKZsAMCVLafSc+KcqzAFEG10YQyo1Na3vvWtCFKASAoCke/AmIhYhlJa2v5Ba4nDTyQV5xyKsBBuWu4nUmmpwqT+RhZUYfgH+AkhNoXvQ6Arr0GlhnZg+eCOPfZYL7658g/wlFNOiTCaeRRA5nyEEsGw2ZFqCRMLk/E777wT3OTXv/51Q/nCQsI10PHstWbFH7KnDQrvod+dHLVHkdn1vmSaB5d4JXv5J2X4PbHBryZ565oSBrMUrW9k6bnbz0zzVodmOkRYAi6++OLgZ5BvQcVANu1Au3wjpvEH40gBYyAiDDwhxGmx7dEXEnt8oGCVlMC4GB+BEqjD6FuoWGcfR59xSuRXv/pVhGP95S9/acDQhgrOHY41p6FQOFbClrq2zTsD86spUpsC83vGGWdodkmtrYZ2YG+//XZz3XXXiZRFFBZuvzzKJZdc4n1MXz4OjrDY8WsJ4Heq0kiEjFEmzUIEGlj2T7Psar2NiaAnmdzao1QStMeQL5WisyNMj8+WKOZaemfynEZttP2xC0z7kx+X92xk6X3s86XNjn5lqrjOCCIQTJDIwQcfHCUHUT1QKjbfw4U3O+lZnNCBCSWYAHuBRIjg4qjDMS4R8L633XZbFBUMPXm0z4cr/PDDD4+K3kiFCm+wMVx7rSwJVdvfIKkN3Utl0qRJmcANpf1qaAcW8mMIk6XyP//zPxGFVJ4EnCnYIkmkk/GAc5k8eXL0r4ZIa3nbPgDdCKEs0RhDo7RBIhcJXd1BegzeyfQYvHPJoS39fHbHkmHnE/aTh3fR+V4J+zqpwbGvJUU3b36g6Tk2WyedUz7mYamAfSQhCEdBKkTxSFh2IaxPehZrwumnnx4VE5IKzjkC1lQqJGER8XRJcEt6FpFhNg5XXHGFtEvm3//93yP4R978DQmkIa6ULCLDYqWXGmhYB7ajoyMyKskRilUwjnC1iikaLyGkDegwLG4q5P74PZrOIngnn/K/1foex01Jx9dd71/56kyz/M7uCcUgKgt2NvqJHNoiQmu/g+VTxpmVf3+k4T+LXgf8NtrQZCkUK4ABRkM4DZNGFekHx/70S0Og1qJogVTg/SYCK3Wq6ceYMWPEJ492PBSVoFiEVOBHJwKr4W9owhal8AGrFwpTSOGKUh1Xur9hHVhNBy+PzpQGBsgahMU6SQ1Mc9MQT2yQ9qs737/smhKx+Ier8jV2J520jPhP07L9sd1pyFXH2vHiXWbF/cc3vC6a+q1nWsfPyXyckoTV8s5xyudSOjZtUJDSU3xGQ+CqpRCDVMC/cvzvy2JQ6bnkbLD+aQjJaiRxSYVobmiSW/mzNXNAtAJK8OhqbdSkuo7f37AOLEDqQw/VAe/nMXyukcBlDQHKFMi1NQRSbenRDv3Q/Ig1xlWvbbTPKXFJzvl5vXZfpd+9Drn/Y77Vbi4r33jKLJ9ycMMnbvGaW3b+gWn5/ImZv3FpAle8g1SgokKkVKjiSDRQQyiJTrUmqVB9jAhspeIAvm3vtNNOUQUwDdFy0MGuhrJQlI9DM2CmBaO0yYEaOtdso2EdWJQEvoUyblIBc8NRQ56EyiwA0DWEJDU+QA05/vjjo3KxUjnppJOiimiFCDXwwZtm2bU7CBup49t79jG9j5Pj4OtYA1HXV779vFn+uxKVkVK527zro/c3nzKmzzqZd5PS3xpJsFBgjRgxwjz00EPiPnPcK8mqj3cAGB7VpKTC+gLlVLXqZD7tQ8klTVCzz6OYxLRp8kIewD+ICufN39BIdkNXVMo87rj8FcdpaAeWyCI1lqUCk0EeeUmJDEsxRQMGDIiYGuJE0xJ9kfB23333SZqI7s1j4px4UF3UwPK7jjArF8zooqd37WN9y9N2zLvNdPz5N6bHBl8usRzsWkoM26lrB6DwdCKvK+4+0nQuW7U0pkLzuWuix+dKpcD3ua4m/eKk78gjjxSfOm2//fYRdhVqJ6kQdSOJS5pQBAcoCVwazAhf/epXo+peGs4wicIUMJDCEaDQGj9+vMrROEwGOLB58zcoG6uRGJjHPCC+k4Z2YDWOdyyViHRSyeL+G264IWIQkAggfaKmWgJeiooiEtGmEpH0pRHuXfny/Wb5vUc1wlC8x9Ay4pwS/tU9crDiwVNMx7zf/us5pQhucykRqGndHUvObCkxbFCJO7WOEsLan77StM8+11tv9XxDr72uMT022qNmQ6D06pNPPil63oknnhjBuKjsJJHevXtHVE5EFaWUTqNGjYpYCOib9HgcHQEjwBGSyNprrx2NSyNQwgktEWa4WznRlMiVV14ZwT+kFJLa/saiRYui8UmE94bO81jQqaEdWDICOYpeuHBh0PvjyIMdaF7pnNiBUqjhvff+r7a65ygxSAimKeGqKdLItyYmV3Nc9dxW202jTec/u99Req+Dp5aczm2cX13bdTuazqXJROstO51mWnaSLcTOHQq8sPOjxab99981HX/zK+cc+Ljc3Na0xudM65Gza9ofnDuilKEZ6EOGDIlKx7LeSGmPiAQedNBBhpKmBCZCGWGg0MIpgz3gj3/8Y1SxMVSILtv7pTSLNhK4ZMmSaO0LqZ7FOPr3729+/etfR07Z1KlTRZFvossUaJD6G/RLkxHIvi+ps29tKvT9Z3lfQzuwKG7BggVRdZOQHZYmmDqrl/jss89GkwMTlo8AGaB8HtgdbZGUHmRHzLFOIboa6Hjxf0vZ59/RbTTvrXniX135UVtG/3+mZVg+6ck6l79vOp7+lWl/+qpukaxVboI9x1xkmrcoJarVWELZCHCgcFpsDgKVDClNGpIZT6Y4mEdbGhwIAW2FrA1EXuPUkTh7d911l7dW11lnnSgIZCF4rMO0/cYbb3i3ZR1Fe+Pjjz8eHf/Die4j4I2BINgKlDietBOSGAaLAcUebHSSKmM42SH+RlaOosSm8A/wn7TLzfu8r6RrG96BZfB//etfIyNj1+YqOFE4U/UgfMgQO7e1tTl3l+oc1IPOSsDmktzw9ttvOz+ifIJyvrG40EkDbdd/yXQuecXp2ka4qPlzY0zPfX7jPJSO524xK6afnnp96xEPm6Y1N0y9zl7Q+e7Lpes3cr4+5EKcb6APHX+62nS2hZ3IhDw3T/c09R1sWic80WVdokLU9ddf7/x8jmZxpGAfiAtVrziF8nFicV6Zb8uPeYF0US7cZ20gmshcXC6+kbx11103Cq589rOf/VRTHGvTV5+SspRzhx+1XHwrP8KEQFlUmAzigpNHdNjHid1kk02i91R+gglDEP/fx9/ImnUnxKbQEbpCZ3mVbuHAonz49fgA0+pMs1PEeR09enRe31nFfkGbcvnll6dilQYPHhwdveywQ/aZ6Tiv6DwNHwa4HzzSAQccUFc6r7fOkqC04sFT663bwf0V418rPLlp9UGm9Sj3xNCVb/3ZLL+15Az0XD2i8uoxsETnNWAT09S/lJVdOu72cYTj3SEhq/O9V83KhbPMypfuMSsX/SlYT41yY8/dfm6at/p6lw4HhwoYQBonKFRXOIpDhw6t2F+y2a+++mqnDPl99tknmtOrCY4w83AaN+ygQYMMp45QZ1WTKVOmmFtvvdWQvJYkO+64Y+RwVoOnQadFBay0IgI45BarWu15Tz31VASFS2O/IcoN1GOzzTar2nXeHZFmHNokgemBJGq4bSsJzjnrMSekSYJ+qOSGg561uNoUDis87PVwEtptHFhrHHzMVCnBkcXgwdCwU4T8mXC5LXmXtTFl1T6ZkPD2EXVmfByPsAPmo4XLTYvv1af/YMQoIYjOicyyG2Sy3HDDDaP+QB9D8kEh2Wug7Tc7mc73/5H9g3LwhF7j7jE91iklXTlKW4lurLNEO5YkzZvtb3rufrlji6VT/NJRfvvsZPxgU2t/Y1oHmKbeJSx66xqlf9cyTasNiH437aVTlRIsoHP5eyUWgXdKRSneNivfK2H6uwkdlquiuzr6Wt5P5mDWmVdeeSWah5nfmIe32mqriJLRNa8CR/gPf/hDVEyAIAzRS47lwc2CLR05cqRzjXrmX07rnnvuuSj6SeEZ2uIYnGgb64OL4AjNnj07wsYyPvrUr18/Q3Bk2223jcZH/1yE9YC2oCPjd8YLO4BdG2BmIMDhIlQx4wfoBOPj2NvqnPFZyEBaW+SUsF7BKAAEEbjDwIEDozHBG8t6xfrlImwacNKr+Rv0q9YRTgJLdnzkB/Hf2AHljLEpfCAwwvUgdeHAslvDCDAoeOSosmUNyiqc/3aRRndgXXRQXNN9NdAx90azYsYZja8Ab/zrq6ZtUnrZ0ZbRF5bwr0c4629Fif2ho8QCUUi2Gug5+r9N8zAZLzbOGI4nUTOcTpJkcVQ22mijyLnjp9bOBg4dDh5RRpyNuAPLKRrOFFSILoLjyvj4F6eMKCMOnq8D6/Is12twWnGmcGDROdjReHDDx4F1fWbadXEHtpK/gYPu6sCmPcvn7+gJBx2nmPdHdJpNA/AR9MR7dBEc1lmzZkWbIuvAEsTjNAB/ivGtueaaLk11+TW5d2AnTpzoRFoMITF0EdUieezIfvnLX6ZWKKlXCEGXW1LRgbrRQHcoL9v8ud1K+Fd3PGLH87eaFaWs/TRpPWKWF5617eph3YZ/NU13mf29BOvo7QHrKO+Hz3EvxWMq4UO1xwZmlcQpF5L9WkIItMYJPhTOWxcIAdUdDznkEK1HJ7bjCiEgfwQISC1ODl1hKTiysC6VY47tgH1sql6SqXPrwKLsCy64IDqmcBV2IIDDy3cPRF0Bk/vQTTFR1eqjcR1fcV2hAQ0NdMybXMLCnqbRVG7baNnlLNOygzvrAthgMMJJ4o1/ffs5s/yWoppc1kbSc9cLTPO/HRn0GOBNZFn7rA1g9aV8rUmdBV/KOjZ//nznMXE8zj3lDhVH1ySKpWE64w864YQTzB57ZMejy4aBJCcfJgICVGBOs8qG1/Q3nF+aw4U33XSTueWWWxyu/PgSMLXYQTnOlw0DPpCPTQGp/P73v18TJ915gGUX5tKBBZsDrQXhcl/BiT3//PM/OephgoJKJITWoh5otHz1U1xfaAANtN22j+l80z0Zqd601mvc3SX86/bO3W77zRdL2OC/J17fvOl+puce/+PcZnuJEaB91n86X19c6K+BprU2N62HTfe/sXQHDhRlwtMSrio1nlXWOI4mDmdasnGlPkGCj5NinTwCN1Al+nKlQrF46qmnZpLIzDoMAw4wQF/RLrpjn0+eCEwNof5GnEbLd0xJ14dSs4FHxn+yCYISGi0wumzw4CjOo+TSgQ19cVbBdnKBH+60004z0FqECC+NTEJA5YUUGmgkDXS+/RfTdkt2UZYu1ZUv/vXDRabtmnRnt6UU6WvxiPStuPdbJfyrvKxyl+oy5w9vLRWqaPIoVBEfDgtziKNo2/j5z3/ujDt0VaNvxK28XRt0IQjEEbcPVVW8LbC+ZPZrl1AHxjd9etiGg/7xzsB7aoq0YicZ+8ccc4xml6L3RsQ5tDgGEVioNRGpTdGPPffcU3V8Wo3l0oE96qijvPhDy5VB1iLYWbIRpWVNx4wZo1ILWuuFFe0UGtDSAJyncJ82mjQPHW167nuD87A6ni9BKn6fDqloPXymaSpRYLlKgX911VTYdc1bHWp67vbxIu0rc+fOjU7mJALdlLSN+PNJGsMBTaOoSuozDud1111nfPlRK7W53377Rf3REiLeSXRfLs+BvYHCD5py3HHHBTv69ANnn1KrRD615JJLLjEPPiirokcUlgREqU2BqaUqWx4ldw6stGydVTLVMKAxIXNPIpBN33DDDYbSeoUUGmgoDZTKjS4j877BKJladv6Bafn8ic6vygn/2ntN03r0XOc2V779fAn/Osb5+uJCTw306m96j3/sY6qxAPEl5a/0CNYEChe40jyldRO6LBs1S7s26e/gS++8886ItUciOMM4ZkAKNOS3v/2tmTRpkrgp3t36668vbocGoJsE5ykVzShle3u7IQfHF/pRPgbosIhWa9gUEAtXGjKpLn3uz50De8011xjIkqXCy4OaIwT7Wv5sJoSu4E+V6qC4v9BAmgY6nvm1WfHwj9Muq6u/9zroLtNjXfdCHW2ThpeKApS4VROkedN9S/jXK5z10P7sNab9Dz9yvr640E8DRF6JwIYKkUCfJKJqz9E80r700kvNAw88EDqkT+7jSDuk7GulB9OnasUWfDt65plnprIAubTJu4N5QUNgHfjd734nbgrqKfDUGqIVxCMiDC+vNIjHmPLKSpA7BxZPH7JlqVCYIK3yiOszNHdXrs8sris0UCsNtF0/olRi9m+1elzmz2n95tOmqY8b0Xjn0tdM23VfSO1Ty6ifmpatx6deZy9Yce/RJfzrVOfriwvdNdD0ma1N6yHh2GLwoSzIofjCeE81E32lmFzbL5wWgjcaoumgo6u33npL3C1NzCnlYzUcPIoAcOyvIdIcoHgfqD5GIrtU4EA+66yzpM2o3587B5ZSb5AHSwUqLQogaEhWGacafSvaKDQg1cDK1+eY5b9rrDK+TWsMNT3W29n0GFz6WW+4aepX+cjRtbxu62EzTNNa1UtQlr+DAv8qtcrq97ce+nvTtPYWwQ8gA14r6UbTmdJy8KiqFJLlX0mhWg665qZB05nS2jQANfShu0oyXq2oMM+gopYPRVy1fsWTwoI/vAxuzJ0DK81StDqiZB8VRzSEms61qFWs0deijUIDIRpof/QC0/7HS0NurYt7mvqsY3oMGVlyaIdHjm3TGp+L+k3yFklcSdLki39dPM8svzn72uZ1oXjlTrZ84TTT8sXviVuFHB+soVQ0T+eAqklxq4wH6qM5c+ZIhxbdrwmfQ1dU3pKK5nG2lr9BEQGSpjREyopg+wCLEn6QhGnDtrXbbrtF1Gp5k9w5sOBR2IFIhWoplN+j9J5UyHp0rV0tfVZxf6GBrtJA2617mM63/tJVj6/pc5tWGxhFZok+d36QPEc0b7K36fnVq5z71/7sdSX8a/6O25wHkNMLO9fayqx2mBwjyvAISlA6Virnnnuu2W677aTNRPdfffXVUfKVVMaNG2emTp1qli5dKm0q6pNW2VT4bVmTpaIZUNL0N6At0xCtxDLoP0m8uu++cLiNHc/48eMj2E3eJHcOLJytGp4+O0ewtNKXR51paEm0MjHzZgBFfwoNWA10vrfAtN1Uihy2f1QoJaaBli//l2nZZoKzTlbcd6zpmH+P8/XFhekaWL6y2fSb8LBp6r9B+sUOV2gc01KL/sYbb1RjqNFK3iHgAo5Siu3EAaLcq5bgVGu0x3qsxU/797//PeLLlYpmpBr+eiq9hRTYiI8Dh5PIMMUtpKLJ/CDtS/z+3DmwdE56lDJkyBBD9uTbb79tjj/+eNFR0Te+8Q1z0EEHaeq8aKvQQG41AC8s/LCF/EsDPfe62jRv5E7k3TZxG9NZoigrRE8D/9jkFLPxV89Qa5CTOenaoHmUzcBIKqOW/cKFyYwYSUqwWEWNKJ4mPII+w3MLg4AEkwm70Bln6NmBlr8BFKFnz55q9imlHIPiDe7WtddeW2xT22+/vYoTrKacWEO5dGAXLFgQcbMtW7YsaMwXXHBBhP1A4HCdPDkZ41btIZqZhUEDKW4qNNAFGlh+9wSz8m86R7Vd0P1MHtnUe4Dpsf4I0/R/SWE9qiQRdf7zhVIUe3Qmfeiujb7YvrHZ+tQ/qA9f4iSsu+665uKLLzZEYTWFvA0JHROOFOT1iITrdosttjBk6GvLrFmzggsR9O3bN8r0HzhwoGq3wOVSsTPU39CEkcQHduKJJwYzCMQTz//85z8HMwj07t07el9aVGqqL67UWC4dWAYJVgZKrRUrVniN+fTTTzejRo361D0Q+UIS7SPgfviAtY4qfJ5dXFtooEs10PauWXZjyQkrlVgtpLIGmkoE+lEyWJQUVvopUTsh7X/+jWmf+cNCbUoaeL+jt1nj6CdMrz5rKbX46WZCnDwYblgbcGKzkJkzZxrK1PrK2WefHSVwxeW8884zTzzxhFdTUC+df/75qpWl4h247bbbogIQPsJG4Sc/+Yl66V7bh2effTaKMvr6G9pR6rhOgBAQbfbN4xk7dmwUdY1LiE0RUeY0fJtttvF5VTW9NrcOLFrAqPiQXErrETL/7ne/azhiKBcwJZdffrmZNm2ak3L5gAGca+/0nB5eXFRoIAca6HzzadN2mw5ZeA6Gk30XevU1zYN3ihLCVnaTRLjslVqKsOx7i2kdOjLTR1Ft6o477nB6Bk4rjg7lNbMUnE7WPhemBEqZsl6BdywX6Kt+8YtfGCKfLrLJJpsYnF6t6mLVnom+0buLcAyOzlmXsxQtf0Ozj8AgGTun0i7yta99LSodWylnhyAeEXq3zZPDAAAgAElEQVQXm4IWjA1RJZty6Uetrsm1A4sS4HLF2KntXInXlQ8NpxWcKvx3ScLxDFmH1XakfCCwF+y+++5RfeNCCg10Zw10zJtsVjx4WndWQTH2LtRAzy/92DRvd0xNesDaQOITiVTLly9f5ZmDBw+Oqj+NGTPGcKxaC4HLlT6x9lUK4lBpif7ARZsWbIFWC4YDnLRKAuwA5we6pFoJfO/AOEi2bmtrW+WxnIISTdxrr70yiwaXP9TV39h///0NSW61EOyRCm0kwVUrSvCFL3whYgmw0Mlq/cKm0DkJfpVsitOF0aNHmwMOOMDwe94l9w5sXIFU1po9e3ZUjo4PDsd1yy239NYxWBdwIXDuYbBQTeywww6pDrD3g7rwBuooY6zswIkWsKPKg7z22mtReV8mJxgeGkmYaChPyWTMgieJYmCXHB3RRq0mykrvon32T0z703qZyI30vouxZKeB5q0nmJ6j/svrARy5UukJ8vbQCCnfsF0biH5xfEoSS2h7XgNIuHjevHnR2jd//nxDotaIESOif30Faq0nn3zSPPbYYxHmE8gBP2kOcLXnvPPOO9E8hTPNnBcqzzzzjOGH9WHYsGGRzrOOuKb1VcvfSHuOz99Z0/Fb2IjgYKIn/JeQTRV+FG1BJ4ct4QNRwbSepC4cWCKm06dPjww8vmsgSkrZvC9/+cur4F7r6SVo9RWn5957741IrKEjiwtOEBVMiCKETlYh/WRB4N2x4yvf/a+xxhrR5EnUe9NNNw1pvsvvwRlnZ0wU4cUXX/xUfzhu3HHHHc3ee+/t5IRyP7RvRIHKKVQ4ytl5552jiETIZBWqKBbx9387zny2/YXQJor7Cg14aeAfLVuaNQ66xWmeYk2A+J2cCb5FK+D3WNgJchClrFd55JFHzEMPPRSVhiUoYQVMKPyz5HvssssuqcNDN6wNjz766CprA/OUXRvSTjF5ENFqIoI4wkuWLPnUs1mPca6J5NbrKWbhb6SaU24uyLUDy+IJDqjcMaikPRy0c845p8t3yl31ZoFZwLjgAkKvVWlcKoBceOGFq0xylXSEI/u9732vps6Z9F2BKYKurdLxV3nbwFLIKq0mZHq64NTIxIUnuTxZQzqWSvdbnFrv5g5zwfB5ZnCfMFaQLPpWtNmYGnjx3dXNWXM+PlWDC5OjzEqC40RSD3RRacJpD3g+WGXqRV5//fUIiwpPaZpwGsn4qgUm7r///qgggcs8td9++0UYykrC/SSvuSSFEZyASSjPCUDlY8Sm0PkLL6Rv1nH0zzrrrLqyqTQ7qse/59aBBetBBtzixe58inw0P/rRj4KOVurx5dFnEtQmTpzoXcEFh4oMyubm5kyGTsSV5AEXwLjtAFFY3l89YG/ApqF3HwGnBEVOnC+QEwXYNnzK/VEikIRFTh6ykEo2tc7qbebC4c+b1Vs6snhk0WahAfPmh63mPx7bwnzQ3vKJNnBgJ0yY8KmkFJw71gbgOq4CFOcHP/hBXThUBGxI3PHhS8V5JYBT7qTfdNNN5pZbbnFVU3TdyJEjo01yfJ7CuaNPQBhchcRq2slqnnLth8t1oTaFTkKgHC59Kq5J10AuHViOO1igwXv4CrRXRG27GrPk2+/Q6yVchtpE3HYMYMjIinWJBpePmx07k0JWjnWonuP3EXmF5gZHz1d23XXXyLYR8MnUz3aJaJQ/BycW/sEsIhzVbGrLAe+b//eF9OiEr06K6wsNvL+82fzg8S3Noo9aV1FGvJgMawOOaLVkliRNgtPke8srpyV9xylnkxtShQkoABzolvpRUvmKxLBjjvk4gQ4YGPO5zybbvgecYNbjPDt5UpuCprO7+Bt5m6ly6cD++te/NnfddVewrsDfaJSjDe5AjW5kkqOySaWsWZcu4ARBL6aZJIRTByl0OQbXpT/2Gs1a1z7PdbkWXTOxk7wQKkRcweeRSMGCGiokTfD+NJ39NJsaNuA984Md5ptezf7Oe+g4i/saWwMfruhh/t+Tm5tX3q+caAqW8qqrroocs5CIYlx7YD05+s2rQHNEzkCoWMeTk52jjz7aiYKy2rPYpHMqBsaYog2hAjUXbeW1HLvUprKoDhaq6+52X+4cWIDq7Lhd8DpJLwsn2AWQXs8vXKOeNwlUGrWgrR416nlr1+DWfMeSqIbtB4ldHPeB+XXBWyX1/8wzz4ySJrTkmmuuMVOmTElsbvM1l5offf7FkhO7UuuxRTvdVAMftjebc5/czLz8XjJLCqdFhx56aLQ2UJJUImz6KDeeNyHn46ijjhJ1i4gn6wLJoJMmTRK1ZR0zoGZUq5JIVtWqJH3iXgISGjZF2dYiCit9G/73586B5XiWkLxUAKIDSG9k0ZhYiGpAKK21Ow6pbFPpHdHO+uuvn7vXB/YO6hGJgA2jJKLGxkFz90/0HLyhS3QZJ/askhPbu3BiJabQre91dV5REptaIorAi6QShyRI29K8X2NzTH/YGMP5Kt0cQ70IJOHkk08WD1M7UCLu0P81oBFwoam82pSWnvLaTu4cWHYy99xzj1hfZGmTmdmowlEvzoaGcDy04YYbajRljj/++IjLTyq0A4F13gSybw1hc0UimFRIXPQty1jtmSQyHHfccc5d2mSND8zZO7xgVu9ZRGKdlVZcGGnAx3m1Kttjjz0MGfVSgZJOAt2RPr/a/WT4k/wqFXD2UG9pCIT9aScyLs8B7nTFFVe4XFrTa4Cm3H333eJnQmlGlLmQ2mogdw4s+EA4NaVCNiZRrkYVEqW0sFw//OEPzfDhw8WqIimJo76VK+UOTVYJZpJBklRoExsk7XAvMAJ4FDWEpCsNzsUQm9qw/4fmPz//18KJ1XiR3aSNZR09zI+f2DwVNlCuDnDj2KhUPvOZz3gziEif6XI/kU6qU0kFMnpI+DUEcns4dqXCqdPtt98ubUb9fi1/I8+wN3Wl5ajB3DmwGke06LfRHVj4D+HZ0xAtB5a+HHjggV7UWdX6H8+C1RijRhuFA1tZixv0/dD8aMcXzRq92jXUXLTRwBpY1t5kzvvjZubFJX29R9noDqwGJh6lknjlwp3u8gK0NtqFA+ui7eIaXw3kzoGVZmFaBVBiTQMv5avQWl2v6Uyhc8iwNQTsMeUcpZJHDDOA/4MOOkg6tOh+MGEkWkgFnJovz2O1Z0KaHorLHdBrufnh5+ebof3+VS1IOrbi/sbSwDttLebCpzf1jrxaLVCjfcaMGWKl5BVCoBUNhHeVXBINAcZFBS+p5DXqrZWzkVebkr63vN+fOwdWStlhFV6ralNd9YJJuBk/fryhfKxEWltbIwylVnlSLRwXlak233xzydAyuVfrmI8qQhoYbU1aIIpOkAUdalOtpYSu07edb7Yb+K+Snpm8hKLRutPAS0tWMxc8vZlZsvxfRQp8BtG/f/+oQtRFF13kc1vFa/N4ukNHJZze8YGiJzbHUuYA6PkIAmnMU5rJpmIDiDVQ+Bua2qx9W7lzYOGvIzmpoNFKNwYXyqO0VsaOHWtOOumktMuc/w4pP+X4JAIdCcl8eRQA/wD/JULxARxY+HKlWDWOHTUr3WjY1H/t2Wk27ZDj5iQ6Lu7NjwZeadrKnHn/aqIOkUwEjRblZaU0WuRG5LGsrMapGjRafMM4sDfeeKNI57vssktUVIHEThI8JUKFRSoR5k2g7dSwKRLUSFQrpLYayJ0Dy/CLQgZuRpBGOp/WCoUMfvWrX6ny1xEZPv30071KDpb3M++FDCgeEVIpx45Tq5ABjj5HYLUsZOBqU595439N+2zZRibtWcXf86+Bll3OMm+us5854YQTgpM7i0IG7u/ZRpeXLl0aJZwSEAoVCy2TRimBpxE516JqDB1PtfukhQw0T8G0x9bo7eXSgaUGNJEln1rX9kXBawqPLLWhu4NAxTRx4sSgoWYFs3j++eejY6fQUrJEJ/Mss2fPNhdeeGFQF8HxEXmNO7OhrBsc74H11pbbbrstmJorblPL5t1plk870fTq0aHdxaK9nGtgWUeLWX3fiabXRmOinkqchDgenujrGWecEVxKFmhSniNlFDNg7QvZIFO4h4pXwC2QBx54wFx66aVBlrLPPvtEVR6tMJ8/++yz3m0REWY+33LLLb3vrdUNjW5TtdJjVzwnlw4siuDIgo/GJyGIWtdEt/J4PJTlyw2pyAWnIlGRrASnjHfhI2TPMtmttprsuNHnmaHXktjgy2toK3DFnxlaZ/y73/2uge8xK6G4xR133OHVfPmix83vvvons3jyoWa93ku82iourl8NLFre16x18GTTd/1tPzUIKmD58rhWotPDyYM5xSfAwZwCT2cecfXlbxoqLdY+AjmuQuDm/PPPX+U0LWQzOnLkyFUYbjhqp0++7AZQPRKhzLs0uk3lXf+h/cutA8uAMCoiXVBGpQk8bJTn7K7l3HA2brjhBqeo58EHH2yOOOKINJWK/86OnYjHkiXpzgv4KCIrJJXVi5DpyxG+CyZv7733TiwSwKmBS+Zw3759I4jG5z//+czVhE3hyLrIkUceacaNG1fxUo4xn7xsP/PFPs+7NFVcU8caeGzpVuYLJ00xffr0qTgKn0gs2MQDDjigYjskGlKMYN68eanaIgMeesYNNtgg9dq8XEAAh1wCmEHShCI0YEyrnTqyabj66qud8kqSEtyWLVsWnW7OmTMnrUuGAiuUuSY7v14EmyLo4uJv4GfgnNeTTdXLe/DpZ64dWDsQEoOgT6GEZxzTAzZq2223jZJYRo0a5TPuhryWD5DI4KOPPmoWLFjwqTHi4LMTJkpWS3gFEcZp06aZRx55xPzlL3/5VJ+Y5IhKQtVC9LUeBXukchwR5/LoxLrrrhuND+cV/acJ95N8QXnD8iPEYcOGGZIqSLrTYoxI6w9/ZxOJTfENltsUkzcV73h/LjY1f/pVZuDcC0zvpjaXRxfX1JEGlnb2Nf/c9kdmsy+nb4w1beqZZ54xYDQpChJfGzi6hjeW7PcxYz6GMdSjMG8yvj/96U+GudQKEWXWPuYDl+So999/P5qnHnvsMfPyyy9/ShXMU3zHOK/AENKEeYo5AZ2XBydIUEXnu+22m0pxlbS+ZPH3wt/IQqvZtFkXDmx86Ex+ixcvNmuuuabTx5aN2vRbnT9/fuSgs+PGEcUhsA5CSFQZFgd28VTFYoKCL9RXFi1aFE1SHGmRIQtEY/31148mzlBME9QuJBgwUfIOu1IYFzp/9dVXI4eRYzh0Dq40BIbCAsOxJroHZ1ctCuUyZmwA/dOGi/Pr0qb0Go4RbTYyNhkC9Vj0yp/NygdPMGu26VQKko6puF+ugebNDjA9dz3fmF79nBvj1ALnk02trT7FN0fEjrKcPvMVNsmmj8gZvw8YMCDaEDNP1QNkIE1p6IdqWC+88EK0oSSivNlmm3nPU0RQcYSpZsZmlPlq6NCh0VyOE8zpjq+888470TzF2hCKLX7uueeiftm1YdCgQdH8y+af37tCWBNYG7ApxsfaYHVOpTMfsXZOiXXmUNa+TTbZJBpfV62B+Bv0a+HChZ/yN6i8NmTIEJ/hdem1defAdqm2Mng40UmOapM4+zB2jvwxrloIiwrk+Emg/bXXXjsqG0tEt96EKAQUM+URxfg4mNg5EtekqKo3PWn2l0UTiAsJfsi/b/S6OWST1zQfUbRVaw20rmF6jr7QNG+yr/OTCT5MnjzZPPjgg1XhTkRPiSySEJi0wOPU3XrrrZ/YVKVO4CwAmaK9ehMgRWBY0+apww8/PLEUOJFpOGanTp2aCHfiFJN1xiUKq6FLKAl/97vfRQGpasIm5JBDDqkZFAGbYp7CwasmBBSoOJlkUwQxpkyZYkiyJmBTTThVgx6O9aYWMnPmzGhtT/M3sKlawNSkYy4cWKkGA+8nMnrZZZdFE7mrJGHCXNtIu47MVZIt6J+LAPg/9dRTDYtOPYgPBo/xgMGDlzivFDD1oPNq2dDr9Vlmjt1qgdlyQPUJvh7G1x372LzZ/qbniHOM6ZN+5Gz1Q1QLLGqSwxLXJVH+H//4xxXzGnzZV3bffXfz7W9/W5VyLqv3DhUhzDJ33nmn8yNwOHD0yoWILTpE9y4CrAs8LdHGrAR2ml/84hcGNhcXge6Rd0ficZaiZVNsGNBhkhMcHwd5H+R/uEBBQsePTcFIkTd/I3Q89r7CgZVqMPB+16Sd8uazLLHKjp9++Qr4KbKCmWjyLCFsDYwnr5V78qxr2zeiPnANJ8mowW+bIzb9u1mjtaDbyvs7bRqwsem5289Nj8/6kdIDrSH5ECymj1TKrvd1NOzzYO2AvSPvEsqDXk6LiK4ZL/AvHwEaREXFLKKCHR0dUfIdOFNfgX4QGsIsJLQKWrlNhbI1sHbCkgGGOAsJLZn7jW98Q618ehbjKhzYLLSa0maoI0WzRAKJeGp/yEwoZGC6Rl7Lh0giz/HHH98F2nR7ZOiiZ1vP+4fspoXaXoVNQYvG7j9N+rS0m8M3+7sZs37148S0Noq/Z6iBEr61506nm+btjvF+CPhyMtJ9HSn7IDD88JuCs2STze8uNlWpo5VoubwHlOENoY6U7RJVs0gaDXWkbDvVaLmkQw8N3PBcnLwf/OAH6rRcoYEbqwu7ccA5J/JanqzsqrOsNg6+p47l/c1y4+Cqm2rXFQ6sVIOe9wOcp0IK4PdQIdGBXaym4LyGEurTD5KNiByEJAJojqNSWyx2fITl2bc+zyVBgUhiASVw11qITW26xgfm28P+Ztbvu8z9QcWVmWqgeYtxpueXSnCB3msFPUfqIPBQTniGDx8e/RvqINAOjhmloGGwyZvgAH3nO98RlW0lXwIHHx1B8yQR7dM+jtaPPvpoUXUwGA44btcUDZsC8kGyF1CH0CAQY9LeYGnYVBb+htb7KxxYLU06tqMxmfMojgRgBNAQIiTgPKXCx7vnnntKm1G/n0zS73//++J2we/VA7BdPFCFBqQ2NXb9t8yBG71h1u79L+oghW4VTXhoAJhAy4izTY91d/S4a9VL+W7I6JYIzCBs/HHwpEKlqzwmZ8KkQHU9qcC9zYnTww8/LGqKZKU0+I/PA1zgRC7tXXfdddFGRENg/dGwKZxg1hmS0iTCuODe1gqUaNmUpr8h0U/5vYUDq6lNh7YuvvjiiNdPKpq7Y2mtazsWsLBUa8mbSCAb8bF87WtfiyIIhaRrAD5bJj2pHLvrWmbsoJdM57uf5q6UtlvcX10DC5YNNJt+/TLTY/2RYjURdSPLWkPGjx9v+JalUl7OWdqe1v0UG/BJ3Kr2XI60yfBPyn537TN90qKyIpmMLH+pnHLKKeYrX/mKtJnofhxODZsiwYyod1J2v2uHwR9vscUWrpcnXheKfS1vNKlQjUpHAxspHNhAxYXedvLJJ3/CexjaBvdBFA0WVkNCkwbKnw0/IUcpeZOQo+xKYyAKpBEhyZt+suiPlk3ZKFDHi/9r2p+42HT+M70qXxbj6Q5tznunj7nt5cHmpY/Wjah2NETr9IO+kKUdkvxTPg44Ri+55BKN4am2IT3Ktp2BegpeVQ2x0A2Ntgi6+JSGr/ZMzWP2X/7yl2b69Oni4cE7/NJLL4ngA7YTmieZWjaVBXRDrPRSA4UDq6FFjzZIBoKkXiqauBQtB6+lpcXcfvvt0qGp36+1acjrwqeuMIUGtWwKQvu4M7Xy5almBY7sW39W6GXRBBqwjuufF/f/RCE333yzqBCHbQjOZS28PiVTX3nlFfFLK7cpcYNKDWg5eEDLXErQunRby5kCi4njKcGH2v5qBm+0HDyKZ0jyWuLvopxNwuU9VbtGy6Y0/Q3JeMrvLRxYTW06tAX+iooqUtH8iLWiZY0egc3rRyy1pSzu1zq6qobDW/n6HNPx3C2m4/lbs+h+t2jzD6+tZX7/j4Hm+Xc+XUFL08HTjMBC+k5pVankdSOq5Uw1egRWk9ZQMwJLkjCOulS0Ng30Q8vfKCKw0rfaIPeDb5GC61GF5i4NvBSZuVLJq4N3xRVXRLW7pfLVr35VBfAv7Uc93C+lA7JjTIVtLH+v5MTeZtrn3lCCF8g3hvWgW0kfX1qymnnotYFm1utrmQ/bWyo2RTlliqxoiDSZL94HiPqpvCWVL37xi+IMfWkfKt0P0TxFP6SCg3fXXXdJm4nup09afLBQqdlKfJLOaTp4VN2iMpxUcPAoiYu9S0UzWVjL39CEbUj1E7+/iMBqatOhLS0WAnaOG220kcMT0y+hfjj8gVLRTCyT9iV+P2VMpZQytKc5sWiOL49tadmUT8LGytefMB0lR7bjxbuN6ShouKxdvL+ixcx6bYCZXoq2vrp09VRz0dwc8zCNKBCbY7LFNTLGfWwqVVmKF2jBLYDvkAwmoUVkWJSUJbChlREv5eK2qr7++usNFcM0hKipRi4J0XPWGenGoX///gaWBeB4GqJlU5r+hsa4bBuFA6upTYe24IE99thjRTu1LCKdUswiPLBkrPJv3gQeWKoAuZb2q9R/ylpyLN7c3Jy34eW2Pxo2RYawN2cnUdmX7jUdf5tuVr4605gV3a9U7YcrepjH3hxg/vjWmuaJ0o+roGucFi2aIp6rsWnX4oEFqwhkytumXBUouI7j5xNOOMG89tprwa0Q1LjoootyyQMLKwJUaDBThEoW0XMpdMPaFAlqvD8Jzlc70qlhU5QVDqnQGfqOfe4rHFgfbSlde88995grr7wyuLXzzz/fDBs2LPj+SjeSHEFkIlSOOOIIc/DBB4fenvl9c+bMiapChQolGSkbWIi7Bl588cVo4xAqWja18rXHzMq//d50LJhuOhfPC+1O7u9r6re++WidL5mf//ZZ86dFqwX1d7/99jOcpGgLkdPQxKKNN944csqQuXPnRtWYQoXgwT777BN6e+b3PfTQQ+YXv/hF8HOoBAVbA8LvoWwEAwcONECvtB19EjKpDBUq0FCSzKcpUpuy1c/oE++OdxgiVOKCd1dz80g/gKUABQmVuE2FtpHVfYUDm5VmU9oNNfQsS5rOmDHjk4XCRy1MmBzRU+ovzxLKB6uZNJBn/WTRt9DNGkTzbBq0bapz6WvmjTk3m5dnXWc27bfE9O8lT7rIQm+ubfZY9/Omxwa7muYNdzdNn/m36DaOjsn89y23yskOXJ3aTgt9AlIClOD99993HVp0HYv5BRdcYCgnayX0KDorm/IakMPFoUm15dAPdM0G8o033nB46r8uwZGiGAJYaG0hIkgAhoCCr2RZgCIUs49N0S8roSV8e/bsGX17W2+9ta9anK4PzQPJ0t9w6njKRYUDq6HFgDb4kNltTZs2zfnuWmBM77///qhfrscgI0aMiBwNPsB6EJJAbrzxRueuUrwAvWvhwJwf3EAXYlOXX36584hqYVMwgYBp7t3xjtmo/0elnw/Mhv0+KP37oVmztd25r7W8sGnNjUyPdbYr/ewQ/du0zvZVHw9fKo5Ce7vbWKgw9x//8R+mtbU1syH97W9/M+eee655++23nZ6B0wrvMvCdcrnjjjuiikWuMmbMGHPiiSeqb4hcn+9zHRsPcJCM0VWq4ZbRNTpcsGCBU1NgMPku4DXNSlasWGHAVM6aNcvpEWxiOZofO3as0/WhF2nZFBCJc845x3AC5SJsGDlVyLLKIzbFHJw3f8NFP0nXFA6sVIPC+wnvw52aVMGD+tYcp+6www7Cp7ndTkURHL2k4ycA/hw35vk4rtpoAbbjxCZN6mTejhs3LpclJ93eYr6uIsGBjN+kLGRsCp3vvvvuNek8UUGOM2fOLOFkY7JmrxVmvb7LzPp9PjJD+rebbTdY3Qxqfd80fbgo+341t5qmvoMNcICmfuuZpjU/Z3p8ZptSOdfSt9/r03RXaZ0hQQU7TyL/X3PNNc0BBxwQ/dRCFi9ebG677bboWBNHppKwGcbhpIIX/asmVHVinsqTTWnqEOwwukqap1gbgG4NHz686qNxqDi6pzpeW1tb1euoboUjzHdYC4H9hkpY2EQ12Wabbcxhhx1mttpqq1p0KaoUxjyVlC8Btd9BBx2UWA0MPU+ZMiUq6ZtUEW3nnXeO7Bxqt1oIcx22kOZvHH744Zk61FpjLRxYLU0K24EvkXrh/DBhbbnllgY+P5zWLI5yXLq7aNGi6KiHPkERAkG27VOtJhSXfoZeQ0SIWtGMjwmLxQDaJnbCtZpQQvter/fhND755JORznE8hgwZEukcO9988827ZFjvvfdeZAds2FjA+vbtG/WJHxbQ+JE6VF2d7//945+lr5vOJQtMZ8mx7VxeShRr/9C0f/S+aW9banp0tJmePTpM28oWs7Klr2lZfU3T2m9QyQntY5p6lQoGtPYv/VtySFcfaHpYZ7X0r1ltoLoOcBCsztlIwNccH5/6Ax0a/PDDD80zzzwT/aB7hO9uu+22i37gonUVbIp5iveXF5ty7bvLdVR4wi7RFb8THUVHvvMUCcR2jeFfnCzaYU6nLaKvXSG8MzsPk8AGlAX73HHHHdXK2PqOa+HChZ/0ibUZ3K2dp1gnfIT3xvtD5xQxAibAfMf4kjZoPs/wvRY7sjon/4VELfrUlf6G7xi4vi4cWF46BNYYAE7Hm2++aQCZ28UPDjb+20UI6xOBI8rIxwJmhaMqEgXActKWizAZMGkS3cAYwBmBHRo8eHD0AUK6TZsugqM4e/bsaHwkOnDsQ5+IAtIndte1nlzYtaMnFj50zo4NPBq7TyY8jnn53UWYDHh/LDDoHGwW9bWZFHbaaadofL1793ZpqrjGUQPYIzbF5IlN4cRwFItjzmLFzr9fP7eIHnaJrc+bNy/CMiK0xSYL+2Rir7Vgk9gUDhm2iUOETZGFzcLQFTZFJR44ntHXq6++aviuiWYxT7Ew8M2QsewiLOp8f2wc+WaYb9A5zgvj4/3VWnj36LyaTTE+VxaSPNpUrfXp8jx4RfmOcYCYRyU25fI8l2uWLVsW9QkHCOenfG3ANrH5QvKpAfwL4Bu97oAAACAASURBVBt8x9hU3N9gLsd36SrH2ldjuXdgJ06cGIXh04Rjx6OPPrqqI8TkC+4mjUgZJ238+PFm9OjRVR/J8dekSZPMkiVLErtF9AbsTiUMFzeyA4YwvPwIs7xRIkAkEtGvWghHDOCBcO6TBEM//vjjqxo7HwbUUzjBScKiB0n5/vvvX4vhNfQz2HgA2NewKTZ5tIUzliRs2sgyx96zFh+b4nuh+EQtBOopjkTTBMgNmfDVhNMX5ik2xUmCsw42uxaOLDbFPIXTkiRs4A888MDoW64mbGLB2KdRRXHqxNxCMKA7CmsDyVwumMU0m9LUH+sCxP9pVFhsspgTXANLmn0s2qqsAR+b0qbzyuqd5NaBRdlkn9rjJRcFEJ2A8qF890DUFSA7R4WuAgak0kQMZi5emz2tPQiXzzvvvFWOpHF+6ZMPNynRLhItskqYInGL7NO0hSo+Zpxz+D7LJyo2DPDrJeGbynXHJgSHv0iYSrOqyn/HuSOTNc3hjN89cuTIiMi73KaIJMKU4ZoEBPE27ZCVm5UwLhJMfGwKbOeECRMysykWcuwfZ99VOELk2yiPVtIGVG9Ek13lm9/8Zqb41a62KZJbLC2Uq07q/TpsinXMZ23Aprgnq5Ms1gY2MQ8++KCzelkT+DaqBXCcGyouFGsg1N/4/ve/n5lNiQdVaiCXDiwZ+tDAJCUfVBs8TizZtxa3xqLHJOhL30L75Vn/oVQbHNVCBGw/5FCqDfrEkTuLnza9EG2H1q8H7vDzn//8kyNpjr0oGwjUw1fqZefnO66sr8emmGx8nFfbJ/htcT6tTXEsz2LoykRh2+F+vjXIxrUFm4LtIqRUo3ZlKTs2jvXZMPg4r/ZeotVsYG1hDDbZZ599duqpRyW9nnbaaYknRqHvgjmT9xlqU7wvK8zlODMhNgVzQS2i+6F60rxP06Y0+xVK7cXaQCBKm9tUc2yN3hY2xXfsyooQ10eW/oaG3nPpwIby/FmF2AUL6ggmd7JxQ4QFGeoJsJ7SknPx6lmhk4EdQxalEKUl53bbbbdPSvJJKzBxf1Z8eCF2UA/3aNkUkx3VcsBzhghRxaDqWSkPk9oUJwvaSWKhG1o7VMuxyDzFcbnFF/vqPYvqWfQBKMP06dN9u/PJ9bZ6FhFF4F1px87VHoTzA0QjC37a4MFldKPvCV95N7KgWpSW4s6ielZG6m/IZqU29e1vf9vsueeeudRNLh3Yo446ypkrsJJWWUTBzsL1CB+bRKBzOfnkk6MIKrQmEiEyjDPMZI6jECpEciWVvCo9lwhcqKNv26NPAPwlFb1oi2iLpGpWqF7r9T6SHKU2RdIFmzVwnDgLEqEv8OdqibRKHP3QXkSljj59wjGD75PCAzjoEtGuoEWkG+iFREiowwmGJpBxSiTvFbQkY7P3Ah3BAQ119OM2pdEf2wYnA88++6yoSXDPrkm/ogcVN39KAxo2lYW/ofWacufAgnnlaE0qVMcgqgiWTyLQubCgM5m74gGrPY+EEjLv+ZilohlRIksdwL1UiCgx+cLtJxUWvOLYyU2LU6dOVbMpIrls/CTCQqVh47YPoRXUysdw8803O2fJp42fzaxGfXAwvXfeeWfEXCARvhWI/bXw49Losh0LsCSc8yTeSZdx57keu0v/Xa7RtCktUnyNjQxjL6BhLhagf42WTeX1VDR3Duw111wTEQBLBTosMl5DsK/lz4ZomMVPKiSXwZ8KFY1UIK+muIGGaETd6AcwCbCYaRnULn3OCtfn8ux6uwYnSOoAMWYyyImWaQjfsVYGMkdYUgeIMWmWoqS2OGwkUmFTC8G8hmhuajWibtZx0djQ0lajb2q1bEqz9PXvf/97c/HFF4vNE0rJiy66SNxO0YCfBv77v/9bHMSz33GtWJB8Rpg7B1aKdbOD54PRcKRoD7ooDaeTtuB2dS3rl/QicdDPOOMMn3dd9VopftI2DEE6EVifLOpqncoq8UZFYTlrRMvBgwNQwxFGPVo7dhI6id74Jv9UekWaNgW+MyR5q7xfJJ2GJFdUGp+mg85R9ltvvSW2dBgEQpJxKz1Y00EXDyyDBrRsShMuI8VPWjVxkunD3pOBertlk8Af4cyWiqZNSfsSvz93DqyWwol2gg3UEI6vpMeqth9wJabxq7r0OZ4U5nJ90jVamwYyqnE4NCSeFKbRXiO3gWOmsWmg0hpwEg3RcqZIJtPa+RPt1IDKoB8tB48oNVRVGqKVwKO5aQAHK8XWW93YpDANXeWxDS2boljJJZdcojJEaSJfvBOaEB6VwXWDRoD1afhBeYXw5M6B1fpgOKqnio2GUNRgxowZ4qZgNaAMnYYzrLkYa2EMwT4SgdX4YGyGtljp3aABrU0fHK7SREWrbr5jnBcN0XLQtRw8xqS16QOr6MN1naRPTQdPy6Y4KZLmIWRhUxp2qd2GFhRI83ROCwtNQIniP4XUVgNaUf28BpRy58CCl8KhkgrVSSi/l1bxxeU5ZOizIEuFnTFUPvfff7+0qSjrXCvTWwvozTEDBSgoUScVJnOtRARpX/J+P9gyjQ0W9Fk33HCDygnBrbfeGpVW1hD4balHLhU4WynpqiFamz7gEeAMNTZ9mpneHNdTblIqxx13nApjSmtra+QAadmUdFxZ3A/GVwODTs4GPxqilVS93XbbGfh8C6mtBkK53ct7ySkYc1XeJHcOLFyITHpSoYoQ9duluBtKGlKBRON4h6o5RKUgiZcKk7lWvWIgDUceeaSI2ovxUCWMCCzJCBKBBk0jaU7Sh3q6l2RFDZu6/vrrI/q5hx56SDR8MOPYgpbce++9UUlbiVjKKkkb8Xsh9z/xxBPFzTG3wLUqdVzA0lJMREs0qL3gbWVDBFsDc7FEKLYRL4wgaSuv91J5S2OM0BlqVr/CGZZQe6Hvk046yYwdOzavqm/Yfs2bN08lV0YzKVdT2blzYBmcNHPO4kOhAIE/UMK5aosGSIsr4JRdffXVBjD76aef7lUmsPyFZxHOlyZyMWGy2wM/h85DKibZcWom22h+LHltCyJ8LZsioYi2JKKVwGX7wPdLBECyiGYBSZEe+drECL4VuK8liWqa8AH0jk2RHCg5wbLZ8FIifPqjCUmR2HbW90qPfLNItpEmcg0YMMCwvnSHQhRZ20dI+1Kb0oSkhPQ/6Z5cOrBk6XNsCCl+iMSzVYkATJ48OaQZEwfDs4iyiwytlhOvWc4Re2iBBWpdA9CnRJ+mkCxzwgknmKVLlwY1S8SNyBsybdq0KGodIkTKINQvrxMf0lZ3ukfTpiQbyCwWUN6jhOoNdgy+GW2bAtbAPBUqREyJnCKSDeSWW25pLrzwwtBuVL0P5hXKgIZI3759o+8Y5wXh+PjJJ58MacqMGjVKvKkKenAX3CS1KU6/YLrRFDaOrA2hQQlOKnbffXfNLhVteWiAXKDQEzH8DfwpbZvy6H7ipbl0YOkx+FUiOStWrPAaK9EjJry4hFTRGjRoUBQJjpPp47xSU9j3Q+bjLT9uDDkW7dmzpyHqk1VdcJLLOIr2ZUmoFN0KwQj269fPUK0M2EYh/hoIsSmiImym4jbFZg07mzt3rlcncKTOO++8zCItIRhBYDZ8x9obPquYUCcPnlXqjMclJDEM5gicV76dLIQiC5wc+QiLHmOxzjn3MqcwZl/KsGHDhkWFbbpT9G7mzJlBcJBKNuXz3pKuJahEJM+XV70oYKD1BmTthNhU1v6GbEQf351bB5bOUb4Oh8bl6LClpSXCDxHuLheOw4gGEBl0ERwoEj4qEbFDeXPWWWc5R2JJtAI/W6lCDslTYHVdjg6BHjBBAY/IUuCMw4ldsmSJ02OSsE133HFHVB3IRdZee23z05/+VBW75fLcRruGBEGSeVxsqn///pGjGnc0rD44/WDn7crhScIdu3ySbbIUksNuvPFGp0fgtOL8aOIBKz0YHeEkk8CYJjhibIIrJSgCv+Hduc5TMJrw/tZYY420x4r+jk0xf7pImk2xwQFS4CK1simXvtT6GmyKtc+l+iM2xXqV9dpAAIe1z5X2TZP1o9b6b8Tn4W8AxXGxqVr5G1I959qBZXBk5+IIkWVdKVOXY0Gc1oMOOsiss846ifoglA7LQbVFGccVeioipkk7fhZ3Mocp4UkyRyWBwJvdJ3ReSUKFISqPQTVTyVEnggSN1wEHHKCWtJVmNOyyGRsVgipNVjgpwAXoEzCLJCHigs45PqyERSbSvffee0c61z7iTRtno/4dm7rtttvMo48+WjGazmbhK1/5ioGpIy0RELskCkcyQCXZYostIjaMShvHrPSLTUHvQ4Z0JZvCYeU73nPPPQ3RwFoI3wmJWEQ6KkWpiJByMkS1s7QKZcBBaKsamwffHN/MHnvsUYuhRc9wtan99tsvNRqcR5uqmSI9HvTmm28aci9Y+yqtDdjUmDFjDFjjNJvyeGzipfTjnnvuiTZZixYtWuVa1gZgRNhBpY2xVj+KdsI0gE0xd+bJ3wgbycd35d6BjQ8OQmyOMhYvXhwtvEOGDIloqXwFB5QFmQQFfsfxJZqR5gBXeg7HrGTsQgAPxQssAzgHaY5Bpbaef/75qB0cdXB7ONQhXJrgWGkLY2W3xYKOnkL69Nhjj0WRcHRFpAc9MWH6Co4G+C4WQiZBHFcWYt6hr+AskLH7xhtvGCLvjI/ja3aNjSBEOqgix/vDqR88eLDBUQw5RrU2RUQdmwLLlLbpqKRD3hvO2SuvvBL9ecMNN4wcMrh/fYUoP98xlZ6wKY7BeX++gp0/+OCDka74nb5wLB8CsbE2he7RMzaFzkNsClYBNsu0iWPBJpbES19hnmOjjL6I7vLuhg8fbiAV70phY8u3DG4ePW299daf4N99+qVpUz7PrdW1vH9gWXzHUpvCzvmWaZO5k+8lxKb4Tnh3zJ3Mybw/7CkOlXPVz8KFC6P5gO8YzDPfX2gUmKp22AP9Y55ifglZG1g7GR/fsV0bWPvon69o+Ru+z63V9eiJd4jOCGowv4T4G7Xqb6Xn1JUD25WKij8bp5cJhYlcGoHVHBOONDv2aiUumaiI3BDRTRIiSOApqfWetMsm6h3iDIWOmaNMdv/VSuPBNUiEi3/rTbApG/WulCjIAsiRKpGNtKi+5ti1omXYFLaJQ4ZjVi5s/nbeeWczbty4VKdYMwKrZVOaEVjw/5zKJEVgiZ7XMjGGb44+pUX1u3sEFqeQiGnSPGW/47R5ykZgq0X1CUhw8uES1cemOMmEcq+S4LjstddeNbcpooGsW5XgNzjq2DgnKWkYbzaNJHoS2KgkONb777//Krjz8mtdT3xpK2Tzrjk3F23VWQQ2Dy+MhQowOztYF+GYfcKECRUxsC73u1xDohv4UdeKPkRMGEOlI3sccv723nvvuTw6yk7N+iiT6CFYxmqTU3lHR44cGeGhKW1bD4LDCpbRx6ZgtchSWFDIQPexKbDTlY7scTh5fy42RbU66Juq2ZQPpQ/RJbCBlTCwvjbFQkq/KtkUOgKv6ELXxxHrGWecYYAYlQu4Zdg72By7CEe06DzkZMWlfXsNG1kwsC64aiLq9KlSlBibwg6qbbDL+4SOYHmoFQzERyeVrsWmwIhWC2qU35NkU2wcyY9wwStiU+i80skDawPtzJ4922l42BSMEVnDuXxoKbEpsNOVgiWc5pEw6GNTYPVJUCoX2vjJT37iVJabeYo1huqFhXSdBooIrIfumZhwNCpFkJKaydKh8v2AbT85LmBSiC9+Ph9wfLyHH364OeSQQzw06X6p74bBtlwvi5+PcxfXWtLi567dylf6One2lUoOlY9zl2RTvs6dbauSQ+W7YUiyKR/nzrZTafHz3TDYtnDOWcCzwkD6bBhsnyo5VBKbqoVDJf1mJDZV7lBhU77FYDgup2Jk3KHy3TDE1wbWuaxsClYLcPU+gkNN8mPcSWdtYIPqumGwz6sUwPHZMMT7HafH9BlPca2OBgoH1lGPHIGy4+JYJ0SyIOdnUWfxcs0UL+83kwEREaJKRP+gIPOlSbFtnnbaaanQBF+9EdFi0vKl3rHPyXv1HujYzjzzzGCbyoKcn0x4ovmhNgUGlXeGTbGw8HuITcHawYJs4S6SmuywERBNBucXSudkbYpj1uOPPz76T7LpWUB9qf64t5yiRlLykY0DkSPtMqtkLcNVC4uLr3DkC30hDjY2RYTQNUpW/ixsilMhHP88CjZFpNjXkbJjsQUfrE2hK5dod7kusClOAmz0O4Q+0raJTdFWCO4+6R1JypbHbYq1gW8v1KZYG5hfsCnWFxh+fOkjGSf3M8eRuFZI7TVQOLCOOvc58qjUJDtIyMpDwOTVugjInI9QIrZqkoRIneeTaMQxo+axPQlkOFOhwuRCn/KKVdKwKfh2NRcZDZuyhUQ0bApaKRzEY445JkoaChVL6SO1KXR91VVXRc5wCG9rvP/xSlzSioFZVOLCUQ8t3MI4NStxxYs+hNpAVveB67744ouDm4/blLRqkrUp3huQlxBH2A5E26bYyHznO9/JjU0xt7A2QC0FhjZU2DCwWSik9hooHFhHnYP1JGNPItrHDVQXcsXLVes3R+3s+EnIcsHwJY0/Xo1Loid7L9FJMm8lAgY5a7xoaP8oH+rKqVjtGTgZRAW1BLzcQw89JGqO6Ab9IkIstSlgLiQS+h6plg+AzOaJEydGEW+pTR188MER08hxxx0n0hM3U7ceByi0WqDtgHY1LpJ9mBckgmPGBgtHgcibRPJ8mkIQgY2fRLApErJOPvlkSTPRvdg5R/RskCXCCR2RfS0JLfoRfz7wFCgCmRdCT4lse+Dsgb8xT0kFHmhYSwqprQYKB9ZB31BbsXOUiuZOjWM9ksMkUSnGA3YKx1NjooLWRRoRtjrmeJ3xSYUdNgto3kRaMtKOZ/vtt49gIBpCwggTeshRWvz5UE/h3F100UXibsHnCmzn6aefFreFQ8bCJxVsCgd20qRJ0qaixRMHFgohqVCpLIQOqdJzJZCGeHtAi6644goVm6IsOPNVnkRrniJBCfyqhk0RecWBldoUur7++uvVErokJarj75z1ioinS4Jbkq3wrbBxwD6lUlQck2ow7P7CgXXQm/SIyD6CCQGCcg1hUedYVUPGjh0bUWZJRdNZBF9IRq+G3HzzzWqTsEZ/aAPKLA3HGmfxlltuUemWBnzAdoTFWBp1oy0WdiKwH374oXiMkL5LTyxsJ3bccceoOIdUoFRyZXpIe5bmkS+RwGp0dWn9iP8dR5/5U0NwquEMzpNIISnxsXAaJo0q0h5cwfRLQyzETKMtHGupU00/NL9jCvIQGZYKNF0SuJv0+d31/sKBdXjzIZm41ZrVcqY0HTyyMl3LOyapS9OZ0to00F8wTnkjaM6jTeFIaUVzOW2AxF0qJCZJI8K2DxyJUpRDQ9isaSzGFCsJTf4pHwcOApyZGkLSqcamQWtuYUyazpSGjmhDimOP9wPnnNM+qWy88cZRcQ8NOeWUU6LTBg3Jo02RrBaaJBzXiYUoaeipaMNdA4UD66ArzUmKbGqNpBvNaBnAf8ikpQIll8YRGP2QZKuWj4NkopAqa1J9JN0vyaqPt0uiGqV6NZLntGAN9I/M8Tlz5ohVyMIATEZ6XEhHtOyctqjug76korWA0g9NZ4OkNyosSUUrqkg/bHKgtE+a92tutMFQVivZ7NNn8NBSnLd9nmZUH7hMpXLwPmPTnFtoi2IS1QqG+PSLkyJyUgqprQYKB9ZB3xrgcx5DNOnWW291eGL6JVATgVfUEBKdqNIiFcrMkgSkIUzkEL5riC/noMYz09rgKFtjwqME4LXXXpv2OKe/a8JSqPhGNSKpsBjjSEmT3eiHlp3TFklF0mQ3zXZoCxx7SBndSu9II9mNdrXsgLbyuBHVSHZjbFBgjRgxQsWmyEWQZNXH7YH5nHldQ7RgKVR7kyao2fHApz1t2jTx8GwytLihogEvDRQOrIO62DWSyQ4NiEQ0k5zoh8aEQGQSUDzJFlLR5Lol4kaWvnTHnldsEuPSyH7VtikNnBo2BaewxgYEm0JXlG2WCphjuJylkARsimNVCXWSHQtRU6J4oXyWth2ys4EnaSU5aUFcSOQjeUdCx8UY8xrhwpZINpXaFKcDYFc1bIqoKZt2qU3179/fkBiYR5sC6iRdG7Cp8ePHq8CmLE2fdI4q7vfTQOHAOuqL46tZs2Y5Xl35Moihhw0bJmojfjO1n+GklMhhhx1mcBI0qGDoC6TxWgIdjHSnnUWBBa3xSXlE6Ye2TbHwUSlHIizo1GfXsCkWUCAE0g2W5ccMqQJUrguSC2F/gLuVLPRQGTBgQBRVBGqBkyeRr33ta+boo4+WNPGpe6k2KKWfA3cO/hyIC3RaEkHX++yzj6SJzO7VoDOESJ+NEY4Q1RVDBZtC1zNmzBCzgBDppD9awiZGSj1nbYrNGj8SsTZFnyQbLCCBrFVU/SukthooHFhHfQP0JqoUKllEAuHYlCyiFFdgQedfaTatdiQQPeMcSAjeqQJE5rIGPjT0vSfdl1ebIioRuojGbUqKY47bFKUtJVRaFj+JTRHZDyV4x6ag3aFSmBTHbCupcbIDz/Rrr70WZGZxIvygBqrcJCV4t/jJpUuXRowpoTZlHX2N3AFN/di2SObj/YXaFE4ZkWpsShr5tpHAwqaS33TcpqQ45ngltSzsq2izugYKB9bDOkIXLErgUUlGMzppu01WNccpvuUsmSzZ9YPdsRJKYs+RMfcyTm0JjSSANwYTSJJMniV0wYLDkPKoWdnUOeec470gk1BGdFLDpsjOJ7psbQrHk+P/kIhnOUejlk2xgTz33HODmA3Y0FIK0zplMDbAUxtyFP29730v4hDVFnD2lMkMYUmgP/TLCkmivE9fJw+bgrsXNoM8S2iiL/MUmyvsHZGUz8am0JXdsGNTvL+QtYFgTVY2RduULvcVOKHjfOzYFNRVvqWOwRvz7VmbwiZpJyTpNKsyzr666a7XFw6s55snyx5H1lXAETGpbLjhhq63eF/Hhwyxc1tbm/O9OAMkopSLb/1sHCgcxUGDBjk/2/fCe++914tsGjovoj9aCS2+/fW9nmNyH35gEreISILhykpCIvLUgx85cqTYpljM2ZQxzrgQ6cLJ80noAspQqSBGiE2x6JVX24FqCiiIDw0djgbjwHmJy3PPPRfNFT6RSk3qrEq2xIYBW1uwYIGzqZU7r/ZGkt58kzzZENVLnXkqREH87yrMU5Vsiog1Ovehd6pmU2TYY58+awNOIs5iVgKvM/bvc2wP5hy8eLn4bkbZMILNhyUlLmwcgPH4OLEkt/GeCuhAVpaS3m7hwKbraJUrIP3HkV2yZEni3ThQHC1x7Ji1QJty+eWXp0ZLBg8eHB3L77DDDlW7BFMCDlVaNAgSaBbQWnzAjz76aIQzYvJLEjgQTzrppNzxvqa9f5KUbrzxRiebAls6cODAtCbFfycJhOPytAgcNnXiiSdGGL5q4mpTo0aNisrQAkWoJDivwELSighgk7B0JC3ErjYFEwKL+tChQ6uOD/w3mPQ0AcfJ91dNcBQZXxoNEhtGjot33nnntEeK/45D7VIOFoccpgcw9dWErH3aSoNLsInBDpJsSjywDBrAoQKDmnZSkGZTy5Yti+BdLhnyaTaFI4xNpXHD1tKmSMBibkkrIoBNUS2LU5Rq8tRTT0W5IC42ReIzHNXVhHd31113pZbABt7E2kfyZCFdp4HCgQ3UPTs2dmtUTgGbZzMicaBwDnHu+L3WQiSIhZmFYuHChdHjOeIn6YRIBpV/XIRFiygcYwSmYKNCTLyMj0gbjkuthbHhvKBzG4ljsWNcZPHSv3oVbIoJ3Y6PI1wEzlHeH85KlpH8anpD19bOLXk/RP5wKBLJoG8ugg3Nnj07Gh/2aTdIOCm8P2iEXCERVIlCV/TN8rECN6AvVMni+3PFTFayKaLbVueuNc5JNmN8FITgO+R90geOKvlmqHUP9s5FoJHj+2NxthWx2LTY8dXCcS3vJxEzdM74bIY7Dsa2224b6Zz3V23jUd6Wlk256LIrrsGmeH/YgZ2nrE1hm3zTLoIjDJYcOyBCj03hNPHN2HkY/m0X4Z1xWofu7aYUnmX7HXdFpJv5xH4zdtOGDdEnbIo53dWmmKPsPAUlIMLawDfDPOUKQ3nvvffMww8/HNk5a5+NXmPn6Bw7z/LE0eVdFtd8rIG6cWD54PjwiFCQIctHO2TIkMg4fR1FjlX4mNmxsYji4HEcwAfjOhmUGxD9Y3EKxYHOnz8/Gh+VWHCGWaz4+PjwQiO4LKhMeKEk/kQ7cTZYQF955ZXoSJdJmA/Z11Fk8kXv6JwjMiYA2mLSLD8qTvo4mVyYWNAXferdu3ekJ/qDLbg6LZoTADpmops7d250LMZ/886wKRwzYCSugm2jcwpVYOtEEon8Mfm6TsD2WTh2OIrYFKcFLFbonD752BTH5Lw7nCrrTNEOjh0LDUehroJ+eH+0w/iwA8aHTbku6vZZ6JzvmHYYH+2QEMN37GNT8b6jK77h0FMFxmUdBNqiupJdRH0gH3GbYm5hnmLzIrUpvmneFxuQEJuyumJRx/kIrXCnaVOuttdV1/H+sCeJTeHAEpCQ2BRRXeYDHEX6xDvEJrEpcOt9+/Z1VlF8bcBZ5JvB1kPXBvrFd8yaxXdMv/iOfRxF1hW+PbC/zJ+sBbTF2kC/WCtcJe5voHfWULsB8fU3XJ+Zdh1+AWsDax86Z/NIEInNDPOwj9AGczpji/sbOOj4VfUiuXdg2TFy/IjCqwmTMcdWHD9WEz5W6FwgV7eRrUrXsjuGWsqC6rN+kRwRUUQgqSwlE8wRRxyReOyv2U+cgltuuSUxOQUHgWOdNGobxgY1E45ZNWFyYXxJDgwfLPgyohHVhIUZ4nRwj667donecComT55spk6dmlh2E7s85JBDEuu444wzvqSjcTZXjI9j2iRHBgbGhwAAIABJREFUHZsCj2ejEJXGyKROn5KgJCwm2AFFF6olgpAQMXbs2OiYj8SyakIk6oYbbkg8GmeRoB3aSxJsip8kHkgWZCAEoQ6Wr10QmYTWJwkrymJ66KGHRtHhaoJjx7tzsSnmqaSNCEfH9CnNprAnfmohzAN8My42xZweGlCoxViyfgZzHbaQZlPYOZHKasLJB3kbLjbFPJwU8GBTzDyVVJKZtQFatzSbAnLDmpy2NjBPJUFJuJ+5BTaBakLUGjgRa1aSTbFRoK00f4M1Jm2e0rIPnGngZUT1qwmbD2jP9t9//0RYw8yZM6M5Pc3fwKZcT2u1xhnSTq4dWN8MbapqgDklwz4uRGdICkkyyvj1GDsg8yyTgMh8vOyyy6KJ3FXgZUybFFzbqnYd+F6wtK7ZwkAJwGTiyMSFDQNZ8kTbXASybNqplPnKQsz7I/rqIjgKgOuzxIn62hQONRnBlWwKHZGhTdTNRYickaRW7qRr2hSRUp6RtLjE+4quYS6oFGXEpi699FKXoUXXYFMkGZbTn2FT2IErQTs2hc7jrAjOnXC8kAxosNk+1d74hitxrHLUTFJPGubYdo33jz4qYfo4AiVhyrUELzbFnOcTpXJU0SeXMS6+S1ebwjlHHz6nBb59yuP1ITaFw4GjVy6+NkWUGDvQsCm+OxI7y22KzTC2CXTARWCiAG+6xx57rHK5pk35Mkngb9CvLGkamev4BlzXBlgRYEYpXxuwKebgvPkbLu8/6ZrcOrChlFV77bVXBP63QpSMj8h1UbD34ZAx2WblxPpm+9t+ZVnxI5S3E5gDzg4TDQIHIZOgq6Nhx8bGg3biWCzeG+8vLaGs3MjBUkJdFgrpSPpoQumFsCkc1fjiAGaLLGHXDYPtFxMVbdlILPezKCRFqKuNqdymoLihOltaIkp5e+gau447HER9SNrxlXKbYgJnIve1KWwSJzYrfB9JH0SRfKWc2ivUpjhGhLlAw6aY69iEZAHDwaagT0o6/aqkQ6L62Hl3cmIpbkEika+UV0JE12wEk05iKj0DmyIjP560yDwF24wvZRU2xSbLOnmsDVBW0Z6vlBelYW3g2w6xKebK+IlRqL8Bkw86zkI4tWLO86VB4/QYarY4ywlJfCHVDC1XdRbj02gzlw5s6KJnFWI/5NBFz7ZT6UPWUHroosezcfKIVI4ePVqjK5+0EepI2QbsxkHiSNFWfOMQ6kjFnTwm3XK6IoniJDyNPBcnjwmcxYHIMo6i7wRl+x938kIXPWtTduMQuujZPsU3DqGLnm3LEoRjUzj5IYuetanyjYPEBuy9oYuevd9uHNicwcnsQ5sU73984xC66FWyKQ0d0QYboTPPPNPbkapkU1p9yms7UpuiqhQwI6lNxTcOUpvCyWPNYjMZGrjhfcU3oxJeaNqKO3mhgRtrQ5ol1G2boYEbe3984+B7kl3+beS5mmUuHVgIsAFihwrAZo7BAZpLS9dpGycOEFVpwBeGShZVvaRlTTmywImy1cFcjzwq6cBWYPI90qnUlq3AFKrr8vtIDmAylojd1UqcTjuhX3PNNVHyhdSmSIAjUhLC/1quC0usL7UpFlHocUjOkFRko3/a1XKIRDGxYw+hAradUwLwz1Kbss5waKTFjiGLql5SB4G+2apeobquh/uITkLX5sOPWj4ua1OcVMChKxFrU9KKbNgUXNcEXyh37MNzXN5/mDzgcZVWz6JdTljBeWJbvic78X4xTwEj0oQSSJ1O+sfJFwEFqU1l4W9I7DJ+b+4cWLIs49U2QgeKcWKUIcd75cZ57bXXroKrDe2XxmTOs1moyPrUEHazlcjefdsGD8TkBEeuRMAukiiAI5QENnd5hp3wXK51uUbqIPAMJjycVxImfKER5X1kg4UdENmQCn1ifJKSrfQBZxjScQ2bwgbYiEptigQ/kjOwLQ0hmQVoi1TYYLEYhxzvxZ9NIisYN7CQUpvSPjaUlgG2NsUGq5EFLLzGGLEpNv/goCWCTbHBYp5yxVJXex42RZAjBE5U3ibOMKdYkiAXbQIromy2hr+hucFic8zcKQlyMT5gSjifGjal6W9IbLL83tw5sL7VTKopg4xDMiXTyI1dlKkZxbv44osTsyVd+sM1mlhYjd0sfeJImyxqyW7Wjh9nWGOyIzrJblZLmIiTst9dnwNOGyJvqYCFZZc9a9YsaVPmqKOOMkR0NYRIC0TsUmED8tZbb33C9SppDzxZEuuCT9sSGFD8OSwyfH8aNkUxCRJDpQIbCHOehrChhXlBQ8ie9qFs03hmLdvge/FJBqzWNza1ZPhzciEVrXkKR4pILFn+UtGaW7ClcePGRYUnpEKCGQnkGqK1OeYkGiiBdHPMmI488shIV3mT3DmwgMelO0eUvNVWW0XEzxpCNIlSdhpCJRDLpSlpzx6zS9qw90qPsm078IyyYOHESgXHRcMO6AfjC+XCjY9DczEGF0ZpTakQUSQCq2FT0DulVcZx7a/W+yMKRCRCw6Y0N31SeITVI0eYrkwdabrXsikWdpxFDdFajOkLR9m1okXTGLtvG9KjbPs8aAnhVdUQre8YmyICy2ZUKjDVhCSrVnou9GPApqRCEqXGKRj90Aoo0dawYcMifnKpaJ9kSvtj78+dA6v1EVNUQBqCt0rSxMFqRfA0cSlaizEYIHBcGkIUyFZYkranFUHXwL/asWhNLLTH4qDh4BHNDU0kKn9HTOjSIz7aJAFPeiRu+6aJg9XaiJJdL8E8xvWuaVPwx2pwKWtgqu0YNY9ppXNKFvezwdJw8NjQAsXTEM15mCQsX7aVSmOAwzqt1LLr2CkOAgZdKgRvwMFqiAb+1fYDTl5X2rqkvmv6Gxo6yq0D2+gRWGmCmn1xRQTW/TPIYwQWrlONY38WBTJq8xaB1YpsEIGFBkiKwcNaNLGdGrhO+sTCoAG5oS0tmyoisO5zi+aVWsGbRo/AUkY5idTf553AVRvKbhJ/jmYEVsrCFO+XVlCiiMA6WhUYvClTpjheXf0yqh+Bt/HliKvUIsTAvqXaqvUMcn+NY1rNqDB4KbK9pcJiTLTspZdekjYVYW5I5NIQDVyZ7Qc4IFsbW9I3km2oriIV8K9EXJKqLbk+AzymNOnRPuuggw6Kqv9IBQwXEQRpMh/90KSDIWGKAg1SAauvgVGjH8wJGkf/bIg0sLT0CSJ9sNUaQiJfI1fm0rIpThpCeGQrvSM2fdIEStql/CoYWI3IqZad0y+KilDVTyrAr6BE1BCtZD7o9djMaEDxqPCl9R1r6Mi2kTsIgdbLI9LJ8ZX05XGEiaOhlb2stbvSOhbHELSYH5jswIlqOEEwP0B87kumX/5xWHoorY9G44QAm2LDQDUmaWQRB4hjMI2EN2yKaLX06J+oKRn6Umoo3hk2BRRIY0Emezmp3K2PjWixiRDJZYMlZX4AMgU5e6UKXz7j4tryIgu+95dfT0KmdAOiGeGSjier+xvdpoCkaDjDZMQDe9OwKegHNdhEsPE999xTxTRYE2B+kMLCiJqCsSdxXCqWckzajvb9uXNgGSDcrRJcWP/+/aOFGDwfBOESwUHQoNmwfaAEKZyWElzfkCFDIp5bTeEjlmJOyaJdtmyZIRtaImSKkzGukenNuDha1RKi+vRNItamcBilMALaIAortSkbdSMayAIhEbKEqYWuAZdhwSNDH8ypRLSPwOA5JiLhWt64Ut8pv8uJ0+OPPx4tyBKxTieFO+bMmSNpKoq+Yg9aosHnzBzMd9PIwpqAQ6VhU8wrUiYJa1PMd1L2AGyKEu2MTyKWIYMgiZQ9wNoU7AELFy4M7hYBCdY+zaqPGnSNUI0R3MCfktgUOP0rr7wyWD9Z3phLBxZ8C5VzQuWkk04yY8eOjW6XTOjsGKE6oj60pkgndEpHcjSgKTj7RDxDJQ5pILoILCFEqMRFtjFOOjtQJpnQKCxJLRI7qtZ/9B+Km2KSY3LCpuA3ZXyhRR+oxsaxOMIxGFHrUInblCRiFp/sOC6kAlOoxG2KDdv9998f1BQ2xQKqXY6UuuKXXHJJUJ+4iRKUMAcgEvwj0VfmKRZSFmIi36HV3ajiJC3+Ukkh0DGFUhp+7nOfE+k5+AV1wY1Sm6K0KhhRqU1xUsGpjoZN7bPPPtEGG4GLefLkycGahZcWXCciCXTBZsE6g8DYQOnzUNFkN7F9kAa6oLS0wbt7771XRNkYt6lQHWV1Xy4dWAYbmolXHjFlV0sUjtJsPsKix85z66239rnN+VqO+0JolDQTUco7O2PGDHPRRRc5j8FeCBCeqi8kFCEwEXDkAA+vj1CphY+O9qwsWLAgqrziG7GGNgsda+6KbZ9C69ZjU2Cg7QRMe0TfcLJ9s3Npg/ts3XruZ0IOsanyCZjTDyYt340Dix7jIyJs5Z577gnavUOVg4NnbQonHyy6r01xP7YZtykfm0y7NpSCrvyYHptiA0n5ZB/BwWCTXm5TRF9869aDYWfOszbl04+0a7EpIvK+OQmVbCrtWfX+91CbKs+LkNgU0dt4FJ55KtSm2BzbKlWsDcxbIacEtsJffG1g4xdiU6wNcThRaAlf5in6lYUw11GEwHczylxQXkKdDS6OrK9k6W/49qXS9bl1YOmsb1SJY0sWYxyhuHAEyUfkShFEFi6OFBN6VsKHzA532rRpzo/IYqdX/nCiXPTL1aEaMWJE5GjgnMUFKAGToGukEowx7XDUWy5gMnl/7EpdhImXhZgj2qxE06bQEdha1+Qw7BKnrJzmSNOmcDh4Bkk4LgJdC5NtpaNnbMoH8pJkU9gBtdldBJtiDODAshQi3z6JIMxTwCzKBZsiEsSmzUWYp9BH3Hm192FTOAquGGt0RBIKx7xZCUwZbEJcbYqNEDalHTnPanxa7bLxAK/tY1PVknrRNTp0tSngdwQfKtkUGF02yVKbwiGjHVf4FJtQjvntqWpcz5o25etvjBkzJoLL2U221vuPt4MTyzfuujZQSpj3V35qjE0xB+fN35DqLNcOLIMjqYskqvnz51cdK0kjVHthN1RNiOCRLMHxfVKFEo5fyIDXKtOa9oLIZL799tsTAekYJaBurSpCaX2C1ufWW29NJMMmwrnffvsZjoeShEmBn6RKQzvuuKM55JBDDPimagKVEsdPM2fOrHoNCzpAejLgNTgs0/SETbFzJ8qYBLjHLrFP7LSawEXI+JIcfjKwOeJFV0mCTXFMh86qCVyK9CmJXYPkKeyA9qpFAdi4MJHTp6QEKZxOxpeUhYxNwfKw++67q9gU30ytiO9hFoE7NclRGDp0aKRzMparCXYEvs/FpmCySHLu4C1m7kyzKTKx+amFwChBtUUXm0JXjcw6kKZvHEZ0lWRTrA0HH3ywgbaumpBYCzsF+PYkR4hiPTjCSUVfyJPgO04qlMBmlk1amk0BM8PWk3hKYSE57LDDosJE1YT7ObFNYgVhY0a1LHSFk15NwPoyvjR/gzVGq7hRmh1wesz4ktiLqDjJegxbQNImlPUTW0hKgMOmmFuy3vinjdvl77l3YO0gwHZhXLxMdpVMbOAkWYBRuI8888wzEfcimCycED5Y2sCR6qoJk4mBSQHDwnGAGJloFln0mgkVPnoCo8lRDxMov/PhU54O/G3ShFLpGTgw/KBzNhCDBg0yYNvQOb+7CmB0NjVMMEQJOe5kEQfvymQXcvzJ2NA5Dhh69xWOtxkb74+IAIsEzgpOIpNA0oRZ/iwmYyixcD7oF045ji9RV8bnI9amOHlgfOiJTQJ98olq4VTxzcybN++T5Eru32KLLaLvz6e8J++M94eeIG0nUsBmEZtK2sAk2RTfDH3EjnBYsSkW0a4QxgWjAPMUEAxsyn7H2LurWJtinkJn/Dc6Z57qSpty7X/adZo2lfasev87tIR8f8x5fDPMUbAysDb42hS2ySYSmyKSSpQ7xKaYm5insHd+x4FingpZG+gPcydsOMABWI9D1gbWFcZH5SnWLGALJDExd9Kv3r17O5uCpr8R92E4mWR8PmuCvZ8gEDrHDghOAB9iPWZ8vjSf2BS6Ym1gzWHuZP7tSn/D+eXELqwbBzZkcMU9hQaqaYDdLHhRJs44vpZJgckAHuGkSJltlwkXajQwYuUQFRYHnCmipknR1yzeEskgUMjhWMejp2CCieQTPfCd9LLoZ9FmoYFCA9U1oDVPNbqOceg4teC0oTy6yKaWpKa99tqrpgEqIt8c2ZOUzuY/LsDb6BM5Oz6bEI33SBSW6D5rXzyBmFNLHFiSg7PKGdDof7yNwoHV1mjRXq41QPQeHJ5L5Soig2ASq0UrmQQgH3fBJ3EsLqUXc1EskT8wby4lKYmgkgTRVacOLuMprik00B01QIQU7KNLSVgcNHI2ssT85/kduDIbAHcCVpQGbdAYKyeXJETjxKYJTCTkf2Qt2BRrnwt/LtFYGGTyblOFA5u11RTt50YDOHcA3H1qQ3PEjRPLkV1cQqjQ2NWSKFOe8KalII6byT71IcDGOYeDNO8TlZaOinYKDeRdA5zksAn14e7k+z3nnHNqHs3rSl2SaAw9HqdNPoIDq1Hwo9ozweKSMOWaCE07sB2xzvjAHHzGHGpTrA0+cDOfPmlcWziwGlos2si9BsAjsqNMSmyqNghwjHHaFSKv8BH60hTRfla7bZxzqK98KWXoExhNGCOATxRSaKDQQNdpABo1Nrm+FHb0GMgSNHZa1ea6TgtuT5YUusmK0QcIA06fj/NqRwukgBMxbVYDqU2x1mVBR+n2lpOvKhxYDS0WbeReA6HcinZgu+22W0QQD2aIajIkRYUKE5w2vzBtgsMNlbzz/YWOq7iv0EA9aQB6qenTpwd3ed999xVXuwp+eA1v5DicgishjiLdJNmXgjuazj40hhSmkVQRzaJkq9SmtEtLa5pJ4cBqarNoK5caIDt1/Pjx3oTQ5YOBmxEnEZ5ciZDYxXGflpAxC0+iRMDBUg4xhMVB8tzi3kIDhQY+1gD4fMoTSwR4EpFJWAEaWTRKrUKpBSZWS0ILAcWfD9MMMDAt4cRRWr4Xlhm4rvN4Qlc4sFqWUrSTWw1w5P+zn/1M3D92/I899lhEPyIRCPavv/56Na7a0Coy5WPIYvcv0VNxb6GB7qQB2Eykm2P0VV6xqtF0CHRrwoQJolMwdAIzjIa+rX6ZP6VrA20RKNGKDGutDXm1qcKBbbSvuxjPKhogG5TdsVSoEgY1lYZoOotgX+E+lMqBBx4YLQyFFBooNFB7DVCNT2N++f/bOxcwuqYz7++0jHyVJ+RLmamnvlQFwShjMC4lbomSVEJdiiB8lKlbpYPxaD19dL4pplq3TEXRTlziUhEiQSgymiCjLhERRDVi8mjIuHaIhHx+q11m5zjn7LXW++5z9jnnfZ8nT7Q5e+21//vda73rvfxfKPJOO+201j9Ai+4IRzbpXBqiaSzi0YXnVSrkQIdQOIbcByaL0G6YzcaDCvKEE04IuWVLf2MGbEvhtpu1AwES46nQlwp8fSH0WyH3wZtL1zANoSAhhDar6F4Y6GeeeWbRz+zfDQFDoAQETj31VJX1BWL7f/7nfy5hhtUYkiiY1vNRvBrbQKUeCtBl0TlOQzQLzLR06u/+7u9cW+6qiRmwVXsjNh91BMyADYPUDNgwnOxXhkAZCBCmff7558VDmwEbDmEVDVjNglotA5YGB1C7VU3MgK3aG7H5qCOgFZqj+IpWfhqCUd2sf3nMPbQ2vl6pYI7B1n5rCLQKASmTiJ+nZ0xp1bxbfR9aZJ9xxhkqt4WdhtauGkIKFu15pUL6B2kgGqKVl1tVnTIDVkNLbIxKI6CVyM7J+Ne//nVQJ5MiQDRzrzQqcplvVRP1i7C0fzcEugEBzXXqoIMO6gZI6j4D4fojjzxSbCwOGDDAFUz16dNHBSstRwLrOV0gNUTClZu/v2bKm8Zz+THMgNVE08aqJALw8mkkoNM29qGHHspuvvlm0XMOHjzYNUbQEnpa08VFKjfeeGMGZYqJIWAItB6BRYsWZaeccor4xhMmTKh09yTxA348gEZx0rBhw1Tw9s9z2223ObopidBUhu5iWrJw4UKVNrUTJ06sZMtxM2C1NMXGqTQC0jQCnx/61ltvZd/61rey9957L/l5NRkI/CQIqRFaS5Uqk1WnPpNdZwh0GgLSdaqqoV7t9yBNI4DKEEN/vfXWU5saLbzZG2JaANfevIwomDSN4Gtf+5pr0FBFMQO2im/F5qSOwJtvvukq7GmrFytw8sEjS79xBKobNpoU2WOPPbLTTz895dKm1/znf/6ne77UVrI8j3lf1V+LDWgIRCFAMwOMmJRWsuRy0vazf//+Uffs1B9fd911ydEwzUr/PH5QVuEdThFayX7ve99LubTpNTQzGDduXNLeUHWdMgNWXV1swKoiQCoBxVPLli0LniI9oCmugEIrL9OnT8+uuOKK4HH4oXYHrtqb45XgtI0nIFTonw4ljTfOQ6+z3xkChkA5CEDVhyET48njkP2jH/2o61MHahEfP358ds8990S9iLKjTdRJXHLJJVFzogMX3RnL6oQIdy7jx+gU3mn2Bq0ityhAAn9sBmwgUPaz7kAADwet+vigi4REenJLv/CFL9T9KR2+SLgPMRhbRQTN5sfzLV26tOjxMuh2zjrrrGydddYp/K39wBAwBFqHAIdtPHmvvPJK4U032mgjt0716iH0hhtuyMjfLxLa7B5zzDHZyJEji34q/vc5c+ZkNNCh4KxIWtV4Ap0677zzgoqQN91004yGClXXKTNgi7TL/r0rEZg9e3Y2c+bM7Mknn1wtn5V+z1tvvXW2++67B3VDYYGaNm1a9uijj2YvvPDCaljh3cTrivFK28JWyn333edSHZ5++ulsxYoVn9waj/K2227raFq22WabVk7J7mUIGAKRCLBO4dGjUPODDz745Gq/TlGItP3220eO2n0/J0zOOkwIn3SqvHz5y1/OCM/vt99+LS1EYm+YMWNG9vDDD2cLFixYbU4YhsyJ/NLa6F7Zb4d9D+dLrU6tvfbabk8gj7pTdMoM2AhtIX8Sz9a7777rvG7+z0cffRQxiv00BIFNNtmkJR8RRiedXfBcspDAzcq9U4T8UxYF/sZITA29cFJ+8cUXMxZlFpUNNtggGzJkSFJ4CQPWL+qcqumo0uoFsxZLsKbimu5heH/xdG+++eYpkHf1NawvbHzoA8YLkQAYLNrtFXn22WedZ5CCRsKMgwYNStIpwpmkvSxZssS9R/ScrkgpOZxaOgXOYM6cMED4hjfeeOO2h+ZZpzCE+G7wuPIdp65TWh/N4sWLs5deesntiRyMOaQT1WmnUOvAevfEE0+49fJv//ZvM0j4+/Xr17Zp0V4WRwkc4uj8Vltt5YzX1P1B60H49tAp3iM6zt6Hsd9JYgZsg7fFgsFChiHx8ssvuz/5E3AnveROnGuZlY+kEUyePNl5YOsVPbEYDx06NBs1alTLFhkWubvuuiu7++67ncFSK34xZk5bbLFF01eKB+KWW25xi1M9toSBAwc6DyyhtHXXXbcl6gHOt99+u/Mm1ctBxqO00047ZQcffHDLvdUtASDiJo8//ng2ZcoUt+nVEw4gvLvhw4dHjCr7KQYicyrSKfST76eZEBm44447PuWV8tdwWNt///0zmD+aCcbKnXfeqaJT8+fPd/r529/+tu46j3G9zz77uPbPffv2lYEZeDUHWObUaJ3i2wUjCPRbdajBqAfze++9t26a0lprreWMa/SglQb2/fff7+YFbVQ9wbAePXq0MxxbJejUrbfe6gzqegJlFvqEF72s3Nfa+6JT8A3zDdZLb0CnKDQ+4IADWrY3SN6HGbB/Ro9T5IMPPpjNnTvXeQWWL18uwdWuFSJQlgHLBkWxQ8hhBKqVs88+u3RPMAYrxVehDAksLuRy1RM2FgobQqICeHdpD4hntkzhMMh9QgoIPvOZz2SQZmMs9JrwzuCAJP0jRDAQyH0s+xASo1N41JlTPZ1iTUUP5s2bF/J47ruDHq6ewYhOcZ+Q/PMinbrqqqucQR0ieMF/8IMflO6RxcCAKzqksxNGI1hQCFSm4MRhnQotgmWNYq0qUzDCKLKN0SlyO8mHLUtWrVqVXX311VE6xTOUfQiJ0Sn2Bva+snVK+g562oDFO0UuCKc3wmIm1UGgDAOWDxg6rBDjziNRtPlJEYsx7vL3wvuGoffZz372k/87tJghPw6bH/RbZeU8xRwY8vM64ogjskMPPVQKb8dcj3F3/vnnOw9gjGBQlbn5pepUrUFFugHGayMPWaNnxkin8IQN1UuqTtUaVLEHBn9/jHQKrMpKxeHAQNOUGOGw/Z3vfCfbbbfdYi4L/m3MgSE/KAbs2LFj1bpd5ccmksZhAsM6Rgjhw0aT16mY65v9lnoDDh6zZs2KGhLjFZaAsnQKTz5GdYyUrVMxc2n02540YPF00TWDcGaIJ04DaBsjDgFtA5YFmJN3vqApdEYYsWyi2qdRuB5hASCskyK0tvUtIzmIwQHJ6T9WCPlCl0Iuo6awsXCKT+Gmpb0jGzLhrF4QSTtgjDyYJ0jD0BSpTnFYxMD+8MMPnYcw1EtW+wyEfTE4+A7RKbyyKY1E0CnGIcSNpBjnfm4UaPK9FaVLxL4PctbBKuaQ7e+BV5HoknZEhXUKHtEUblrmVgbnKvs2xmuqTlGky/qCTmmKpHUrKQW8P22dIoWBQ26KTrGmcFjT1iktzHvKgCU1gNxAKC5Mqo2AtgHLBwxTQKqQQ4WRpykpp+L8/fEgsGCycdEcIYQarNH8tfHmPj//+c+zqVOnJkNG3uHPfvazUrw3yZMq4UIMAzr4SA7TGGYUYWgJB6ETTzyxbj526D2+/vWvZ8cff7xjwjjnnHNCL6v7O4xFDPWLL77YRcxShSI4xiL14LjjjguiOWp0rzIMM95jqlHGPDHOpVjXPq/E0GcsOGqvvPJK1TxPDZ1ibdFkhyH/Je7PAAAgAElEQVSdQapTRNXIi9UUqU75LpSac9IaqycMWDxA11xzjfO4mnQGApoGFTmmJ5xwgvjByU/klKwlxx57bEYYTCIYGSzCeG0kghGMMaxVrYuBgIdYYpTxPJz+oTXrZpF0FPK4wOJwwQUXqMEEm4ZUpyhMQacwFPDmSgSPGUb+4YcfLhnGXYtOUXmNUSURGBhiw7LN7keh3KmnniqZkruWOWm2SAVzmHckggeXd6glvMNGxVGh9yDP/qSTTgr9eeHviOr+4he/KPxdsx+wv7DPaAkpO2AvlYkTJ5aea58yx643YOnSwSIq/QBTwLVr0hHQNGCpuuQDlEo+ZC8dS9rL298fihjoWGAvkIpmH24MFkLIUtHUA+lcyroer0std2XKvX75y186b5eGSFIa8vcnMkDHupSQf34c2hxzCIUcXip4hqEBg2pJKniEtaiHtNYpTS8e+cbkLktF04vH4XjMmDFBBW7N5s23gsFJaomGsH4+//zz4qH49qAW1BBJSkP+/po6pfFcfoyuNWChWPmXf/kXF74y6TwENA2XCy+80NGGSEUzPAdlFp4pqbCxr7/++o7HVio+5Csdh+ul6QN+DhQ1XHrppRpTquQYhB0PO+wwlblpphHgCdTQKejatCJf5EM/8MADYqzI58OADWEwKLqZ5sYuTXPyc9U0FqVpTn5Omt5qrcO/X6c0+FjJ86ZFbUqeaa2OnXbaaY7mUEOk6QN+DjQ3IGe4atKVBiwna7w/KcUjVXtBvTofTQNW6yPWNKakeWV5vaAqmipvqWga6FqbMQZ6SJtI6bO363rylrU2Bk1j6pvf/KaKgUfFt5YTgTQJDbYYeJBDqaCK9AKcNNIauI/WoUEzX1/rIApbCvUnVLZLhcYzWvUIrFPoqFTeeOON7Oijj5YO467X1CnytGkYIxVNnZLOJX991xmwhATIRTHpbAQ0DVi4CzXChZofsVa4kCpaKr01QtCap2ytELSm56aKXwQMFBQ6aYim50Zr44OeTZqr6LGhLTPdjKRCcSC44zWTimZakdZBm7QijbA/2GiFoDUPolppDTyfVgoIuf6eEUaqU5rFgVppDZrODSk+XWvAUl1K1xKTzkdA04Alb04j9EgRgkZCPG8HsnqN0DjeJCh9nnnmGfFLP+SQQ1xumYZoFCYxD+3iJI1n0x6DrlMaolnwBr2bhreT/vPTp0/XeDzXy15jLIoCSSHQ8MJqFifBH0ozHanQ2emUU06RDuOuB29ymKWiWZykGbW4/vrr1WirWD/pqCgV6B533nln6TDueo1iN8YZMWKESiG0ykPlBukaD6xWyFIbYBsvDQFNA1aroEgzRKvleSPfjYR/jTA7nmp6h2uIlpeEvDKt0JzGc5UxhoaXhNAshwY8XRqi5XmDnJ2q6lQOUf8sMG1AUaThWcRrihGkkRevWTinlRevWYyJof/tb39brFKa6zkUb+SNS3OY0SmNOgQPjlakT1OntCJ9mjolVqZuM2C1FEcTWBtLhoDmgkehDJRV0kpo0lPweGqJhuGCp2zDDTfMTj75ZNG0IM/GG6EpGAoUU0pEm7pMMpeyrqWHu5TSCY8NnhsteemllzJSEiRCi1vYPzTyKPFu8YduWtLaBowWCtSktGPa0QE8wo1aRIe+B9rusk5pdplibYntdlU7XxrBbLPNNqGPUfg7jRQlzYgTEybKJ2XJoFkOTUm0ZOnSpe7gJxEOxeiUdqMUyZz8tR3vgeVEHtt+UQM4G6NcBDQNWGYqPYmW4QmUVtNSTe2pqqQLuqZ32WuG1KOkWU1drrbKRqc7HHy+qcUWeF/J5dPkKOaJpOwdPieXAkM4XFMPkP3793dGMBuoVKfy6wodvfgGUwWWm8022yz18rrXST3fmjm5foLSaIpmTq6fk6ZOab1AGAhI3YBjOFXK0Cnp3lCGTqXiU3tdRxuwljagpQbVG0fbgKVgA0/93Llzox+W4i3aFkLMri2pbARwGJ5//vku/xXBOGBDTvGU0D+dXD7ttorMKzWvr6y2itrvT2s8+CNpHJBi5JUV3sPTSSvgVJ1iXl7ogkebzFiaIXSSPD5fKc71GOspuaLoFAaC9yTR4ITnS0lv0KwUz+sQxUDMidbXscI6BVZU/GtLqhcdiio83Vr8xPnnQqdgI4htn03TFtZzDfaBWpzRKfQ+JUpQlqEo0SmKMCkuLEOnNHS0Yw3Y8ePHZzQpMOlOBLQNWG/kEZ6JofVhU6A1o2ZIrvaNkfM0efLk4BdJGgPGOLReeYHKhZzDRYsWBY+lHXqud2O8xDGdmDA0iKxopmsEA9LGH86fP98ZIKS8hEoZnvP8vTHu0LUYneJAlDde/XgYnRxoYoRvjwroWuHwNnv27OCh0Cm+fdIa8kIqAeHtmI54Bx54YDZ27Njge8f+kKY7YB5jxLJOcQAqM8wb68njcM13DEtKWRIbtscJceaZZ2Y77LBDWVNy+dW8vxhqw7IORP4hU3QKjMCqDMeNFvgdacCSfE94y6R7ESjDgPVokW9I3mGRDB8+XJxbWnQP/+900iIHtWjRI0cK3tDPf/7zdYfG+JkwYUKhh4pF6YADDsiOOOKI0CmKfnfTTTc5I73Iwzh06FAXTi/zwCB6kJIvxlDEUChiAKB5BXQ7O+20U8kzypxBHdIOFuMJnWIzbiS0qGWsJUuWNJ03Bid6gGHWSAi3T506tbBdcZFOUVB52WWXFUZn4Fvme2FtKluoZr/qqquyGTNmFN5q5MiRLkWjFTJlypSMb7nokAXlGSkkYFa2PP744y6HPESn4Nol9apswROLk60o4gc+HIa0Ghc0e65QnWJvoKlNJxTPdpwBi2KQZyLtsV62Atv4MgTKNGCZGd7KWbNmZSx+5CyxiWEUsHGSs7XLLruUEvZqhgo6jVcJrktO8STgk0BPtSzhLoyVjTbaKAjYV1991T3fk08++QllEJ4QvLYwDTAWhVutFDY95kROHZ4vvmW8rLAoUOAB5j4lopXzquK9FixYkEHYDj0aGzO6wfvbZJNNMoyDVhiutbjwvtDPRjrF+ws9eMDLDD8shjrjIjzfkCFDnHeMbzBECNU+/PDDbixSHSQ6ReEazpF58+a5cahyJwTON8ecdtxxx5Z7o/CAE73wmLMmMCcKN8Fo1113bXmPegwh/x2DGXNiLYFfF4oyojrMr9WCDvCHdBzeH2FvdGqLLbZw76+MlIGiZ3zxxRfdN4NO8R1zgGeN23jjjTPC88yr1R5Oog3oOd8gex//G51ib0CnqD0g77wTpOMM2JNOOkmUJN0JL8XmmDkvhwZ9SyMsMWD9R8zGl98Ytt12W7cIl5G31YkGLAvdnDlzMoyqvLFBFTaLcKixoanXGMBsDKSD0MQBY4MDCH3pMfAwNqjIDhEMIA4NhGx5PjYUNuMtt9zSjYNRZdL9CGCMoQt4zTA28jpFGgN/Qo0Nr1MYUxwm8zrF2hLqBcSAzR+0a9cpDg0DBgzo/pcT8IRaBuzbb7/9yd7AOoNzg4iXPzTw/lhrWi3sVzwjRjE6RcSDdYooBesUh9tek44yYK+99lrXjq7VstZaa2WDBw92iw6dgTBs8ByRT6XRR7nVz1PW/Q4++OBs+fLlKsOXacDGpBBAQRJqCEkePCaFgAhEI73DywnxeFFDj5AwEV4Dxioq4mER5bBBekPZgreAEHtRRyY8gYTAmoV7MTKuvvpqd3hpJhjqPN+gQYPKfjwbvw0IxIR7i1IIyMkktaGoMKxIp1hHKZyqWgpBG15P4S1jUghwgIF9IwlNS6GpDWtCK/aGUJ3CkGVvKDPnuPBltPgHHWPAsolKuS5jseVEQ5cccqhMihGougGLcQdzBYZZqKADFHmEhkZDx/W/o4IWI+qOO+4IvhRvAMVatUVcGHdU1xYZnPkbEYIkp5bK3Lxw2qfgZuXKlUHzgsqJcSjgKUt4LoojYjookZNJjlmfPn1Wm9btt9/ucA8V3j/V4a0w0kPnZL+TI4BOUWWN1y1U0Kl6fK0pOkWRU603lnWKgqyFCxeGTsmFx7mmFQZV8KRa8MN7773X5ZqGslvgjKIwichRXjgwUBgYQ8nJ3gDmtYWBmo8dy1JDTi1zCvXwa861HWN1jAHL5kheYCuEvBQqTcmdMQlHoMoGLDRafNgxxqt/cowWDMbQ8GE4YlkWu0D5sYkCQEvkT9sSGi28CXxfnkaLsDxYhW4Kfk5cj5FXr2o8BpN6v8WjBdVXkWer3rW1Fb6pXKKE7CgeNU+s9G1W43rCsDR/qJJOkevMITR1ncIgrirlkfZbJ5wOs0QKjRYHYX8YZZ3DscF4sYIRyxzKYH+IPRD5uZOPDL1YL6xTHWHATps2zVVWly3kzxFi6MVcEg1sq2zApi4GHpcyaE6kPb0JGbFQIak8jf75POk8G+jxxx/vitxSBE8lYThtY1/K+ewJwjFWqNhOLQIlXYIq+lqPbgpWdk17EcDzmmIo+llfdNFFbq8gBQE6s9gDnx+H9DTGQqdSD7R+LJgpRo0a1V5gW3B3vNSkdxWxITSaCg4AUslYp379619nl1xySfKsqdhnzdQUqU7lm9xozqtqY3WEAUsIMOWUHAo2Ssw9oCMxSUegygYs+ZCpRhmIYJjRTk8zRIcHlTxMiWCYkQ/LYp5qlHF/ChQIxWm0NWUupN5oiUZbU7zCcIqSNsBhRiKNuEklY9q1rUUAdgeiBRKBCYIxLr300uy+++6TDJV973vfc8U4GKCpRhkTwDCDV7rb5cYbb3TGvkTIYSVH/oQTTvikODVlPOwH9gZNVhcNncK50YyGLuVZq3ZN5Q1Yclzg6CtLOEGzCDXi1Szrvt04blUNWGkrRP+uNDseUeE8ZsyY4BzTRvrCAgzND15BqWAM48mlcloi0H5pzMfPQdpe04/DhkeERXKQYSxvDEswsmvbi0AsKX+92ZL3jeEiaZPrx4W6iEpy3xpagg7hcajyulnweMM+IhG8lHhO6WAoFc2GItQdUCxYxJldNOdeaMVdeQNWejpq9pLLzF8pUq5u/PeqGrBU0k+fPl0M+bBhw1yVp4bA7aixWcEpSB4sVFdSIe87piNYs/tdc801aodCjc2KubIp0CxCKhSCtIMNRTpvu/5/EMDoJAdWKkceeWQGO45U4HuGEguHjVTKCGlL56R5/SuvvKJGsUikKKaAttFzaHY01HK44BHWWO803532WJU2YCHy9jl+2g9uxqs2ollWVQNWmj/pkcrnnErR+9WvfpVNnDhROowr2MCIlXojmAh8rhqGMGOBuQZxOMV33/jGN5LzC/MA4zmlf7qG4Kk2Cj0NJFs/hqZOwboR0ya52dNSNEw7Yal0e4RAy8ADZxqo0CRCKjDCEPbXEGm9Rn4OkyZNKo1BR+NZpWNU2oClL3hKZWARKHRbuuCCC7r6xRZhUMa/V9WApX0ghNRSgQM4hnqp2f2kRVf5samAlYabGI+OWHg3NEQr3YJwv1ZLQ7rfQAKuIb4oTGMsG6O1CEBMr1V0QxhamnLjn56GBNL0FsbSNKZa+2bC7iYtusrfBVsghnaw0QzxoJOXqyFaKVPMhVQZ1vVulcoasPSEJzyjLbjVqTi0nFdtZKvrgYX6CF5TqeChhKZGQ1KpnGrvzcJJVxgNA13Tm3TxxRe7rlgaAgMEOcNS2XvvvcXFNn4O3e7ZkGJd9etJlwnlOG72LJo6peUN7Pbcx+eee04lb5X3Suifjn5S0YzOaRno0BreeuutXU2rVlkD9rbbbnMJ8triqU+0x7XxqmvAap1oyZeiwl5D6B4D36NUMBIpmnrooYekQ7lnu+qqq8TjMADeCIxrDaHIgk1LKuQvaxSEQlyukf4hfR67Ph0BaONgt5AKlex4uaQCewCGp0Y+JpGwMpw/0mfUup5GJvUaSaSMT3SH/UEqmp0jtQx07WJaKUZlXF9ZA1Yr7JsH7dBDD3WFHCblIFDVFAKtBUGzuhfvDywEUs8i+aGwEGgUhEG/Q3RCmger6alGUzXyhUmzoKABI1aaL6y5WZXzJdqoRQhoHGrRqeuuu86lI0hpHtEpclc1Ijy9kN5CipI0dYN1infHIUQqmnsDjRkw0KU6xd6glX4lxaes6ytpwL755pvZUUcdpfrMVGq3ohmC6qQ7bLCqGrDAKPXiwZOK9853q9J4NdJNlA308ssvd60MTzzxxOy1115LnpYv/NAokNBczHkg0omkVEV+MZembvD+KdYgd86kcxFYunSp+2YkaQRep6QHLK9T5CpywFq8eHEysL1CYK/B4kKLcNI2WK8kh3b2BlKmattxJ79EhUM7FG/YO9RtdLNU0oDVUM7al3b66adne+yxRze/y7Y/W5UNWGnXK/pka7cWxvtKC9dUOh9O6fRlRySGJ80ZMMpgM0B41tS8sLIqoCUNFljEeT6aUSDf/e53sxdeeCHpe+l2iqIkUDr0IonhybdCtMK3EJVEDPOeMlgIaG+bKpq556lzaNV1eKtZ91Jk6NChbh1AiMhgH7z//vspQ2XeEE66uMlFJ598cnKBWRmdI7WfT2O8ShqweLo0+PA8QFR3auS5aADezWNU2YAF9zlz5ri+1bHCQseCV4bQMvCss87KiDrESL0wNly3cN7GCF1kzj333E/6gnMtHb3wStCtKEY233zzDOYQ7Tayfg6kOMTy1OKdpojPG+eM9c477zjMYxkXur04JuZdd8tvUxoa1NMpwr3oFAwHMVJPp2bOnOlay8YK3bx22GGH2Ms69vcwr9AOOJZZhIIr6g/y69TcuXNd+saKFSui8NBsYFB7Y3TqzDPPzIgWxIgmX3nMfdvx20oasOSlxC4EzcAjHeGggw5qB749dc+qG7C8DGjZMGiWL19e+G4Iw9A2tOyuNhixLKj8HSLNTtf33HOP64IV0pe9f//+zlCFE7lW8EaQSxdKYwdGeI4g+S9TbrrppmByboxWNiXSh2qFAwPGdqgnlmpzPCKaKSRl4mRjhyNAsTBFwyFSpFPf//73s0WLFoUMlTXTKb47Wk2HpDhgiLF+dHvb0Hqg0nYXrvinn346CHOaRYwbN65uuB8jFsxDWvmyNzAOB5Ay5fXXX3drWKhOUWhMO+I+ffqUOa3KjF05A5aN85BDDlEFCM8NVZ4m5SLQCQYsCLAo4MnD04E3rlagWsPjOmrUqJaR1aP35GfefffddQ1ZNimMROZUlMpASIxOUQ8//HBdftiBAwdme+21VzZy5EiXP9tMoB+jMnrBggV1fzZkyJCMRbPshTx/c4xOwr+ED/EW1woGKx7qfffdNyM9opnMmDEjIz2hEQ0ZOXKjR4/Ott1223I/Hhu9rQgQuodAvpFObbDBBu57wehsplPo44MPPthUp/iOofEqavSBE4c5PfDAA3WNKtYp5kNaS6/TQoLR1KlTs4ULF9bVI4x71k5SnJoJB1sOM4xXLypGGhJrHWsCVf6tEHSKiDT7QyPO2u233941fCnaG1ox31beo3IGrFbFuAeRRYKuQC2X5W9nq95b9qc/HxZ7+1o+v9wNP/O/N836fE6e7N0pBmweaypZSeBn4YPoHkOFQogUYaEhnxXvLhuez7mMHQtP7KxZs1yHGPI3d911V+ddSQnNz5s3z1FssfAxBh4IiM5j5e2333YpGBjFyE477eTClXhx2yXgzfPx/ihg4/kwDup5XIvmyKHGPx/PxPOhC1pUYEX3b/TvWjrF+GzIhCPRy1ZtvqnPnXIdIVf0gPeXogPcE7zx5vHNoBMcYPhmUsZjLl6nOCjuuOOOyTrFAZI1gXWK9Yk5pa5TrE8Yx9J1CrxovIBOYUyz5klkyZIlzqEArzVpfymCjtNtjy6erJd8x9ttt13Wr1+/6OFITWBtwSaB6QXWAtKk2im8N9ZgaBjXWWedDO5ubJyig3o751zmvStnwN53331qLdkADhoJTiatkI/+8GS24rnbspXPTclWvbukFbdUuUfffSdkaww5UDxWJxqw0odmweVkzKJZG44m3MjiOWLEiCCDgevxwOIFqqVQwThjMSa/KWSx4jvCe8pmnM/rYqPBMMMDy+ZcJGzi5NayEdee/gcNGpRx8t9vv/061gOEt3ratGnZY4899qliOlIr8NjgyQW3VklVdapVzx9zHw55EL+zoeejKVSEs7HjLcNLWSREQPByUbxYm/tN9I7DGnoecvgr0inI84kQhBxwmQ8e3aeeemq1aArFY3y/RIoYr0jAhu8Y44eC1rywTqHneJhD2iPjrQYrvhkYQvKy9dZbO+N6zz33LDxwc1i4//773TpF+D4vGGesnax3IV5FDDu+Y1Ivamny4Mr2768o4lSEY7v+nQgRewPrMGtyXoiCsTcMHz48SKfa9Qxl3LdyBmxMPlIIID/5yU+ywYMHh/w0+Tcrn789+2DOJdlHr4Xl4STfqKQLzYBNAxa2DAoOQ/JpWVzIoWwk5JuGNCPAkwBzQaNiDYxMcqZCKLVY+CiCaLSoxzQT6cSq19B2vuT1QrmE0V+2YIxRiBeiU4REyXerJ1z/05/+NIhNAuOcAqSvfOUrZT+e2vgYThRkhjS4wKNHgVMj4xOjgOr9d999t3B+eLzgIG0koQXIePbhH2W8ekIUhhztkEJDDDSer1EaAXnxNCjR0CnqB0Ly4jFAoS5spFMc1nl/Ia1zMYrJr29k8MPFe/PNNxe+Ow41cG975pbCCyryg1CdAh9o2EIONBV5NPE0KmfAYnBy4tQSjc4mjeay6s0Xs/duPyr76L+e15puW8YxAzYednLTrr766qgL8VayEOf5AikYIMWFUHioUEhEAUHt5scYbAoxzREIjXL//OYHkTbPFvvtYKSfdNJJlS8gwCNN4UcsBU+etiz0XcX8LkWnSC/hQJPXKYw7DjGN8gHrzYmiFMZpZFDFPEfZv8W4o/gwhn6Ozf3ss8/+lEGFJ3H8+PFBRY/+ufDscvDLG1QYh9DPaegUxh3vj7SdUOH7hU2k1ki/4YYbXFe8GClbp8CIYql6+euN5km0B4M+f9imUBUebKJNMYIBq9XJK+a+sb9N1SnW4H322Sf2dh35+8oZsBIOyto3wMlbqzVm7dgfvfrb7L8nH5ply1cPoXSiFpgBG/fW8LxCc4OhFyu77767Mz6RDz/80BlSIR6N2vtgxMI/6D0ceF7ZoOsVpRXNEVJ+PMCe01LCj9kJnli6lvEOU6QsPmkJ93WtTlEJH3Mg8jhgBGMYVtkTi36j542KWZq9UzzNfG8YQwjfHYe3EMaO2nGJgDCPz372s+56HC8pOkW1OAcHz1GOUc4hN6ULE6kA7J++YFnStCPPd4yhCctBqk5hrPp8XYxzvMVQYMUKKT2M5WsBJI1giFwQwaiqSHWKA1ZRwVpVnz1mXpUzYDllpWzo9R4ahU/h0ysC8MNXZmfv3VJd5S+af+2/mwEbjhiLOTRvIaGvRqOyaeLFodCADTVVKJrAe8Qmypjk4aaKp5pj46TrVYx3JH9PDOtrrrmmsqwf0oYWGAdXXnllYX5fzHsAa3L1Q+h7Go3LOsd6JzGEGZt0K8aqKg1Pikcxj5lvtMHhkRB+KHVdPdwxEijMIs8cur1UyesUqQzkhaaKNzzRpeOOO05Fp0hroWlDquR1CsxSDGF/b2948t7gYE05fDAWRjDfcVXZiTR0iigae0M3S+UMWLwHJKxrSBlt9Va9/XL2x+v27ArPq8fYDNhwbZN4NfxdKE4g3KfRz5vcRTyohI0kQmiOaAX5ZFOmTJEM5Shmjj32WNEYZV2sEeHBwKfgRUskXcb8HMh7w3OHhziW2L32OViDSXepmmDoc9CKSZGp9wwc+l566aUMT7xE/P4ibUXKHDDGwFz63eBFxzNJwc/EiRMlj+cK4CDSZ261hVGxAxMtIsJDXqxEoACkTialAUXtfaHrJCe2ioKXurawLXaeZUWLYudR5u8rZ8CyCFPlqCFleGD/+Msds1VvvKgxvcqM0XffKz5mIZAzNfQCC4HGZkW+Ia1N8QBJhU2GIg7pZsU8MKopGJB4lxkHrwabTNW8eBg+bFgh5PDN3ov2wVjjIINOYZw3KzAK1TUqyAlrV00k7ZLzz4IRjCee6nep0DSEwhmpTkHRhDeX8aSCDpC/DkWgRCg0Q6dokysVz7pw6623SodyjWhIJZCuU1DJaeAtfqCaAYiCjR07VjwsOkUudTdL5QxY8opiW1g2ekGELshN0pIP5vw0+2BWeshXax7a45gHNhxRSPs1hPwrinakQrXvF7/4RZVvhiIsiP01ZMKECUncmRr3bjQGkR28ixoSW+DW7J5aOkVxSmhHqWbzoSCINJCqSUor4XrPACXd4sWLP0UBlfK8Wt8x9+YwqmFUkxOtVQhNNEUakeHZSHcibN+oYUgM9tASQpmlIVVscgR1GgcHqUC3GMLOIL1PO683AzYQ/VXvvZ798aqPu/GsjE8+D7xF235mBmwY9HANkv+qIaQRwKOoITQ7CKHNKroXG7skPy0/vs/zLbpnK/9dmsuXnysUXCGcmUXPp6lT5HdK8qD9XMmbo5MbXt0qCZ43DQOPMPSyZctUHg0uVrhoNYSDaAhtVtG9aMgiTSPx94AzGo5dqaBLGLDS9A/mgWeRBgMaQvHqZpttpjGU2hgpbCSNbj5p0qSu5oY1AzZQ7T545MfZBw9fEPjrzvqZGbBh70vT2Oh2A5ZUC7piVUm63YDV0ikK8Qj1Vq0ApIoGLDoeS53V6Jug2xO5uVIhda62qUrqmFo6ZQZs+BvQNGDJh07tahY+4/b90gzYQOz/+4ZhGZ22ulHMgA17qxSRHHTQQWE/LvgVOWEUWkiFPDU8N9J8N+ahGXqkmprc3CqJVg4lzwTVWEpr31o8NHVKKwWEgj6NnGrtdx/aeKLovkQayIHV8AZSzEcRnlQ4NGAs0lRBKnD5plB61bsv3cfo4CUVokR8L9JiMOZBZ7VY7tdG89eKpEjxyV8vZS8jVfgAACAASURBVBLxY1X1IKqJlRmwAWiuev+/sj/+rFphhoBpB//EDNhgqFxBg0YeFw0HqDSVCmFj+I6nTp0qHcp1YyJ3lX7iEqEXPbllVQtB81wQmEOhJBHI4inC0xINncJbSsGGlk5JaKG0cKkdR2tjh2qKUL1GGBraR428anQKw1Pj4ADVFIdjqbGoqVPk92LASijCvD5QJ8MBOYVLNq9TpABBpVW1YlMowk444QTxZ8RBTULTKJ5ACwYwAzYA5A9fmpG9N+WIgF925k/MgA1/bxqURxDFY8BqUB5RcQyNlrRSmK5C5EtRvCMt2siToIcj25pfdjuNFu2KU0j+8+hXlUYLg4UDiNRzyuGDUD2tdiVCriljaFAeQc0GjZY0xx4aLb5hDNjrr79e8niuJSmsQBhTEr5cJoFOscYwnkR8dCC0vWqze33jG99w/MtVFA2dOu2001rS/rqd+JkBG4D+innXZsvv/VP3pG4UM2DD3yohXzablE45/i5ajQxoAwsfokYjA99BS6ORAdQ0zK2K8txzz4m4KNmEySvTSB/w+Gg0MvApG9I8X9I+MMqq5pXyWGk2MoA7ecmSJclqqtXIgBxFQtnolFYjg3fffdcZw5LmGGXolFYjA7zLvL9ubWQgTXfK61SygnfAhWbABrykDx79SfbB7B8F/LIzf2IGbNx7mzVrVnbBBWkFfbSMxPOaN2ZTK8cJGVORi7ARQxKe2kqWAhnyaREq0K+99to4UP78605oJSvx3uDpJgdPW+69917HwZsi5FPnOYVTvTd474gMbL755inTaMk1eF8h10/xMtNKlqpzKJ0QqutpkZoivqOXvxaj/4EHHkgZynkl8XYir7/+uuPyTTkgExKnixopPIhEp8jt5aDuRUun8HzzvCnh/9pWspLDTNVbyYI7ewx7TYrkdSrl+k65xgzYgDf1wezzsw8evSjgl535EzNg498bhQ1XXHFF1IW+A1f+otQ+4+PGjXNFV3nBu0j1f0yIlf7p5EnB/ZkXGhHEcorWbnpR4LT4xympBNoduGofmdSNWP7VXXfd9VMeZYwDmlKgDzFC3msn9E/HyMOT9+qrrwY/Hl2g6AZVS5mE0RmbSkBuIYZvrRee8WOp8U488cSMQqm8kGOPwfj2228HPx/NQyD3r418pBxGG+kUc4plN6inU/Axkzsc066aNCmej0NIXuiqds899wTjxA+rnDpQuzewTsXqFJ7pffbZJwqTTv2xGbABb84M2ACQPv5JL3TiyiNBUQkh/BCDEfLtZon5tLUMqRzu169f9t3vfrchRRWbH160pUuXFr40NmIKt2iGUE8wYDFkQ+TII49077+ThF7hIc0k1lprLddtiSKbsoUUAA5Gy5cvL7xVs1zj999/P7v88suDdAqjgMIY9KFThII8Dl4LFiwonDIV8BzsMILqCZX/hMsJuxdJPeMufw2YhzQDIdqB17yRTpFzipEXwgsL/RY5prWHUD8vDDzaRGvoFOtUCFMCawprSyOdgjWF9xfiaYaqDK806Tv1JNQTS4SBHGrNNtBF+qLx76E6BT6sU96br3Hvqo9hBmzAGzIDNgCkHjRgQYUcM7rCkAZQ653Au4nXFeOVtoVFwvUUX5D/VLuwb7nllm5hGjZsWEaHlSKBZgbS96effjpbsWLFJz/HWIGcfK+99sogYS8SvF14m//jP/4jW7Ro0Wo/xyDYYYcdnAep0eZZNH67/51cOt4fXo5ajx4hSzyS++6776c8P2XOmzSQu+66q3I6VeYzp45NEwGMft5fPt8TY2WrrbZy3a1CUj4w+Am5P/TQQ58yivFuUmDFdwxbQJF4nXrkkUdcSkBe0Cm+Y99atWgsujLxfHgt8x5LPMpbb721Ww+YW5GgU+g5c4JCLC+sU3zHHIhCmnOwTrEmgPlbb7212lgUqII57YhD8sRZ7wiT83x5wQBm7eT5tthii6LHy+Do5vlYp2rZF8jr9usURWCdKDgmwIrDQ61ODRkyJNtpp50yaPQaGfmd+MwhczYDNgAlM2ADQPr4J73mgfWosLHMnTvX/WGhwdMxaNAgl0uI98DnpIWgSIcgNoZnn33W5bWyILHpsRnzJ0Xw5hCOxBPFZpwqhKZ9NTKhSjbRbhIMIDDH48qmHrIBl/X8mjrl54jXEs88OhVyoKr3bKQlYGzgGcR4Qacw6tDzmMI9ohYYn3hQ8zrFZszByudjx+DLoY+OdHxvMXPJ34NvmEPfwoULnUFMvizfMQeZGOOH742D6Pz5812+LjoFThidsQ0+WFPI18VrifEC5ptuuqnLfw8xqP3zYaTz7ng+DqPomF+nMIKJ7sTKG2+84XSKg7HPLY4dA4yYF5iDG+OQ6oEBC0VgqOBBhxqNVvRgBo0f+LBugnvIwd/fi3fGWODEmsy733DDDR3msE+0Q/h+2RvAi++Pb2Tw4MHOyx3ijGjHnMu+pxmwAQibARsAUg8asBh09JrGW9YsjWDo0KHZoYce6hoONBKKGyicapbvxCKKF4ie9+00rsK0wX6VggB6RN5iiE4dfvjhyYZa7NzwuJFSgqerkWDojRkzpulBC2OAb4YIQT4ykB8T7ymeNwoCY4zG2Gfyv8eQ49nw4DXjQMbI4/kI2TcSDIsbb7yxaeoGhgffMU1Rmh0CSSlCF2ojH/l7Y4AeccQR2Y477thwThjiNN4I0SmeL8QLm4p1/jooCen41qytL4Yna2ez9Bauv+6665ynupFwgMDrTf5rM53ioMBYGNONhMPfgQce6HS0FYIxDSXaww8/3PB2HD5GjRqVjR492h2WekXMgA1402bABoDUYwYs3idYAJotdHnU8HqRZ0iIrVbw1FCgEFrUgEeBIpZeCxeFaWHn/grvGsVBoRX2vH90EG9cWYKR+ZOf/CSqGrpREQnPRS5qM4Ml/xx4UcEj1ZsaggnGHbR28+bNC/m5Mw5gQagXtmcM8s9DcuK5GZEVcldrDapVq1Zl5GffcccdQXPiRxixGHq1EqtThO6ZU5V0io5Sf//3f1+3MElTp2JbuBKyZ15ltlxGp/gGQvcGdIpiwl7ZG8yADVgizIANAKmHDFjyyTBGQw0Njx6eJQzV/OZAzhYbaCyfYS2lTNgbsl9VFYFUncKDR7FPGQYHOonxGlJcWIsrBYt4Gb2QX0zxYSzNW6Pqeo33iFHAdxxbWY9BhZGQP4wyBtRFjbzKjeZLHjnUXnlPbGrL3FoKO7CGraSZ17zevJgLtHp4d7WFLngUb7HuxQr0g9AQemH95f2l6BR6nU+nwkOd0gUNJhgwLkNI9cB41dCpMuZXhTHNgA14C2bABoDUIwZs6qbnESRXjAWczSF10/NjUZiAJ5YN1aRzESAVJYWiKK9TVIdreyph2KBwJEVohIBukjtKbioV6bGGlL8v+cjwm9ZSKKXMy18jMaQYI39wSDWk/FwwhKE9Iy0o1ZDyY/mDg1Snyjo4hLKt1Hu3rHMYrF6nMBxDWAzqjZU/OEhbFJfBfY1OweudwpfL86JTRGfK9A5Lvj+ta82ADUDSDNgAkHrEgKWC9zvf+U4YIA1+ddRRR7n8t1RPix+WBR3eUElhluhB7GIVBDR0SpuYXaM7mCf7lxoIgOy7XqkA/vEgFI4R/o2NfOTv72nMQmmcms0dA51qeai1JG1bKephLELPcLBKRFunSNc47rjjRN3BYDgghUPacQ5cSGehoE7aHYz1l5QPTWNRQ6foiJharCnRm1ZeawZsANpmwAaA1CMGrMQr5VFkwcN4pWAi9YTtxyrj9B/2tu1XWgho6BQbFRuWlmgYnczll7/8ZXbJJZe4im6JUP2NR0lLaAdMAZFEKMai8BKjjGp8iVBghMGv8YykJJDPCY2eRLR1iiIyDR1Fp4hiwcogEfA++uijV+tilzqe5gGLHOixY8eKdapTGjakYs51ZsAGoGcGbABIPWLA4j1tVqkchlSW0YEntpNXvbHJhcXjYtK5CGjplKbHhRxIqQHEG8G4g0RfQ6juT6HXqnfv0047LYP5Qyonn3yyaxghFXiU4YeNKdxqdE8OtVT4hzRmKJo37y6GyqrZeORzUuUvFS2dQpegfuQwIxU6X1G8qCFQ1ZE+IBXoyDT2GOk8yrzeDNgAdM2ADQCpBwxYQmCHHXZYGBgFvyL5/8EHHxSPBdfh5MmTxePYAO1BQFOnNL1AhNdrCeFTECLkq2EIc2+6ZRFmlwr5r3inJOkDfg500kopcqv3DBD2w/EpFainahsDpI6pqVOkJMDTKxVNzKEfo7mDVCiiJL9XQzTSI/w8yKnuZspFM2ADNM4M2ACQesCA1chV9EjSWQvCbQ2ZNGlSz9CmaOBVpTE0dUozZxEvXigdVDM8iRDEVvk3Gk/LmCLcT+hYQ+C+pemIhpBalFqUlL8/fNMhLWhD5sxBhk50UtE8NGhiDqevhiee5hLkwWqIRv6rnwepaq3i9dV49tgxzIANQMwM2ACQesCA1fSW0VOdtpVSoZCLXD7NAgLpnOz6cAQ0jSn6xeOd0pBu9sCuXLnShY4xqqSi6Q00D2zY26BtajNS/7BR/vQr+HxTKL1q76HpgdXKFWaO5oGN0QaF30KToeWZoiITvjepmAEbhmAvtJLVesYjjzzSFYBIRbvQQjofuz4eAS2doniHFpwaQoW2tPCKeUCuf9NNN2lMyX0vEO1riJaBrvUdk4+5yy67ZPfee6/48WBHmDp1qngcBrjsssvU+GChUtPwVtOBDi+lhtDVkC5sUvHsCNJxuJ7GNhrFfDTISOG21XiGVo1hHtgApM2ADQDp459obcTcjapcKGWqJuTh3X///aJp0av9yiuvzI455hgxC0EvVJqKwO6AizV0ijAhOgX/qoZoeYEIYWJYSyvGaSVK5bmWaLAQ0JXrF7/4hVunpIWde+65p2sHq/GMNEahGOzRRx8VwaWtU7GdrhpNnoMM3cJ+//vfi54PZgtSSaS0iExCK72FsYgQHHvssWKd8jRvIpAqfrEZsAEvyAzYAJB6xIAln4+OQhLx1FcaPLBUnmsT2Eueza6NR0Cj6lgz/5Un6HYeWArUqBqXFHJp8sByiKG5CXNasmRJvBL9+QqK3H76059WkgcWVoTjjz9exAPruYU1Cp280SnlgR0wYICjRdQsltLIg50wYULX7w1mwAYsFWbABoDUIwYsSNAONjUHi25CeMroVU3BBp1zli9fHgZwza+GDRuWnXLKKUnX2kXVQgCPUmrlOMU/6JTmBgo6N998c3bdddclAwX/K0UyCF7K1MKijTfe2Bll2kJ4PDVkj/cVAwHsMcz4jmNbmvrnIaeT1DkEZhJJ2ht6RF4nItEpaL2gYNLWKajQJOH/vE5J0kDy9IOkLHr8U3Sstm1yyhi116BT0IWlFlJCyUZr424XM2AD3rAZsAEg9ZABm9q3fs0118zOP//8jMXTC2E+DOJYTxBjcJ32BhP2pu1X2gigU3j2X3311aihaWn6T//0T6vpVNQATX6MThLSnjNnTvSQtdXrdJeiyCzWyMNA5Juhnay2pLaFpnCSLlfeUGRepEhgBKX0rec7zrfJTY3M1DY1kegUaR+0W9UWCud43hSdqi1SXLRokQvdp+gUh4R8B8PUFr4U8TGvMmTu3LkuFzZWp9gbWBNYG7pdzIANeMNmwAaA1EMGLGiQ8/bDH/4wmCKIIg363ZPLVytUwUIcH+qJZQw2ULy4Jt2DADqF14yNOUTQKXQwfyAKuS7mNxgcbPahjBkYd4TBiQ7UCjmL5513Xvb6668HTQGjlQ28zBQZmEUw0p9++umgOXFgxFClBWmtYHBgnDFmiFBkTLFcbWEanZjoNhVTXNSoIx9Yg2GoTpGfz5zK1CkMMlImqqZT4E1Oc6jsvffeGY0s0PmyBJ3iGw/dGxrpVFnza/e4ZsAGvAEzYANA6jEDFkRoA8vJfdq0aU1DPZzSaYDQrC81XISEa5tRulBVOmLECFfZbdKdCBAyhBYtRKeOOOKIUo27PMJ33323m9cf/vCHhsDDz0lVfr1Dmr9o2bJl2S233OJC9408S0QqMA74ZtD5sgVPLMYLmDcrxiLUj6Ho0yLqzYs0CVgXZs6c2XDaeFv5jqmAb+Ylo0ECWDUzPjFYDjnkEFcA1kgwqAnd8w6bGUJ77bWXe75W8YbSLQydQicayVe+8pUM1gEoxhoJ15OW0CwdhJQPumWBFUZ6I6FTGOvwwoULG/6Gdfyggw7KwKsV8vLLL7vnmz17dsPb9evXLxs1alQ2evTojGftFTEDNuBNmwEbAFIPGrAeFTZAPDgsflAPkb+07bbbZnTEwVPTbMGsRZbF+LHHHnPjMCYE2VTL8ofF3KQ3ENDUKU3EKDjzer548eIMoxXd3G677aKMaQz1J5980v2BNgjhW9lmm23cH62WsbHP7ufE94f3km+O+fB8AwcODB7u7bffdmHyefPmue8ZQ5z1wH/HMak/L774osOcufHfeEeZE3h96UtfCp4TOsVz+T8Ys4yTsk4F3zTgh1BroQPMiwI2DkBep2La2LLuMobXKQw5v3byjH379g2YzZ9+gm77OaHzHFoYi3WdQ0M7hMOV3xvwzKJTfk68x14UM2AD3roZsAEgdZgBC4E8LS5Z8DjhLl261HkeNtxwQ7dIkQSfz5FqhsCCBQtcURdtIFmA2SgIe7LRsPHhuTHJXGh11qxZbmMgnExeJEYBnYNYgME8NFzM9XgkMPKpKMcgYrOjChvM8UjFbFga76dIp+D5pGK5U4X3BeYYCHgaOWzxvjCiMKZ4vlantZD/yLfXSKeYU2j+LFEQxsI44DvO6xTV7/yJMTyr9p5Zn/w6Ra51fp3aYYcd3PN1shC94g/5yOgqzV3QT7y3PN9WW23V8sfjwME3w0EGnSJqhz5SmEgONfMK1Sn2K56PMXl/eO832GADZ/Cz3oWmfXAwI32D7xhDnf/NnGDBwCBmHW5F5EPjZZgBG4CiGbABIHWQAUvFNuGrIhk+fLirBG1kCBHa+9d//ddCcm4MYXj9tLokFc27iv9OCJMwLQt4M9l9991dRXcjQ4jFFszxRDQTrofjET7hVkioTo0cOTL71re+1Yopqd2Dg8fll1/uDh/NhA31wAMPbFmKC1yuEPZjiEl0CmNn/PjxznBtJuSqkrbRKp3SeoFQ//HNYPg0Ew6A0LF12oEb7zTfXxH9GEVp5GcTNShbYnRq7NixTdMRHnjggQxdL2ozjCELK00jJwAedwoEZ8yYUfj4ncIvbgZs4av8mBNx9vnZB49eFPDLzvxJ330nZGsMOVA8+ao3MmAjhuSb03CocKql8KTWoGIMKj1jaE5oXEDeWy8JeY4UARUZP3lM8ARQSAKVT17wlPP/N8uZq8UWvNkgtAj+a8dP0Sk8QVRPt9pbmaJ3HBh+8IMfuChFqNAmGXJ4clnLkFSdohim1rPEc/EuCPmHCjrFt9wJwjrF+ysy8vPPgpFHvmgnCHmvHD5CWVxIKzjzzDNXY5DQfk4ODBTOxegUB6N6tQ2xfLAcsigEpbVtXt566y03p2a5vbU44CE+44wzWh7JinkfZsAGoPXBnIuzD2b9v4BfduZP+n79l9kag0eIJ19lA5Zqaj7sGOPVA0Ie3LnnnvtJqIdNjw+7yJtYD9AyOAPFL67EAX784x9nFKPECt4SqHx8kQveh3HjxhV6Ierdp1GFduycan+PUYBxkKpTbCiEOasqqXRxPA+edN6XtmCocCDS0CnCsHBlFnm2WqlTmnhhSMF8ErtOcdjjALLHHntoTkd9LMLpOBFgbYgRDlYchMuoKUCnoMOLpfZi/kcddZQrDvOS2rmMIkGYNXAEIKl0cVxLigMHvDKZFmLeXe1vzYANQG/lM5Oy92ecGvDLzvzJ5w67J/vMX20rnnyVDdjUxcCD4o0gFsvTTz89+93vfpeEFwsBHoNmjARJA1fwokceeUTUGjPfThjPuaQ1JsbwZpttpopSKnekn0TthqU6OYXBpC1uNdtr+seRdmDKt9eUdmC66KKLgvMOFV5H1BAc2GkeQSg7RcjLJCwfWgeQcg/JNUQ+SO8KpSyrvVdZzT+kOkVnRfYG3htcyqGe5drnwwOL8wCJ9eLWjlXL6Sx5b9rXmgEbgOiHix7I3pt8SMAvO/Mnax//dNann5wovMoGLPmQFNmkCuFeOALJk+PUL5G8YSYZp+rX4sVJNfR5Nr+JEv467bTTRI/rW1CKBsldjFeDtpgSnWIThe+zioJXktQLiVBQhxGsKUQwUo0yr1NXXXWVK/yTdF9irHwHLc1n1BiLvElp9zJomciJraJIO3rxTBj4mvnM0o5ezAlqLta6Sy+9NLvvvvtE0OOF5RvkHaYa+kyAnFq6zlVRzIANeCur3vnP7I9XdSlNxVr9s37fbp7cHwCR+0lVDVgqlAnXSoWOK3gVqQaVCBRBcA2uscYakmEqfS1V6mwQUmHxhT4GvkipTJo0SS3vlBC293BI5kUosx4pvmRMjWul3mU/B4qHYJnQEOiMSN2RCh4lGAfgRZUI3++1116rplOSudRei17BsCIRDlgc2svKH5fMTdJG1t8376WUzCWv6xo6BeYUesamftQ+w1e/+lXHTqCxThEBaweLQ9F7MQO2CKE///t/T9w1+2jZgsBfd87P1hjyjazvvleoTLiqBiw9vadPny5+RroLYbiEdkVpdkPaYzYj5xZPts0DaBlA0LpAcYbHTCq1rSgl41122WVNidNDx66qN57cyaKq/JBn1EyToEHA9ddfH3Lbpr+BZo0DVmzb3nqDlpEmIX7AjwfYf//9NYbJ0HOfS6kyoMIgWodjpoJOabVcRdebNcIIfXQaeHDYlgq5sPDfSh0uzKOqrARmwAZqyQe/+WH2wX9cGvjrzvlZ3xE/z9bYdLTKhKtqwErzJz045FDiBdIQwkSt6uSiMd/YMaT5k/5+MBEQzk7NBcvPW7OYS5rr5ucF9Q2hvqoJnu/XXntNPC1NA11Lp+DOxHjV0ClwItReJaFbGuktGlJFA10rogY+6BRhdqkQosfw1BDSnST5/vk5UAwbwyDSaP7aKVgaODGGGbCBSH607Lnsvyd+NfDXnfGzPv9rYLb2cY9n2RqfU5lwVQ3YU0891RHnSwUKHo0TNvPQNKakz1XG9RohTOZFlT4FKRqiaUxpGXgUbFC4USUBbzwuGgae5sandWiA1/n9999XgTxfFKYyoMIgNPc455xzFEbKXP5k1Qx0aSFfHhgtA13TK6zpKKELZAydVyOl0U63UFFOM2DjYFx+33ezFU9PjLuowr9ea9hPsjX/+ki1GVbVgL3wwgtVwiiEY5566ikVvDTD2SoTUh4EwmxI5qVClydSCGL4dhvdU3Mz1vLqaxp4Uqzz12sd+jQNPPJppTmGPCObMcWFK1euFENWxQptCgspWtWQKuZoa+VCgw/rFB0YpYIusf9pHLZJVYPfViow3pCmlkLzV3vvPffc01GrVU262gNLuzZpJWb+ha16b1n2x2u2+5hY7d2qvcfo+Xxm/a9knzvi19HXNbugqgaslEbEPzNdhsiBhdxdKlBp0ba2WwVDA4NDKpDiY8BqpG7A2UqbYA2hM45GYVlVc8ugHaPdpFQwhPfee2/pMO568tjJZ5cKqTuEVeFJlQrpH6SBVE208jFhyagalZYGQwbvi6YGt9xyi9qr0zr00U2L3GOpEN2h8Erj0MeBiLWqalI5A5ZNhtZwGkL+By0QNeXDxb/J3vtVh3dTWmudbO0x92d9+v8fTWjUCgeY1OjRo137VQ2Bdgf6HalAoA4Lwc033ywaqgy9FE2ohItJtYCnMaYDUL1p4AEip09quGhTVmEAnXzyyWLkWJ/Qh6oJOXh4mSUCDRpsG41aMceOjU5hmEmFjlx4YKn2loi2TknmUnsttEfTpk0TDUnL1QsuuEA0RlkX8w5pZCAR7WYbtMqW6pRPKWJtkeaujhkzxjVroPOYVK655ppPdUaUjqlxfeUMWKqzZ8+erfFsDnCA15YVT16VLX/gbO1hWzbe5745PfvMF7ZXvR+UH/Va4aXehIR4raR45iAN+fpiG07/UJxIDLNuL+Dy71yaRgD/IIYrrUPxAEi4DDWr4f3zSfN8q5o+wPPRsIPweFF/+Wbft2b6gL+PtJCLgh2icugShU4SndJMSUldJxtdB2sHLWElecxa+aHaz8Z4Gnm+WgVc/vneffddNZ2S5vnmG1FIc8eh49IwgsvQg8oZsJdccknGy9MQXiJ0PmXIinnXZcvv/8cs+3B5GcOXMmafz62f/a+v/yL7zAY7qI9PVS+GnZbgfcULqyWLFi3KCM2kSr6TE16lVC8sOZ2QVPeCkGpBWI2FPUVo87nzzju7S++8807XGShF1ltvPYc5zSg0RZqLV+VOTuCEIwGHQor069fPdZwbMGBAyuUNr2GdQadSi7DOO++8bJtt/sTpLfGYcbgizMseU1WR0AdW2fvq8eZdPvbYY0nwDx061LV81RYJfSDeV+wfr1MSL2y+SHj+/PmuZXKKED1h76salZp/lsoZsGxSbFZaUmYOz0evzcveu/P/ZqveTGsrqvWMIeN8dtDuju8V5oEyhIWEBUVL+HiHDx+uNZwbZ86cOUldtFjoWPDykpIjSLEAIbmq5ZSpglwz2PPPP+/6sccaHByGRo4cudpofMuTJ0+Omi7MERTx/dVfyTvN1btxqpEHJvQZr7rccccdGZ2rYoRNj4jHJptsEnNZ8G/hp2WtiY2C1Cu4SikMK1ungoEI+GFKqJ2Ulh/96EcZPKJVFqJ+eBdffDGuEQ/RNFIVyzp8cHC75557oqAjWkzDgfzeQLQPzyc1ADFCEVits2bmzJkZB+YYWXPNNTOiTKQhVFUqZ8BqtIjLg03bz7JfwIrHxmfLH/2473AFi7v6rPOlbK3dfpCtMXhEqToo8WbUmxg0MIRYtYW8KQyakGYENYOLtgAAIABJREFUdNphHvU6JVFtCv3RjBkzgqY4ePBgtxiss846Qb/vph9hxLKR0hK2SKicJfTJIlxPYsjsMVrpwIa3rEyJ0Sk2TVqYVrH7ViOM2IzZlEME2h70vCzj1c8BneI+ISkARTpF3iLrV4i0SqdC5hLyG9YpcvdDC/JYp/hWtaMVIXNN+Q3vn0I6UgpCZJdddsnGjRuXYZyVJaTfcNgO1SkODBjUGLG1QhSLNYwIYojQwILUlnrd0yhAJm0ihH2DbpEcsqtYoJjHoXIGLF0jMDC05PDDD3ecm2XLqvdez1bMuyFbuWBy9tHrz5R9u8Lx8biu+XGXrTW2KP/ZmQwHBTycWoJxSEilDGFRwJPHqfSdd9751C3wPOBxhf+wiGLlySefdGPxdz0hZWDEiBHZHnvsUdqJvwyMtMcE59tvv92lBy1btuxTw9MNh97yMFkUvXeqxwnVQWhezwuHwQrn67777qtWQFSER6hOwWRRb6MqGr/d/05OJRXbDz/8cN0WlwMHDnSNOfhmWuW5o6iLaJ2GThFmRT8b6RTND4gIwKigVZTWynfK2ow3vVF3NXKDMX6gS+pEeeCBBxxt38KFC+tOH0MM3SzDKdIIL3QKppJGxWYYrqxTRTrFGget1l133dWwsGv77bd3LAFF3R0piGXtxM6qd/gjusBedcABB2T8d9WlcgYshPPkOGlJO3J5Vr35YvbhsuczjNpV7/1Xlq0sP0+2z5prZ30+N/DjP+tnn/2rv8myvrq5Z0XvQ5NCi3ux2LZCMIYWL17suj2Rr8eikuI9gqd0wYIFGYwHLDgYUXgzUowVxiAsxmKDJ4TNc8iQIV1jAPON41Gg0xMe6S9+8YsZ32mskFt73333Oaz4bwxfwvJlR1yK5llFnSqac8y/P/vss64VKx518ovJj+OgFisQrJNH7AvF0HNI3PHixgob8jPPPOO+P75jxsE4iBW+XZ6POfFNc4CFjjHFi8+hBk8x3zGed8bgO8a7FSvoFFXpcLwSZoaCL2WdYi4PPviga+xCcSTrHXnmrFWxwrr50ksvuRA3hxa+v1SPHVylHJL4jtGpjTbaKIlmkEMNOoUeEEEDc3SBnOx2CelT7A3oFP+NToF3kXOk3nx5fxjp/M1Byu8NKYcqcOIdghkHUL5jja5krcS5cgYsD6/Vx9kDOXHixI44TbTyxWveixMmYSct6QWaqVqsWNg4YcPZx+JbK2yAhJ3xIhSdsrXeQ1XHqaIHVhMraASnTJnS1KuPN1A7R1zzGZqNhbHJAZVNvZ5g5LEHUP3cTDQ9sFrPjgGMNxAKq0bd//x37IvJGt0bIwWvcKNIER4yMArx6qNThLQbNWLBcNlvv/0KdQqvHV5vPIL1cjPhVsXLyTpVZGCDD95AKNvqpXStv/76bj5EUlrl1dfSAxunNQhU0oCFs7PeJp4KyTHHHONc4iblIKBJfcYMq0zbUQaC6Dr5fFRYhwi6jE73osQ0pcD7Qm5ZivesHdhCeQQvLF7lEMFA+P73v98xh3OMFPL5QjsDERY944wz6obsOcTw7CEd2siBpYBrn332CYE1+Td4pMmZD+XvxDhjXrRLrhWMfHJXQ/IVMRrBol7kAS8r48yaNSvoudApCuTq5cDyXKxT9VKA6g3ebN/FML/66quD5kSUBgdJipc/6Ab2o45FoJIGLPQkGq3U/FthA4PY2UQfAa2uKPmZVbE9oz5yfxqRjZhNPbZfdbPNr6y5tnPcWOPOz5XNj82d9qFVFow7DoLkYMYIaxsV/ympKjH3kf4W4w49b5Sj2Gj8egYVGFElH8tCUKYjI/YQ6p8XIx2Ko3xREXtfbCcmwuW0+txtt90+gTL2wOAvJJSMoZrXqZgDQ/5dctgeO3bsakVFsFrEpohhUFP82O70IOl3YNfrIlBJA5ZqOSglNKWsqnbNOXbiWDEVvKHPB38huT3dLhj/Z511lstnSpEyyPlT5tGKayT8ilSOYxxWmb4shc7J446RRxElhXBVFCrhOUSEel5rn4G8ZuiS8KTiBcQrC4VSrFCZzTjahTzMhTmFel5r551v+EA1PVilNCDACMaw94c19lD20hRBpxiL1CXWKSr3+TtF8g0fJHs7aQQ8U6dEVFKwsmviEKikAUuiOp13NIVEfDqwmOghQA4aixNhKi2pcntGrWf048SE0erdG6/Ev/3bv3VNcVcjfPG00TWJdSFVqtw1SaO7W7d3TfJNH6SduCieYax6NEOpulWlrkm+uxseYSJZKYawx8HrVEzaTj0MWdPhdydV4tvf/rYoPbCM7m6p792uaz8ClTRggUXShaIRrPBLlp0H1f5X2roZSE74jWYJFQ+tVntB6DZGpbJETjzxRFd80c2SElKtxYPK5tCcu1ZjKens5ufaDraVUJw01gn61tPcAlpEqZBPufXWW0uH+eR6Qve/+52smc0hhxzicv81GHjQc0L0HJAlQrgezz6Yp3bT8/fHg4s3N7Wzmx+HfF/o3EwMARCorAGr3dCAh4W+hNwiNjMTGQJUjpJ7py3kXnUSyXvq80vbkPr7/s3f/I3LLexmQSeeeOIJ8SPm2wGLB1McAE8ZFEJSKbPrYOrcKEI64ogjkkL++XuydlPcqxFF0/TiadUAUKBE/iqMOVJBnzBgpTpFXi1dCOkeKBXPKEFxmlR6ZY+Q4tQL11fWgMUzhYdKW6BooiqzrDZy2vOt4njw2eElDelmFTP/XkofgDKLZg1SYWPnsNfNQiOSkGrzIgyqmEYALdFhhx1WNPWgf69iGgGeSTyUGgLBOhRVUiFHVKvG4pFHHnGdoDSEgq5GpPcx4++4444Z89IQojvTp08XD4XTiD1XalQzEdYDDU+8+KFsgLYjUFkDFmRYkFMT/5shS1EAbdJM4hEg75WChdTCo2Z3pJOIdu5z/BO25gppXll+lpMmTeqY1o+x6GoaeFXUL00Dr4rsHZoGHmkSNBmQimY6iTSPPf8sNPSgQYRUqPeguYeGwFXbqMtgzPjkvxL+1ziI0i1M61AU8wz22+ohUGkDVpoc3wzuXsq11FI78qDOPPNMlUW23pyoxGYR7wWRVNXn8aEym3aF9bgkuwVHiNpD+DCLnreKnhsOghSoaQhREda1KglV9TDAaMh2222XPfbYY+Kh6BilEf1gIpp7FA0cGjV3iHloLUOfe9LemfbBUiFShAcWB4hUNFNApHOx69uLQKUNWKAZM2ZMNEdmKKS77rqr8yaaFCNASgf0LhohoHp3Y3M699xziyfSJb+ArP7SSy8VPw0tAKEy62bRKHYDn1NOOSUbNmxY5aDS6jxIwU3VeDKphid3VUO0wtkUcGl1DqSzFeuiVKDA2mWXXVybV6ngobz//vulw7jriVpwQJYKqXsctht1J4sZv0w+35h52G/bj0DlDVgtT1UjqDmtkqoA4blJfQTmz5/vqlGllajN8L3wwgtdn/BeETwR8LhKpRfCaRKO1Dy+P//5z5P6j0vfUdH1GqlShGdJJaHwpkqyatWqDKYMaWdFipzwVGt4czVzoeGAhag/hZc2/56gvyJ39ZJLLhG/PvSJIi5p+l3//v0dawDUV1LBawrtn0a+PlRqtL41MQQqb8BqLRDNXvWAAQPcKRqOQJPVEdDM8WqE7RZbbCGmV+nE9waLA2wOEoFsfMstt5QMUflryec7/fTTRfP0/JiiQUq6mMpsDnASwYt73HHHSYYo7Vo8ePAVSwQKrZEjRzpvrsQYJoxNJ6h1111XMp3VriWSEtr+t9FNqcn467/+a8erTd53qrCXgTXFblLGhlGjRrn5MLe5c+emTsldh2Het29fsTcewxUD1sQQAIHKG7BMEmoRPLFlC7l2VATjzeh1IVUAzxc5bGUL/eq33Xbbsm9TufFpzwhNTaqw4WlVQKfOoVXXSam0qkqhBX50qoKjGnaPFMEogyi+qp3GiNzgPU01zDDK8J7znNKc0zLyJ1kreX+pTQMwyjA2aa4gLe703mVNnZLmMecPj9JGFFVk2kj5Zu0aHQQ6woDFC0sYY9myZTpP3WQUNoGDDjooo9d8L1JtLV26NJs8ebIKdUrIy4I6RiOHLOReVfxN6oaFnhLeo01qL4iknWUV2Qdq39nzzz/vvoOUUPQ//MM/OA7RKguRBqIFsUYeeZPkq2611Vbu8bgeIyglV5Q8TA4yZbTcTY1UMRfmxNwQus6dffbZGYfbWOFAC1a+oBOdYqzYTokY0hys8zrFAWLq1KmxU3IpO/DI+sPVO++848Z+9dVXo8f62te+ppLOEH1ju6CyCHSEAQt6VJ+ed955LQOSvstDhw7Ndt55Zxfa6WaB2oRK01mzZqlU+YZihad7woQJlfUchT6H9HcQ0HNoCBUKt/BIkhfYS4KnCyMvpnsZURVyFDtByDXHAInxVFaROqsR1hidcHDHCDmvePBqhcPb7Nmzg4fCQCSPXzN1oPbmdIi69tprg+dEZT7Rp9rcfzzWfN8xRix7FN9GrXEOBRapSjGc3TiLMBZrJTYXncM1TVa+8IUvrDYUThLmGpMKYqxBwWrVUz/sGAOWt8JJDiOr1UIyO9yxJNnzUWJAkJDeqYI3C282CyQ8jRo8fylY9EIb1FBc7r777uz666/P3nrrraaXUGUOB+LnP//50KG76ncYr2ykRXRKFGXSAareRlxlQBYtWuSer4jvdP3113f5idAcdZJQtQ+FVVG6BAYn60Mz5wG5nngF8Vo2ExwRjNWKNZvcU+bFGttMKB7GUBw0aFDdn73//vsuV3fGjBmFr5fcYHKEGwnrPDpVxA0bolNTpkzJbrrppsJDFqwy0Lo1Ko6miPWKK64oPIRgkNNmlyiKiSFQi0BHGbAoPblGhCHaLdCeEBbhRM9/V104gbP5v/HGG5WYKiHBMlrRVuLhEifBRoxXCeOM1qlezzfbbLOMlrEYKxtttFHi6N11GXQ8YAVOtOVFiJqAE5snkZNOTgGCD5TD5eOPP/4J9RCHFv98nWa41mof742uU/ztqfngZ4U4H2cBzxkifCNEj+bMmePy9X0KBoYvLamhpmpHmg1z4v0xJx8xIGLCc6GbfNMhgiH87//+704P8NCzRhC54vmoG4AKMtSrDCsBqRxg/vLLL7vb09TBY17P011vjhjXPlqH88NHDDDKmRPPt+GGG4Y8nnv3jPXb3/72k0MbBw3mxHeM06gVB4+gydqPKodARxmwoMcH00t8oZXTGIUJYWiMHz8+eOFVuGXHDIFnHAOWDk144/Bg4KXB4Pd5gK1+GFJM+O4wqnzYj7AgoU82GkKhocL1bFYYoK+99pp7PppXwM0Zuqn7e1EZzaYMTniuwYmCGDY+oiSdLBgqPN8zzzzjjA0MMw4vMKVgmBEV6hZBD7wxJX0mvhsM4SoV4vL+0PNUqka+FQzYxYsXuyYyfC94qDGGU9OIcGTg1NAw7pkfua6pucUY5njm+Y6ZF98xz8V3jFc4VEi9wDgn9xcPP5RyrFMY1qwvsCCECu+MsZgTazKHBIxyMKfTWYywdrJOMSe+Y7DiO+b5Qg8fMfcL+e3ChQvdmo5O4RjkcIxOcQAJPXyE3Kfs33ScAQsgELffdtttZWNj45eEQBUJ10t61OBhX3rpJZc/1yw0zmI3YsSI7IADDmiJd5HNBN5GKIIaFYIQfaA5AGG+ZlXweKKuu+66pqFxFnbGKWo2wLfPn2ZdfSgOJIWg0/giOSyQS3nXXXc1bbtJWJx+8LX5hcEKZz+sPAJ4XtEFjKhGgrGHnuOp7DS58847XZOEZsXZGJ6HHnpo01QSrmdtgaGikXCgIZ2IVIRmRiMHBcbCwGskHJDIrW+2TnE4IN2C4r5m/Ol4q2E+apRKov1OZ86c6db0Zg2JMK7RKQ7KVZeONGABlcpbTlomnYVAJ1SEtxpRPJJUaBfl8vl54YmFTqbM0BqeUu4RyvzBCZ7ISD2P0L333ptddtllwbASFh03btyn2uOyKVAUEkrQjgeGKmyM2U4QQs0U9fjwbtGcef/gsemmmxb91P69gxCg+cPVV1/tmhGECgYHhl4nCIdhivlC61lgoqBYcZ999vnU4/GtUPAWuk5x4OMbq3fwi2WSgKmIedW28SalgiK1ZkZw/kEwrmnRXuY6hU6xBsfwFXdCx7OONWDJfcKIjalk7ISPu5vn+NWvftV9qCb/gwB5gOQCx9ILbbLJJs7oLSPPE4qbf/zHfywsRKl9j6SG/PjHP15tc8CTmNJ3njxIDGg2LwTjno0n1Hj1c+N6jNjQ/L526SbrGfMMNV79PAnbwlxgRmy73pz+fVMpq775zW86r3yVBX5auKtZ92KFZiZ77LHHJ5fxrfDNxNbEECnCgM5HjFI7fu6+++7usO2FFAEaP8QwSHAt6xQsS2W1go5lkPDPQ7dIaEWrKh1rwAIoCe5nnXVW9oc//KGq+Nq8/oxAlTshteslschhKMbyNPr51hp5Gs/BZsCCnPpNkVN30UUXuYIqNinSRTj9p4gnnce4x8hP2fS4L2kOGPtVNfJSNz2Pab2DQwredk37EUg1pPzM6VRGmlFVhQMuqREpkj+MSnihuXeeE5j5MK9U8QcHjHM8r7GHbH9fDqN05NNOJ0jlGvfzqj04pOJUxnUdbcACCJxyGLGhIYQyQLQxmyPQ680KGqGT6mnx47GgX3PNNao8ulROS7t7eWJ9aatcPCR0mCKHDJqg0BSLeniX0YFJ67un8AhqNIn4DkySMeza9iKAAQS1liSqSP4iB0iaEVRNCK3T7jiG57j2GXwUT9qRjXFJPSDPk0hPqtHJOKxTpHxgi5BSEBtNyz+jdoqdhk5VueNjxxuwvHyqWFHCVK9R1T70bpqPeV7rv82VK1e6RPmUzkv5EbXDhtKWrcyNSl04IDUaCGAMszHQTloiMCVQnEFebNUkNbyXfw4KS1JSNaqGRS/Ph1x4cpqlUtW2yanpRLV40PiFQ7a0Boa96eijj1bp7oX9AZ0fRWkSwRimSF3rAKKlU6xRsF9UTbrCgAVUKpLxxEpOr1V7OZ0+HyqlaRto8mkEqHYlp1Mq5MLicdEQKuAxiDUETwtE7FLB48IB1XO9SsYDb2hiqibkmTVjVAidLwYshqxJZyLA9xJTuNXoKbUPtVpo8v2x7klFa23hUHvwwQe7xhNSocAML26z6v7Qe5BGUNudLfTa2t9pHI4Z88gjj3RYVU26xoAFWPL3qIQu6jhStZfQjfMZNWqU6xRkUh+B2IrXRjjiUYxpQ9vsfWiEsv34GJ6/+c1vxK8fgww6L4xrqVQxzE44FRodDcEL1Il0ShrP3g1jSEPZHoOqRr34/jznr+R97bbbbsl5tLX35XshbUoqOBKwOyTpA34Omu2htXSqqgXYXWXAegWQ5hZKlbmXr+dUSz6fbaTNtUBTRydNmqRCqaWR/+qfmoIpaYiPsShskKZZ+DlVMQ9W89BQRQO9l9fC2GfXMvD49iRFSbHzDvk9uZjkd2oYeDQmKGq1HDInfkNzEDi4pTJgwAC1LpeaHnQtnapqHmxXGrAoIxXLUGVIEsalSt1r19NJiTQOOEFNmiOg5YGlkIu8q1ouwhT8NY0pLc8GHlhy28kZlkoVKWHwLpOHpyG+eE5jLBuj9Qhoecu63QNLG2Va9WoIBcap7Cb5++OBZf3EUJeKpgdWiy/fPLDSt5pwPVQbVDHTM92kXATYhDlhm4QhAIn3BRdcEPbjJr+Ctgod1xDyMDHyNATuQCiBpAIvIgwjGrllVaWD2X///aUwueurWryj8nA9MAhE8zT9kEoVIw08E84NDc8pHkq6SWkIXQ01unrSUYtW29gcUoGKS6upAfm0Gqlco0ePzo499ljpo6lf37Ue2DxSJI5ffvnlGZ1uTHQRoOL8lFNOMa9rJKxEBkiMl3oWaY8I9Y6WaJzY8ZqeccYZYmoongmDGi/l1KlTxY9I9XKzdrfiGyQOoMH8QAiT59OqXk58FLtMgICUj9Tf2tNDCaZSyqVSjls/KQqToOiTHmpJtTj++OPdWiUVvKakItx9992ioahpgC2FVDwN0aAbYx5V1ameMGB5AXBI8gGxEVpagfzTgAiari+cPE3SEMBj9tBDD6Vd/OertL1uLMBsEBKhShivooYxDH0WnuFTTz1VMqWsqiEwHurRRx91G7JEtPkjJXOxa9MQINcbg+rtt99OG+Djq0jfghu6ikIqEM8nEdLUWPNIm5KyB3DwxwFw0kknZYsXL06eFnn6MEhgUEs7Te61116OglBLsHVobiHRKdruTpgwQWtKquP0jAHrUcOQJUxDDiItM03iEICGiHDCNttsE3eh/fpTCMBvyiKaStBPW0XC4tqCNyHVu5Ff7AgXEjZMlXwxw/jx47N77rknaSg6cRGBqdf/PGnAEi6S5D/ifb3iiitcwZtJZyNAr/pLL700+SForUqOaFUF7+LNN9+cPD0oA8k3RTDMUmkzv/zlL2cXX3yxG+epp55yHbRSJV88KQnZ9+3bN2OdW2+99VKnUve66dOnu/UhVaqsUz1nwOZf4pw5c7IHH3xQJUckVTk64br+/ftne+65ZzZ8+PBKkhl3AoaN5oj3jTansdW5LOJc9xd/8Rfqj8+mwKIVm89FeP7888/PyMv1Mm3atKTTO1Q5tLSlSA3ByKdX+Ny5c6Oel+vPOecctZyyqJtH/BgKQDiTYw/VGK206/WbesQt7acVRSCVoUSzer0saChyYt1i742V2iLFRYsWuQZGfDsxwjpFgXc+nSg1vYF1inl5SW0LzSEbntytttoq5lGCf4sBiyEbK1UsfM0/Q08bsB4IWlWS6Dxz5szsmWeeiX3HXfn7fv36OdJ3QhrkuZqUhwBVsJzcly9fHnQTKE0wytZee+2g36f8CCOWe4TmjQ8cONB1ESK1pFbwnOJZCJVddtnFGa8s6nl5//33sx/+8IfZ008/HTQU+WQ8A+0iO0FIlcATxMYcIuTJgYcZryFodc5vVq1a5fKZY4qLOsF49W9gxYoVzvsZmj7FIZQw/7Bhwz71En//+9+7g23oOsXhmnWqXjQGvOmCFSp77713dvLJJ39yyPbXEbaHj/6FF14IGgonBA6DMtcpdIo1eMaMGUFz4kedQMtnBmyd10lHjfnz57uqQqgxYj1RwRpSoR9+6UtfygirbLHFFq4LSD1DpELT7bqpUABAeK0Zpcu6666bjRgxIjv00ENb8vwUT910000u5YZNp55gZLKQM6dmBVIYnTxfsyrkv/zLv3TdXvD0NxM2Gv4061613XbbZWPGjHE63UlCwwby+/BcN2vegOeHVsRVTovoJNyrOFeKum655ZamB5rBgwdnhxxySEfybt95551O12EZaSSwkFBrwb7USLj+hhtuaMrgsNZaa2V0ywIrIoqNhIJv1qmFCxc2/A1FqrCs4NxpJDgjpkyZ4lIVcZA1EtI9aGTC/tsKwUkHg0OzFDF0irWlTINa61nNgA1Ako2Ekx6eET4WFJJQAf8/f8eGfwNuqf4TeELx2BFy5G88rHyIgwYNMmNVHe30AdGvxx57zB2cyJHFy8Z7wuvKYt4OQc+ffPJJd6DzOWcYThx0yIWOqZjlevpz8z3RlWedddZxaSlbb711RoFGjGAU84fFmDmuv/76zmDFeMUj3MlCygTPxmEazPjfYM7mwsbSbBPu5Oe2uX8aATo88f298sorbv9Bt3EwEBlrleFT5nvhUEseKs9HOgAHWZ6L75hvOlTYl5944gnXQGXJkiUZERi+GRofsL6QYxoqFHVhzL788svOu4vzYMMNN3TrHd9gjPDu+I6ZE/YCz8cYPB/jtkPQKbDiOXEEoFPYAuhUJzmvzIBth/bYPQ0BQ8AQMAQMAUPAEDAEkhEwAzYZOrvQEDAEDAFDwBAwBAwBQ6AdCJgB2w7U7Z6GgCFgCBgChoAhYAgYAskImAGbDJ1daAgYAoaAIWAIGAKGgCHQDgTMgG0H6nZPQ8AQMAQMAUPAEDAEDIFkBMyATYbOLjQEDAFDwBAwBAwBQ8AQaAcCZsC2A3W7pyFgCBgChoAhYAgYAoZAMgJmwCZDZxcaAoaAIWAIGAKGgCFgCLQDATNg24G63dMQMAQMAUPAEDAEDAFDIBkBM2CTobMLDQFDwBAwBAwBQ8AQMATagYAZsO1A3e5pCBgChoAhYAgYAoaAIZCMgBmwydDZhYaAIWAIGAKGgCFgCBgC7UDADNh2oG73NAQMAUPAEDAEDAFDwBBIRsAM2GTo7EJDwBAwBAwBQ8AQMAQMgXYgYAZsO1C3exoChoAhYAgYAoaAIWAIJCNgBmwydHahIWAIGAKGgCFgCBgChkA7EDADth2o2z0NAUPAEDAEDAFDwBAwBJIRMAM2GTq70BAwBAwBQ8AQMAQMAUOgHQiYAdsO1O2ehoAhYAgYAoaAIWAIGALJCJgBmwydXWgIGAKGgCFgCBgChoAh0A4EzIBtB+p2T0PAEDAEDAFDwBAwBAyBZATMgE2Gzi40BAwBQ8AQMAQMAUPAEGgHAmbAtgN1u6chYAgYAoaAIWAIGAKGQDICZsAmQ2cXGgKGgCFgCBgChoAhYAi0AwEzYNuBut3TEDAEDAFDwBAwBAwBQyAZATNgk6GzCw0BQ8AQMAQMAUPAEDAE2oGAGbDtQN3uaQgYAoaAIWAIGAKGgCGQjIAZsMnQ2YWGgCFgCBgChoAhYAgYAu1AwAzYdqBu9zQEDAFDwBAwBAwBQ8AQSEbADNhk6OxCQ8AQMAQMAUPAEDAEDIF2IGAGbDtQt3saAoaAIWAIGAKGgCFgCCQjYAZsMnR2oSFgCBgChoAhYAgYAoZAOxAwA7YdqNs9DQFDwBAwBAwBQ8AQMASSETADNhk6u9AQMAQMAUPAEDAEDAFDoB0ImAHbDtTtnoaAIWAIGAKGgCFgCBgCyQiYAZsMnV1oCBgChoAhYAgYAoaAIdAOBMyAbQfqdk9DwBBUl23KAAAAE0lEQVQwBAwBQ8AQMAQMgWQE/j+qLGyH6ALe9AAAAABJRU5ErkJggg==;" parent="1" vertex="1">
          <mxGeometry x="40" y="40" width="160" height="160" as="geometry" />
        </mxCell>
        <mxCell id="AVs13AZFLNNJArJ95App-3" value="La Desayuneria Bitcoin⚡Lightning" style="text;whiteSpace=wrap;" parent="1" vertex="1">
          <mxGeometry x="21.11" y="10" width="194" height="20" as="geometry" />
        </mxCell>
        <UserObject label="la_desayuneria@bitnode.one" link="papeleria_orozco@bitnode.one" id="AVs13AZFLNNJArJ95App-4">
          <mxCell style="text;whiteSpace=wrap;" parent="1" vertex="1">
            <mxGeometry x="43.06" y="200" width="153.89" height="20" as="geometry" />
          </mxCell>
        </UserObject>
      </root>
    </mxGraphModel>
  </diagram>
</mxfile>
